<?xml version="1.0" encoding="UTF-8" standalone="no"?>
<svg
   width="192.54477"
   id="Layer_1"
   data-name="Layer 1"
   viewBox="0 0 571.85796 37.424343"
   version="1.1"
   sodipodi:docname="logo.svg"
   height="37.424343"
   inkscape:version="1.1 (c4e8f9e, 2021-05-24)"
   xmlns:inkscape="http://www.inkscape.org/namespaces/inkscape"
   xmlns:sodipodi="http://sodipodi.sourceforge.net/DTD/sodipodi-0.dtd"
   xmlns="http://www.w3.org/2000/svg"
   xmlns:svg="http://www.w3.org/2000/svg">
  <sodipodi:namedview
     id="namedview141"
     pagecolor="#ffffff"
     bordercolor="#666666"
     borderopacity="1.0"
     inkscape:pageshadow="2"
     inkscape:pageopacity="0.0"
     inkscape:pagecheckerboard="0"
     showgrid="false"
     inkscape:zoom="6.0647482"
     inkscape:cx="47.15777"
     inkscape:cy="18.05516"
     inkscape:window-width="1920"
     inkscape:window-height="1027"
     inkscape:window-x="2880"
     inkscape:window-y="25"
     inkscape:window-maximized="0"
     inkscape:current-layer="Layer_1"
     fit-margin-top="0"
     fit-margin-left="0"
     fit-margin-right="0"
     fit-margin-bottom="0" />
  <defs
     id="defs94">
    <style
       id="style92">.cls-1,.cls-7{fill:#355eb8;}.cls-2,.cls-3{fill:none;}.cls-2{stroke:#355eb8;stroke-width:21px;}.cls-4,.cls-7{font-size:109px;font-family:ArialRoundedMTBold, Arial Rounded MT Bold;}.cls-5{letter-spacing:-0.06em;}.cls-6{letter-spacing:-0.04em;}.cls-8{letter-spacing:-0.04em;}.cls-9{letter-spacing:-0.05em;}</style>
  </defs>
  <path
     class="cls-1"
     d="m 36.8,-10.422685 a 8,8 0 1 0 -8,-8 8,8 0 0 0 8,8"
     id="path96" />
  <path
     class="cls-2"
     d="m 36.8,-10.422685 a 8,8 0 1 0 -8,-8 8,8 0 0 0 8,8 z"
     id="path98" />
  <path
     class="cls-1"
     d="m 94.53,26.687318 a 8,8 0 1 0 -8,-8 8,8 0 0 0 8,8"
     id="path100" />
  <path
     class="cls-2"
     d="m 94.53,26.687318 a 8,8 0 1 0 -8,-8 8,8 0 0 0 8,8 z"
     id="path102" />
  <path
     class="cls-1"
     d="m 76.01,63.787318 a 8,8 0 1 0 -8,-8 8,8 0 0 0 8,8"
     id="path104" />
  <path
     class="cls-2"
     d="m 76.01,63.787318 a 8,8 0 1 0 -8,-8 8,8 0 0 0 8,8 z"
     id="path106" />
  <path
     class="cls-1"
     d="m 36.8,63.787318 a 8,8 0 1 0 -8,-8 8,8 0 0 0 8,8"
     id="path108" />
  <path
     class="cls-2"
     d="m 36.8,63.787318 a 8,8 0 1 0 -8,-8 8,8 0 0 0 8,8 z"
     id="path110" />
  <path
     class="cls-1"
     d="m 18.5,26.687318 a 8,8 0 1 0 -8,-8 8,8 0 0 0 8,8"
     id="path112" />
  <path
     class="cls-2"
     d="m 18.5,26.687318 a 8,8 0 1 0 -8,-8 8,8 0 0 0 8,8 z"
     id="path114" />
  <rect
     class="cls-3"
     x="-0.46971473"
     y="-152.99518"
     width="1111.72"
     height="128.37"
     id="rect116" />
  <text
     class="cls-4"
     id="text124"
     x="121.02"
     y="50.067318"><tspan
       class="cls-5"
       id="tspan118">c</tspan><tspan
       class="cls-6"
       x="178.81999"
       y="50.067318"
       id="tspan120">he</tspan><tspan
       x="300.69998"
       y="50.067318"
       id="tspan122">m</tspan></text>
  <text
     class="cls-7"
     id="text134"
     x="392.67999"
     y="50.067318"><tspan
       class="cls-8"
       id="tspan126">i</tspan><tspan
       class="cls-6"
       x="417.97"
       y="50.067318"
       id="tspan128">n</tspan><tspan
       class="cls-9"
       x="479.44"
       y="50.067318"
       id="tspan130">f</tspan><tspan
       x="509.95999"
       y="50.067318"
       id="tspan132">o</tspan></text>
  <path
     class="cls-1"
     d="m 76.01,-10.422685 a 8,8 0 1 0 -8,-8 8,8 0 0 0 8,8"
     id="path136" />
  <path
     class="cls-2"
     d="m 76.01,-10.422685 a 8,8 0 1 0 -8,-8 8,8 0 0 0 8,8 z"
     id="path138" />
</svg>
