<?xml version="1.0" encoding="utf-8"?>
<!-- Generator: Adobe Illustrator 24.1.0, SVG Export Plug-In . SVG Version: 6.00 Build 0)  -->
<svg version="1.1" id="Layer_1" xmlns="http://www.w3.org/2000/svg" xmlns:xlink="http://www.w3.org/1999/xlink" x="0px" y="0px"
	 viewBox="0 0 600 130" style="enable-background:new 0 0 600 130;" xml:space="preserve">
<style type="text/css">
	.st0{clip-path:url(#SVGID_2_);fill:#355EB8;}
	.st1{clip-path:url(#SVGID_2_);fill:none;stroke:#355EB8;stroke-width:21;}
	.st2{font-family:'ArialRoundedMTBold';}
	.st3{font-size:109px;}
	.st4{letter-spacing:-6;}
	.st5{letter-spacing:-4;}
	.st6{fill:#355EB8;}
	.st7{letter-spacing:-5;}
	.st8{clip-path:url(#SVGID_4_);fill:#355EB8;}
	.st9{clip-path:url(#SVGID_4_);fill:none;stroke:#355EB8;stroke-width:21;}
</style>
<g>
	<defs>
		<rect id="SVGID_1_" x="-104" y="-183" width="800" height="600"/>
	</defs>
	<clipPath id="SVGID_2_">
		<use xlink:href="#SVGID_1_"  style="overflow:visible;"/>
	</clipPath>
	<path class="st0" d="M50.81,38.16c4.41,0,7.99-3.58,7.99-7.99c0-4.41-3.57-7.99-7.99-7.99c-4.41,0-7.99,3.58-7.99,7.99
		C42.83,34.58,46.4,38.16,50.81,38.16"/>
	<path class="st1" d="M50.81,38.16c4.41,0,7.99-3.58,7.99-7.99c0-4.41-3.57-7.99-7.99-7.99c-4.41,0-7.99,3.58-7.99,7.99
		C42.83,34.58,46.4,38.16,50.81,38.16z"/>
	<path class="st0" d="M108.51,75.27c4.41,0,7.99-3.58,7.99-7.99c0-4.41-3.57-7.99-7.99-7.99c-4.41,0-7.99,3.58-7.99,7.99
		C100.53,71.69,104.1,75.27,108.51,75.27"/>
	<path class="st1" d="M108.51,75.27c4.41,0,7.99-3.58,7.99-7.99c0-4.41-3.57-7.99-7.99-7.99c-4.41,0-7.99,3.58-7.99,7.99
		C100.53,71.69,104.1,75.27,108.51,75.27z"/>
	<path class="st0" d="M89.99,112.38c4.41,0,7.99-3.58,7.99-7.99c0-4.41-3.57-7.99-7.99-7.99c-4.41,0-7.99,3.58-7.99,7.99
		C82,108.8,85.58,112.38,89.99,112.38"/>
	<path class="st1" d="M89.99,112.38c4.41,0,7.99-3.58,7.99-7.99c0-4.41-3.57-7.99-7.99-7.99c-4.41,0-7.99,3.58-7.99,7.99
		C82,108.8,85.58,112.38,89.99,112.38z"/>
	<path class="st0" d="M50.81,112.38c4.41,0,7.99-3.58,7.99-7.99c0-4.41-3.57-7.99-7.99-7.99c-4.41,0-7.99,3.58-7.99,7.99
		C42.83,108.8,46.4,112.38,50.81,112.38"/>
	<path class="st1" d="M50.81,112.38c4.41,0,7.99-3.58,7.99-7.99c0-4.41-3.57-7.99-7.99-7.99c-4.41,0-7.99,3.58-7.99,7.99
		C42.83,108.8,46.4,112.38,50.81,112.38z"/>
	<path class="st0" d="M32.49,75.27c4.41,0,7.99-3.58,7.99-7.99c0-4.41-3.57-7.99-7.99-7.99c-4.41,0-7.99,3.58-7.99,7.99
		C24.5,71.69,28.08,75.27,32.49,75.27"/>
	<path class="st1" d="M32.49,75.27c4.41,0,7.99-3.58,7.99-7.99c0-4.41-3.57-7.99-7.99-7.99c-4.41,0-7.99,3.58-7.99,7.99
		C24.5,71.69,28.08,75.27,32.49,75.27z"/>
</g>
<text transform="matrix(1 0 0 1 135 98.6538)"><tspan x="0" y="0" class="st2 st3 st4">c</tspan><tspan x="57.8" y="0" class="st2 st3 st5">h</tspan><tspan x="119.38" y="0" class="st2 st3 st5">e</tspan><tspan x="179.79" y="0" class="st2 st3">m</tspan></text>
<text transform="matrix(1 0 0 1 406.6592 98.6538)"><tspan x="0" y="0" class="st6 st2 st3 st5">i</tspan><tspan x="25.29" y="0" class="st6 st2 st3 st5">n</tspan><tspan x="86.76" y="0" class="st6 st2 st3 st7">f</tspan><tspan x="117.29" y="0" class="st6 st2 st3">o</tspan></text>
<g>
	<defs>
		<rect id="SVGID_3_" x="-104" y="-183" width="800" height="600"/>
	</defs>
	<clipPath id="SVGID_4_">
		<use xlink:href="#SVGID_3_"  style="overflow:visible;"/>
	</clipPath>
	<path class="st8" d="M89.99,38.16c4.41,0,7.99-3.58,7.99-7.99c0-4.41-3.57-7.99-7.99-7.99c-4.41,0-7.99,3.58-7.99,7.99
		C82,34.58,85.58,38.16,89.99,38.16"/>
	<path class="st9" d="M89.99,38.16c4.41,0,7.99-3.58,7.99-7.99c0-4.41-3.57-7.99-7.99-7.99c-4.41,0-7.99,3.58-7.99,7.99
		C82,34.58,85.58,38.16,89.99,38.16z"/>
</g>
</svg>
