<?xml version="1.0" encoding="UTF-8" standalone="no"?>
<!-- Created with Inkscape (http://www.inkscape.org/) -->
<svg
   xmlns:svg="http://www.w3.org/2000/svg"
   xmlns="http://www.w3.org/2000/svg"
   version="1.0"
   width="868"
   height="319"
   id="svg2">
  <defs
     id="defs4">
    <clipPath
       id="clipPath2878">
      <path
         d="M 51.02,323.149 L 284.881,323.149 L 284.881,204.096 L 51.02,204.096 L 51.02,323.149 z"
         id="path2880" />
    </clipPath>
    <clipPath
       id="clipPath2866">
      <path
         d="M 311.102,377.716 L 544.961,377.716 L 544.961,505.275 L 311.102,505.275 L 311.102,377.716 z"
         id="path2868" />
    </clipPath>
    <clipPath
       id="clipPath2826">
      <path
         d="M 0,0 L 595.276,0 L 595.276,841.89 L 0,841.89 L 0,0 z"
         id="path2828" />
    </clipPath>
    <clipPath
       id="clipPath2808">
      <path
         d="M 478.481,841.89 L 458.521,728.69 L 595.275,704.578 L 595.275,841.89 L 478.481,841.89 z"
         id="path2810" />
    </clipPath>
    <clipPath
       id="clipPath2784">
      <path
         d="M 478.481,841.89 L 458.521,728.69 L 595.275,704.577 L 595.275,841.89 L 478.481,841.89 z"
         id="path2786" />
    </clipPath>
    <clipPath
       id="clipPath2540">
      <path
         d="M 0,0 L 595.276,0 L 595.276,841.89 L 0,841.89 L 0,0 z"
         id="path2542" />
    </clipPath>
    <clipPath
       id="clipPath2508">
      <path
         d="M 354.028,741.362 L 444.569,725.396 L 457.152,796.761 L 366.611,812.726 L 354.028,741.362 z"
         id="path2510" />
    </clipPath>
    <clipPath
       id="clipPath2418">
      <path
         d="M 423.071,20.889 L 552.047,20.889 L 552.047,75.489 L 423.071,75.489 L 423.071,20.889 z"
         id="path2420" />
    </clipPath>
  </defs>
  <g
     transform="translate(42.793935,18.525007)"
     id="layer1">
    <g
       transform="matrix(7.4304707,0,0,-7.4304707,-3224.5481,532.90296)"
       id="g2414">
      <g
         clip-path="url(#clipPath2418)"
         id="g2416">
        <g
           transform="translate(459.5452,32.8317)"
           id="g2422">
          <path
             d="M 0,0 L 0,8.964 C 0,11.346 1.355,13.984 4.928,13.984 C 8.503,13.984 9.875,11.346 9.875,8.964 L 9.875,0 L 6.813,0 L 6.813,4.961 L 3.827,4.961 L 3.827,7.638 L 6.813,7.638 L 6.813,9.471 C 6.813,10.487 6.344,11.306 4.928,11.306 C 3.513,11.306 3.062,10.487 3.062,9.471 L 3.062,0 L 0,0 z"
             id="path2424"
             style="fill:#231f20;fill-opacity:1;fill-rule:nonzero;stroke:none" />
        </g>
        <g
           transform="translate(480.2443,43.8447)"
           id="g2426">
          <path
             d="M 0,0 L -2.123,0 C -4.129,0 -5.701,-2.185 -5.701,-4.134 C -5.701,-6.08 -4.129,-8.266 -2.123,-8.266 L 0,-8.266 L 0,-11.013 L -2.28,-11.013 C -5.583,-11.013 -8.76,-8.306 -8.76,-4.134 C -8.76,0.038 -5.583,2.748 -2.28,2.748 L 0,2.748 L 0,0 z"
             id="path2428"
             style="fill:#231f20;fill-opacity:1;fill-rule:nonzero;stroke:none" />
        </g>
        <g
           transform="translate(484.3032,43.8447)"
           id="g2430">
          <path
             d="M 0,0 L -2.99,0 L -2.99,2.748 L 5.891,2.748 L 5.891,0 L 2.902,0 L 2.902,-11.013 L 0,-11.013 L 0,0 z"
             id="path2432"
             style="fill:#231f20;fill-opacity:1;fill-rule:nonzero;stroke:none" />
        </g>
        <g
           transform="translate(499.1469,43.8447)"
           id="g2434">
          <path
             d="M 0,0 L -1.767,0 C -3.984,0 -5.045,-1.537 -5.281,-2.859 L 0,-2.859 L 0,-5.407 L -5.281,-5.407 C -5.045,-6.728 -3.984,-8.266 -1.767,-8.266 L 0,-8.266 L 0,-11.013 L -1.51,-11.013 C -6.223,-11.013 -8.267,-7.516 -8.267,-4.134 C -8.267,-0.749 -6.223,2.748 -1.51,2.748 L 0,2.748 L 0,0 z"
             id="path2436"
             style="fill:#231f20;fill-opacity:1;fill-rule:nonzero;stroke:none" />
        </g>
        <g
           transform="translate(505.5485,46.5923)"
           id="g2438">
          <path
             d="M 0,0 L 0,-9.244 C 0,-10.503 0.511,-10.859 1.494,-10.859 L 3.676,-10.859 L 3.676,-13.761 L 0.787,-13.761 C -1.414,-13.761 -2.905,-12.661 -2.905,-9.637 L -2.905,0 L 0,0 z"
             id="path2440"
             style="fill:#231f20;fill-opacity:1;fill-rule:nonzero;stroke:none" />
        </g>
        <path
           d="M 511.648,46.592 L 514.553,46.592 L 514.553,32.831 L 511.648,32.831 L 511.648,46.592 z"
           id="path2442"
           style="fill:#231f20;fill-opacity:1;fill-rule:nonzero;stroke:none" />
        <g
           transform="translate(523.6803,43.9801)"
           id="g2444">
          <path
             d="M 0,0 C 2.578,0 4.11,-1.975 4.11,-4.269 C 4.11,-6.559 2.578,-8.536 0,-8.536 C -2.574,-8.536 -4.11,-6.559 -4.11,-4.269 C -4.11,-1.975 -2.574,0 0,0 M 0,2.836 C -4.11,2.836 -7.014,-0.41 -7.014,-4.269 C -7.014,-8.126 -4.11,-11.371 0,-11.371 C 4.11,-11.371 7.016,-8.126 7.016,-4.269 C 7.016,-0.41 4.11,2.836 0,2.836"
             id="path2446"
             style="fill:#231f20;fill-opacity:1;fill-rule:nonzero;stroke:none" />
        </g>
        <g
           transform="translate(532.847,32.8317)"
           id="g2448">
          <path
             d="M 0,0 L 0,11.981 C 0,13.141 0.764,13.986 2.002,13.986 C 3.394,13.986 4.043,12.925 4.511,11.994 L 7.893,4.942 L 7.911,4.942 L 7.953,4.942 L 7.953,13.761 L 10.857,13.761 L 10.857,1.76 C 10.857,0.697 10.463,-0.224 9.228,-0.224 C 8.011,-0.224 7.498,0.521 6.847,1.827 L 2.942,9.869 L 2.901,9.83 L 2.901,0 L 0,0 z"
             id="path2450"
             style="fill:#231f20;fill-opacity:1;fill-rule:nonzero;stroke:none" />
        </g>
        <g
           transform="translate(433.5358,37.896)"
           id="g2452">
          <path
             d="M 0,0 L 1.938,0.002 C -7.091,11.423 -1.176,27.141 11.117,31.771 C 24.101,36.66 34.228,28.542 37.844,18.349 L 52.203,18.349 C 50.412,24.262 46.442,33.211 27.766,34.843 C 22.855,35.275 15.703,34.695 12.518,33.754 C 1.983,31.327 -2.08,21.548 -2.306,21.033 C -2.531,20.518 -7.236,9.95 0,0"
             id="path2454"
             style="fill:#ed114b;fill-opacity:1;fill-rule:nonzero;stroke:none" />
        </g>
        <g
           transform="translate(441.9938,48.819)"
           id="g2456">
          <path
             d="M 0,0 C 0.212,-0.934 1.07,-2.722 1.822,-2.298 C 2.538,-1.892 1.836,0.336 1.71,0.737 C 1.451,1.551 0.898,2.869 0.189,2.657 C -0.372,2.488 -0.204,0.907 0,0"
             id="path2458"
             style="fill:#ed114b;fill-opacity:1;fill-rule:nonzero;stroke:none" />
        </g>
        <g
           transform="translate(441.7929,56.8591)"
           id="g2460">
          <path
             d="M 0,0 C -0.197,-0.794 -0.155,-2.313 0.589,-1.887 C 1.217,-1.527 1.646,0.137 1.826,1.008 C 1.909,1.409 1.991,2.46 1.669,2.601 C 0.924,2.923 0.335,1.36 0,0"
             id="path2462"
             style="fill:#ed114b;fill-opacity:1;fill-rule:nonzero;stroke:none" />
        </g>
        <g
           transform="translate(438.9876,64.0225)"
           id="g2464">
          <path
             d="M 0,0 C -0.447,-0.328 -0.992,-0.876 -1.372,-1.356 C -2.237,-2.444 -2.21,-3.19 -1.592,-3.306 C -1.064,-3.403 0.117,-2.528 0.95,-1.483 C 1.841,-0.488 1.997,0.283 1.486,0.531 C 1.178,0.677 0.842,0.615 0,0"
             id="path2466"
             style="fill:#ed114b;fill-opacity:1;fill-rule:nonzero;stroke:none" />
        </g>
        <g
           transform="translate(439.576,59.7312)"
           id="g2468">
          <path
             d="M 0,0 C -0.446,-0.88 -0.599,-2.027 -0.106,-2.152 C 0.444,-2.293 1.467,-0.867 2.056,0.332 C 2.355,0.944 2.714,1.846 2.477,2.14 C 1.898,2.854 0.586,1.154 0,0"
             id="path2470"
             style="fill:#ed114b;fill-opacity:1;fill-rule:nonzero;stroke:none" />
        </g>
        <g
           transform="translate(447.4616,66.0914)"
           id="g2472">
          <path
             d="M 0,0 C 0.056,0.598 -1.385,0.098 -2.829,-1.376 C -3.086,-1.641 -3.862,-2.617 -3.533,-2.826 C -3.06,-3.124 -1.336,-1.668 -0.697,-1.014 C -0.214,-0.524 -0.017,-0.191 0,0"
             id="path2474"
             style="fill:#ed114b;fill-opacity:1;fill-rule:nonzero;stroke:none" />
        </g>
        <g
           transform="translate(442.5164,66.3941)"
           id="g2476">
          <path
             d="M 0,0 C 0.379,-0.569 2.392,0.394 3.441,0.947 C 4.126,1.306 4.711,1.776 4.439,2.046 C 4.086,2.402 2.977,2.117 1.28,1.277 C 0.471,0.875 -0.192,0.288 0,0"
             id="path2478"
             style="fill:#ed114b;fill-opacity:1;fill-rule:nonzero;stroke:none" />
        </g>
        <g
           transform="translate(453.0551,69.7232)"
           id="g2480">
          <path
             d="M 0,0 C -0.01,-0.154 -0.307,-0.361 -0.858,-0.542 C -2.018,-0.922 -3.996,-1.144 -4.038,-0.677 C -4.052,-0.531 -3.84,-0.307 -3.452,-0.169 C -2.547,0.153 0.036,0.615 0,0"
             id="path2482"
             style="fill:#ed114b;fill-opacity:1;fill-rule:nonzero;stroke:none" />
        </g>
        <g
           transform="translate(440.1553,52.0275)"
           id="g2484">
          <path
             d="M 0,0 C 0.003,-1.428 -0.363,-2.495 -1.01,-2.569 C -1.62,-2.637 -2.244,-1.498 -2.277,-0.07 C -2.31,1.357 -1.879,2.409 -1.179,2.514 C -0.526,2.611 -0.001,1.35 0,0"
             id="path2486"
             style="fill:#ed114b;fill-opacity:1;fill-rule:nonzero;stroke:none" />
        </g>
        <g
           transform="translate(433.9505,55.5199)"
           id="g2488">
          <path
             d="M 0,0 C -0.438,-1.468 -0.243,-2.799 0.487,-2.993 C 1.2,-3.181 1.911,-2.358 2.293,-0.778 C 2.638,0.667 2.486,1.935 1.855,2.149 C 1.223,2.364 0.424,1.424 0,0"
             id="path2490"
             style="fill:#ed114b;fill-opacity:1;fill-rule:nonzero;stroke:none" />
        </g>
        <g
           transform="translate(436.4119,46.0934)"
           id="g2492">
          <path
             d="M 0,0 C 0.785,-1.593 0.785,-2.912 0.107,-3.175 C -0.519,-3.419 -1.629,-2.856 -2.369,-1.153 C -3.021,0.344 -3.135,1.766 -2.48,2.085 C -1.826,2.403 -0.723,1.465 0,0"
             id="path2494"
             style="fill:#ed114b;fill-opacity:1;fill-rule:nonzero;stroke:none" />
        </g>
        <g
           transform="translate(440.102,42.6676)"
           id="g2496">
          <path
             d="M 0,0 C -0.911,1.202 -1.236,2.563 -0.694,2.973 C -0.154,3.384 0.944,2.693 1.958,1.396 C 2.826,0.285 3.277,-0.962 2.744,-1.381 C 2.142,-1.851 0.909,-1.201 0,0"
             id="path2498"
             style="fill:#ed114b;fill-opacity:1;fill-rule:nonzero;stroke:none" />
        </g>
        <g
           transform="translate(447.5408,41.9639)"
           id="g2500">
          <path
             d="M 0,0 C 1.122,-1.126 1.582,-1.905 1.428,-2.238 C 1.112,-2.935 -0.571,-1.998 -1.451,-1.116 C -2.434,-0.135 -2.972,0.929 -2.606,1.293 C -2.241,1.658 -1.122,1.126 0,0"
             id="path2502"
             style="fill:#ed114b;fill-opacity:1;fill-rule:nonzero;stroke:none" />
        </g>
      </g>
    </g>
  </g>
</svg>
