<?xml version="1.0" encoding="utf-8"?>
<!-- Generator: Adobe Illustrator 19.2.1, SVG Export Plug-In . SVG Version: 6.00 Build 0)  -->
<svg version="1.1" id="layer" xmlns="http://www.w3.org/2000/svg" xmlns:xlink="http://www.w3.org/1999/xlink" x="0px" y="0px"
	 viewBox="0 0 652 652" style="enable-background:new 0 0 652 652;" xml:space="preserve">
<style type="text/css">
	.st0{fill:#CC0000;}
	.st1{fill:#FFFFFF;}
</style>
<rect x="76" y="76" class="st0" width="500" height="500"/>
<path class="st1" d="M149.8,381v51.7c0,0.8-0.4,1.3-1.3,1.3H141c-0.8,0-1.3-0.8-1.3-1.3v-67.1c0-0.8,0.4-1.3,1.3-1.3h12.9
	c2.5,0,3.3,0.4,4.2,2.9l18.3,55.8l17.5-55c1.3-3.8,1.7-4.2,3.8-4.2h13.8c0.8,0,1.2,0.8,1.2,1.3v67.5c0,0.8-0.4,1.3-1.2,1.3H201
	c-0.8,0-1.3-0.8-1.3-1.3V381l-16.7,48.7c-1.3,4.2-1.7,4.2-4.2,4.2h-8.3c-2.1,0-2.5-0.4-3.3-3.8L149.8,381z"/>
<path class="st1" d="M177.7,458.1h3.7c0.4,0,0.4,0,0.4,0.4v14.2c0,2.5,0.4,3.3,1.3,4.2c0.8,0.8,2.1,1.3,3.8,1.3
	c1.7,0,2.9-0.4,3.8-1.3c1.3-0.8,1.7-2.1,1.7-4.6v-14.2c0-0.4,0-0.4,0.4-0.4h2.5c0.4,0,0.4,0,0.4,0.4v15.4c0,2.5-0.8,4.6-2.9,5.8
	c-1.7,1.3-3.8,1.7-6.7,1.7c-2.9,0-5-0.4-6.7-1.7c-2.1-1.7-2.5-3.3-2.5-7.1v-14.2C177.3,458.5,177.3,458.1,177.7,458.1"/>
<path class="st1" d="M217.3,463.5v17.1c0,0.4,0,0.4-0.4,0.4h-2.5c-0.4,0-0.4,0-0.4-0.4v-22.1c0-0.4,0.4-0.4,0.4-0.4h3.8
	c0.4,0,0.8,0,1.3,0.8l10,16.3v-16.7c0-0.4,0-0.4,0.4-0.4h2.5c0.4,0,0.4,0.4,0.4,0.4v22.1c0,0.4,0,0.4-0.4,0.4h-3.3
	c-0.4,0-0.8,0-1.3-0.8L217.3,463.5z"/>
<path class="st1" d="M251,480.6v-22.1c0-0.4,0-0.4,0.4-0.4h3.8c0.4,0,0.4,0.4,0.4,0.4v22.1c0,0.4,0,0.4-0.4,0.4h-3.8
	C251.4,481,251,481,251,480.6"/>
<path class="st1" d="M282.3,476.4l5.8-17.5c0-0.8,0.4-0.8,0.8-0.8h2.1c0.4,0,0.4,0,0.4,0.4v0.4l-7.1,21.2c-0.4,1.3-0.4,1.3-1.3,1.3
	h-2.5c-0.8,0-0.8,0-1.3-1.3l-7.5-21.2v-0.4c0-0.4,0-0.4,0.8-0.4h2.9c0.8,0,0.8,0,1.3,0.8L282.3,476.4z"/>
<path class="st1" d="M312.3,461.4v5.8h7.1c0.4,0,0.4,0.4,0.4,0.4v2.5c0,0.4,0,0.4-0.4,0.4h-7.1v6.7h9.6c0.4,0,0.4,0.4,0.4,0.4v2.5
	c0,0.4,0,0.4-0.4,0.4h-13.3c-0.4,0-0.4,0-0.4-0.4v-22.1c0-0.4,0.4-0.4,0.4-0.4h12.9c0.4,0,0.4,0,0.4,0.4v2.5c0,0.4-0.4,0.4-0.4,0.4
	h-9.2V461.4z"/>
<path class="st1" d="M343.5,468.1h2.9c2.1,0,3.3-1.3,3.3-3.3c0-2.1-1.3-3.3-3.3-3.3h-2.9V468.1z M343.5,470.6v10
	c0,0.4,0,0.4-0.4,0.4h-3.8c-0.4,0-0.4,0-0.4-0.4v-22.1c0-0.4,0.4-0.4,0.4-0.4h7.5c2.5,0,4.2,0.4,5.4,1.7c1.3,1.3,1.7,2.5,1.7,4.2
	c0,3.3-1.7,5.4-5,5.8l0,0c0,0.4,0.4,0.8,1.3,1.7c0.8,1.3,1.7,2.1,2.1,2.9l3.8,5.4c0.4,0.4,0.4,0.4,0.4,0.8c0,0.4-0.4,0.4-0.8,0.4
	h-3.8h-0.4l-6.7-10c-0.4-0.4-0.4-0.4-0.8-0.4H343.5z"/>
<path class="st1" d="M379.3,471.8l-3.3-2.5c-2.1-1.7-2.9-2.9-2.9-5c0-3.8,2.9-6.3,7.5-6.3c3.3,0,5.4,0.8,5.4,1.7v2.5
	c0,0.4,0,0.4-0.4,0.4h-0.4c-1.7-0.8-2.9-1.3-4.2-1.3c-2.1,0-3.3,0.8-3.3,2.5c0,1.3,0.4,1.7,2.1,2.9l3.8,2.5c2.5,1.7,3.3,3.3,3.3,5.4
	c0,4.2-2.9,6.7-7.9,6.7c-3.8,0-6.3-0.8-6.3-2.1v-2.5c0-0.4,0-0.4,0.4-0.4h0.4c1.7,0.8,3.3,1.3,5,1.3c2.5,0,3.8-0.8,3.8-2.9
	C381.8,473.9,381,473.1,379.3,471.8"/>
<path class="st1" d="M403.5,480.6v-22.1c0-0.4,0-0.4,0.4-0.4h3.8c0.4,0,0.4,0.4,0.4,0.4v22.1c0,0.4,0,0.4-0.4,0.4h-3.8
	C403.9,481,403.5,481,403.5,480.6"/>
<path class="st1" d="M431.4,461.4h-6.3c-0.4,0-0.4,0-0.4-0.4v-2.5c0-0.4,0.4-0.4,0.4-0.4h17.5c0.4,0,0.4,0,0.4,0.4v2.5
	c0,0.4-0.4,0.4-0.4,0.4H436v19.2c0,0.4-0.4,0.4-0.4,0.4h-3.8c-0.4,0-0.4,0-0.4-0.4V461.4z"/>
<path class="st1" d="M466,472.2l-7.9-12.9v-0.4c0-0.4,0.4-0.4,0.8-0.4h3.3c0.8,0,0.8,0,1.3,0.8l5.4,9.2l5-9.2
	c0.4-0.4,0.4-0.4,0.8-0.4h2.5c0.4,0,0.8,0,0.8,0.4v0.4l-7.5,12.1v8.7c0,0.4,0,0.4-0.4,0.4h-3.8c-0.4,0-0.4-0.4-0.4-0.4V472.2z"/>
<path class="st1" d="M256.4,431.8L256.4,431.8c-1.7,0-2.1,0-3.3,0.8l-3.3,1.3c-2.5,0.8-5.8,1.7-9.6,1.7c-11.3,0-17.1-5.8-17.1-16.7
	v-33.3c0-0.8,0.4-1.3,1.3-1.3h9.6c0.8,0,1.3,0.4,1.3,1.3v29.2c0,7.9,2.9,11.7,9.6,11.7s10-2.5,10-7.1V386c0-0.8,0.4-1.3,1.3-1.3h9.6
	c0.8,0,1.3,0.4,1.3,1.3v47.9c0,0.8-0.4,1.3-1.3,1.3h-8.3c-0.4,0-1.3-0.4-1.3-1.3v-2.1H256.4z"/>
<path class="st1" d="M288.9,386.8c1.3,0,1.3,0,2.9-0.8c3.8-1.7,7.9-2.9,11.3-2.9c3.3,0,4.2,0.4,4.2,2.1v7.5c0,1.3-0.4,1.7-1.7,1.7
	c-0.4,0-0.8,0-1.2,0h-1.7l-2.5-0.4c-0.8,0-1.7,0-2.5,0c-5.4,0-7.5,2.1-7.5,7.5v32.1c0,0.8-0.4,1.3-1.3,1.3h-9.6
	c-0.8,0-1.3-0.4-1.3-1.3v-48.3c0-0.8,0.4-1.3,1.3-1.3h8.3c0.8,0,1.7,0.4,1.7,1.3v1.7H288.9z"/>
<path class="st1" d="M346.4,419.3v-20.4c0-5.4-3.3-7.9-10-7.9c-9.2,0-14.2,6.3-14.2,17.5c0,11.7,5,17.9,13.8,17.9
	C342.7,426.4,346.4,423.9,346.4,419.3 M347.3,431.4c-0.8,0-1.3,0-2.1,0.4c-3.3,2.1-7.5,2.9-11.3,2.9c-14.6,0-23.8-10-23.8-25.4
	c0-15.8,10-26.7,24.2-26.7c3.8,0,6.7,0.8,9.6,2.5c1.3,0.4,1.3,0.8,2.5,0.8v-21.3c0-0.8,0.4-1.3,1.3-1.3h9.6c0.8,0,1.3,0.4,1.3,1.3
	v67.9c0,0.8-0.4,1.3-1.3,1.3h-8.3c-0.8,0-1.7-0.4-1.7-1.3V431.4z"/>
<path class="st1" d="M378.5,408.9c0,11.7,4.6,18.3,12.5,18.3c7.9,0,12.5-6.7,12.5-17.9c0-11.7-4.6-18.3-12.5-18.3
	C383.1,391,378.5,397.7,378.5,408.9 M366.4,409.3c0-17.1,8.8-26.3,24.6-26.3c7.5,0,12.5,1.7,16.7,5.4c5.4,4.6,7.9,11.7,7.9,20.4
	c0,17.9-8.3,27.1-25,27.1c-7.9,0-12.5-1.7-16.7-5.4C368.9,425.6,366.4,418.9,366.4,409.3"/>
<path class="st1" d="M462.7,424.3v5c0,3.3-7.1,5.4-16.3,5.4c-15.8,0-25-9.6-25-25.4c0-15.8,10-26.7,25.4-26.7c8.7,0,15.8,2.1,15.8,5
	v5.4c0,0.8-0.4,1.3-1.3,1.3c-0.4,0-0.8,0-1.7-0.4c-2.9-1.7-7.5-2.9-11.3-2.9c-10,0-15.4,5.8-15.4,17.5c0,12.1,5,17.9,14.6,17.9
	c4.2,0,8.8-1.3,12.1-2.9c0.4-0.4,1.3-0.4,1.7-0.4C462.3,422.7,462.7,423.5,462.7,424.3"/>
<path class="st1" d="M482.7,386L482.7,386c1.3,0,1.7,0,3.3-0.8c3.3-1.7,7.1-2.5,11.7-2.5c11.3,0,17.5,6.3,17.5,17.1v32.9
	c0,0.8-0.4,1.3-1.3,1.3h-9.6c-0.8,0-1.3-0.4-1.3-1.3v-28.8c0-8.3-2.9-12.1-9.6-12.1s-10.4,2.9-10.4,7.1v33.8c0,0.8-0.4,1.3-1.3,1.3
	h-10c-0.8,0-1.3-0.4-1.3-1.3v-67.9c0-0.8,0.4-1.3,1.3-1.3h9.6c0.8,0,1.3,0.4,1.3,1.3C482.7,364.7,482.7,386,482.7,386z"/>
<path class="st1" d="M379.8,291h-29.6c-3.3,0-10.8,0.8-15.8,3.8c-4.2,2.5-7.5,7.1-7.5,7.1s-3.3-4.6-7.5-7.1
	c-5-2.9-12.5-3.8-15.8-3.8h-29.6c2.9,5,6.2,10,10.4,14.2c22.9,22.9,42.5,30.4,42.5,30.4s19.2-7.1,42.5-30.4
	C373.9,301,377.3,296,379.8,291"/>
<path class="st1" d="M399.8,254.7l-3.8,9.6c0,0-4.6,2.1-12.1,2.1c-7.5,0-6.7-0.4-14.2-0.4c-16.3,0-23.3,5.4-23.3,5.4
	s3.3-7.9,13.3-11.7c4.6-2.1,8.3-2.1,11.2-2.1s10.8,1.3,15.8,1.3C392.3,258.5,399.8,254.7,399.8,254.7"/>
<path class="st1" d="M254.3,254.7l3.8,9.6c0,0,4.6,2.1,12.1,2.1c7.5,0,6.7-0.4,14.2-0.4c16.3,0,23.3,5.4,23.3,5.4
	s-3.3-7.9-13.3-11.7c-4.6-2.1-8.3-2.1-11.3-2.1c-2.9,0-10.8,1.3-15.8,1.3C261.8,258.5,254.3,254.7,254.3,254.7"/>
<path class="st1" d="M346.8,216c0-5-1.7-9.6-5-12.9l-0.8,66.2l-2.1-68.7c-1.7-1.3-3.8-2.5-5.8-3.3l-0.8,77.1l-2.1-77.9
	c-1.3,0-2.1-0.4-3.3-0.4s-2.5,0-3.3,0.4l-2.1,77.9l-0.8-77.1c-2.1,0.8-4.2,1.7-5.8,3.3l-2.1,68.7l-0.8-66.2c-2.9,3.3-5,7.9-5,12.9
	c0,3.8-0.8,30.4-0.8,41.3c0,12.1,9.2,17.9,13.3,19.2c6.3,2.5,7.1,8.3,7.1,8.3s0.8-5.8,7.1-8.3c4.2-1.7,13.3-7.1,13.3-19.2
	C347.7,246.4,346.8,219.7,346.8,216"/>
<path class="st1" d="M394.8,276h-43.3c-14.2,0-23.8,8.8-24.2,20c0.4-0.4,4.6-11.7,23.8-11.7h40.4L394.8,276L394.8,276z"/>
<path class="st1" d="M259.3,276h43.3c14.2,0,23.8,8.8,24.2,20c-0.4-0.4-4.6-11.7-23.8-11.7h-40.4L259.3,276L259.3,276z"/>
<path class="st1" d="M327.3,176.4l0.4,7.5l1.7,3.3c2.5,0.4,4.6,0.8,6.7,1.2v-0.4l3.3-2.5l3.3-6.7h0.4h0.4l-2.9,6.7l0.4,4.2v0.4
	c2.1,1.3,4.2,2.5,5.8,4.6l0.4-0.4l3.8-0.8l5.8-4.6l0.4,0.4l0.4,0.4l-5.4,5l-1.7,3.8h-0.4c1.7,2.1,2.9,4.6,3.8,7.1l3.8,0.8l7.1-2.1
	v0.4v0.4l-6.7,2.5l-2.9,2.9l0,0c0.4,1.3,0.4,2.9,0.4,4.2c0,0,0,2.1,0,5l2.9,1.3l7.1-0.4v0.4v0.4l-7.1,0.8L356,226
	c0,2.5,0,5.8,0.4,8.8l3.3,1.7l7.1,0.4v0.8h-7.5l-2.9,1.7c0,2.9,0,5.8,0.4,8.3l2.9,1.7l7.1,0.4v0.8l-7.1,0.4l-2.9,1.7
	c0,2.5,0,4.2,0,4.2v0.4c0.8-0.4,1.7-0.8,2.9-1.3c4.6-2.1,8.3-2.1,11.2-2.1s10.8,1.3,15.8,1.3c0.8,0,2.1,0,2.9-0.4c0-0.8,0-1.7,0-2.5
	v-75.8H327.3z M264.3,252.7c0,0.4,0,1.3,0,2.5c0.8,0,2.1,0.4,2.9,0.4c5,0,13.3-1.3,15.8-1.3c2.9,0,6.7,0.4,11.3,2.1
	c0.8,0.4,1.7,0.8,2.5,1.3v-0.4c0-0.4,0-2.1,0-4.6l-2.5-1.7l-7.1-0.4v-0.8l7.1-0.4l2.9-1.7c0-2.5,0-5.4,0.4-8.8l-2.9-1.7l-7.1-0.4
	V236l7.1-0.4l2.9-1.7c0-3.3,0-6.3,0.4-9.2l-2.9-1.7l-7.1-0.8v-0.4v-0.4l7.1,0.4l2.9-1.2c0-2.9,0-5,0-5c0-1.7,0-2.9,0.4-4.6l-2.5-2.9
	l-6.7-2.5v-0.4v-0.4l7.1,2.1l3.3-0.4c0.8-2.5,2.1-5,3.8-7.5l0,0l-1.7-3.8l-5-4.6l0.4-0.4l0.4-0.4l5.8,4.6l3.8,0.8l0,0
	c1.7-1.7,3.8-3.3,5.8-4.6v-0.4l0.4-4.2l-3.3-5.8h0.4h0.4l3.3,6.7l3.3,1.7v0.4c2.1-0.8,4.6-1.3,6.7-1.3l1.7-3.3l0.4-7.5h-62.5v75.8
	H264.3z"/>
</svg>
