<?xml version="1.0" encoding="UTF-8" standalone="no"?>
<!-- Created with Inkscape (http://www.inkscape.org/) -->
<svg
   xmlns:svg="http://www.w3.org/2000/svg"
   xmlns="http://www.w3.org/2000/svg"
   version="1.0"
   width="814.96063"
   height="268.58267"
   id="svg3633">
  <defs
     id="defs3635"><clipPath
   id="clp6">
<path
   d="M 0,842.04 L 594.96,842.04 L 594.96,0 L 0,0 L 0,842.04 z "
   id="path37998" />

</clipPath>
<clipPath
   id="clp5">
<path
   d="M -0.138,838.94 L 595.14,838.94 L 595.14,-2.945 L -0.138,-2.945 L -0.138,838.94 z "
   id="path37993" />

</clipPath>
<clipPath
   id="clp4">
<path
   d="M 0,0 L 111.08,0 L 111.08,55.357 L 0,55.357 L 0,0 z "
   id="path25050" />

</clipPath>










</defs>
  <g
     transform="translate(-1349.0454,-430.52764)"
     id="layer1">
    <g
       id="g48700">
      <path
         d="M 2054.4429,550.17857 L 2027.9064,550.17857 L 2027.9064,594.01881 C 2027.9064,606.51712 2034.5064,608.84077 2043.0309,608.84077 C 2045.9872,608.84077 2049.1492,608.42139 2052.3804,607.98144 L 2054.4429,627.62945 C 2047.4997,628.8669 2038.2184,629.91872 2032.1689,629.91872 C 2013.9507,629.91872 1997.7261,623.53897 1997.7261,601.14107 L 1997.7261,550.17857 L 1982.3954,550.17857 L 1982.3954,530.80551 L 1997.7261,530.80551 L 1997.7261,509.45943 L 2027.9064,500.90722 L 2027.9064,530.80551 L 2054.4429,530.80551 L 2054.4429,550.17857"
         style="fill:#010066;fill-opacity:1;fill-rule:nonzero;stroke:none"
         id="path48290" />
      <path
         d="M 1973.1834,627.90445 L 1943.0031,627.90445 L 1943.0031,565.56422 C 1943.0031,556.38645 1939.1537,551.3129 1928.7724,551.3129 C 1920.9354,551.3129 1915.9166,555.08025 1910.2796,559.57635 L 1910.2796,627.90445 L 1880.0306,627.90445 L 1880.0306,530.80551 L 1909.3859,530.80551 L 1909.3859,539.35772 C 1919.2166,532.74421 1930.4911,528.54374 1942.7281,528.54374 C 1961.9777,528.54374 1973.1834,540.49204 1973.1834,558.71697 L 1973.1834,627.90445"
         style="fill:#010066;fill-opacity:1;fill-rule:nonzero;stroke:none"
         id="path48292" />
      <path
         d="M 1817.8144,448.17108 C 1802.4836,474.04759 1809.1518,497.48362 1794.1648,512.42246 C 1782.2028,524.43263 1771.0658,524.02701 1758.0038,524.02701 C 1753.3975,524.02701 1744.5981,524.43263 1740.8855,527.11379 C 1738.7548,520.28028 1737.7923,512.75933 1737.7923,505.58208 C 1737.7923,493.2694 1740.5418,482.31792 1749.4106,473.47014 C 1766.3913,456.51016 1797.1211,451.12723 1817.8144,448.17108"
         style="fill:#019934;fill-opacity:1;fill-rule:nonzero;stroke:none"
         id="path48294" />
      <path
         d="M 1654.1265,627.90445 L 1623.9463,627.90445 L 1623.9463,565.56422 C 1623.9463,556.38645 1620.0962,551.3129 1609.7155,551.3129 C 1601.9473,551.3129 1596.8597,555.08025 1591.2228,559.57635 L 1591.2228,627.90445 L 1561.0425,627.90445 L 1561.0425,530.80551 L 1590.3978,530.80551 L 1590.3978,539.35772 C 1600.2285,532.74421 1611.503,528.54374 1623.6713,528.54374 C 1642.9208,528.54374 1654.1265,540.49204 1654.1265,558.71697 L 1654.1265,627.90445"
         style="fill:#010066;fill-opacity:1;fill-rule:nonzero;stroke:none"
         id="path48296" />
      <path
         d="M 1556.23,530.80551 L 1507.832,648.42553 C 1500.407,666.48551 1485.4887,679.74689 1465.1397,679.74689 C 1454.9652,679.74689 1449.5339,678.42007 1442.9345,676.90762 L 1447.1964,657.52774 C 1452.559,658.72394 1456.6152,659.23951 1460.2584,659.23951 C 1472.4267,659.23951 1478.8892,648.92053 1484.8017,634.7517 L 1487.6199,627.90445 L 1450.0152,530.80551 L 1482.4642,530.80551 L 1500.1319,578.9356 C 1502.2632,584.73791 1503.5007,590.69828 1504.4632,594.87813 C 1505.5632,590.66391 1507.6945,583.67233 1509.8257,578.08316 L 1528.0435,530.80551 L 1556.23,530.80551"
         style="fill:#010066;fill-opacity:1;fill-rule:nonzero;stroke:none"
         id="path48298" />
      <path
         d="M 1449.6027,596.87184 C 1449.6027,618.01167 1430.0787,629.6231 1406.9104,629.6231 C 1391.7859,629.6231 1379.6177,627.10007 1366.7619,621.94402 L 1375.0119,602.29602 C 1382.6427,605.37586 1393.6422,608.84077 1402.6484,608.84077 C 1409.6604,608.84077 1419.4224,607.98144 1419.4224,599.44299 C 1419.4224,595.44876 1416.948,593.39318 1412.2729,592.03886 C 1406.4979,590.33396 1397.6297,588.80088 1391.7859,587.19906 C 1379.4802,583.80296 1369.3057,577.34065 1369.3057,559.2876 C 1369.3057,539.26834 1386.3552,526.82503 1409.7292,526.82503 C 1425.1974,526.82503 1434.9594,528.85311 1443.622,531.38301 L 1435.9219,551.03102 C 1432.1407,549.28482 1421.4162,546.75492 1413.7167,546.75492 C 1405.3979,546.75492 1399.7609,549.92419 1399.7609,555.01837 C 1399.7609,557.5414 1401.3422,560.71755 1405.7417,562.14062 C 1410.4854,563.65308 1417.9792,565.02803 1424.2349,566.40298 C 1437.1594,569.22845 1449.6027,576.61195 1449.6027,596.87184"
         style="fill:#010066;fill-opacity:1;fill-rule:nonzero;stroke:none"
         id="path48300" />
      <path
         d="M 2117.0029,602.00039 L 2117.0029,584.05728 C 2103.0472,583.82358 2089.9164,585.23291 2089.9164,598.57679 C 2089.9164,606.84019 2096.929,609.41134 2102.2222,609.41134 C 2108.4785,609.41134 2113.291,606.26962 2117.0029,602.00039 z M 2146.2895,627.90445 L 2117.8279,627.90445 L 2117.8279,620.23219 C 2110.4722,626.77013 2100.8477,629.91872 2090.2602,629.91872 C 2072.18,629.91872 2059.8055,621.1672 2059.8055,602.85971 C 2059.8055,570.67215 2091.9102,565.66735 2117.0029,565.56422 L 2117.0029,562.97932 C 2117.0029,554.99775 2113.9785,549.31232 2099.679,549.31232 C 2089.9852,549.31232 2078.9857,554.11092 2071.7675,558.43515 L 2064.3424,540.49204 C 2077.1982,533.52791 2093.0789,528.54374 2108.1347,528.54374 C 2131.3024,528.54374 2146.2895,539.60522 2146.2895,559.00572 L 2146.2895,627.90445"
         style="fill:#010066;fill-opacity:1;fill-rule:nonzero;stroke:none"
         id="path48302" />
      <path
         d="M 1835.4133,566.40298 C 1835.9633,555.699 1830.6014,549.0305 1820.0831,549.0305 C 1809.9081,549.0305 1803.8586,556.50332 1802.1398,566.40298 L 1835.4133,566.40298 z M 1866.4874,575.80763 C 1866.4874,579.00435 1866.4186,582.33863 1866.2124,585.76911 L 1801.8648,585.76911 C 1802.1398,599.89674 1809.1518,608.27014 1829.7764,608.27014 C 1838.8508,608.27014 1849.8503,604.13154 1854.5254,600.85919 L 1862.4998,618.80224 C 1849.2316,626.02075 1834.9321,629.91872 1818.9144,629.91872 C 1788.7341,629.91872 1769.9658,610.47697 1769.9658,579.49936 C 1769.9658,548.01299 1794.5773,528.54374 1821.1826,528.54374 C 1854.3879,528.54374 1866.4874,547.90299 1866.4874,575.80763"
         style="fill:#010066;fill-opacity:1;fill-rule:nonzero;stroke:none"
         id="path48310" />
      <path
         d="M 1738.7548,643.86761 C 1738.7548,635.94103 1732.4298,633.03988 1725.9678,633.03988 L 1699.5001,633.03988 C 1695.4438,635.33603 1689.2563,640.4027 1689.2563,647.00245 C 1689.2563,655.52028 1700.737,661.23321 1714.2803,661.23321 C 1728.3735,661.23321 1738.7548,654.77096 1738.7548,643.86761 z M 1730.7798,560.42192 C 1730.7798,552.28909 1726.3116,545.61372 1716.274,545.61372 C 1707.1308,545.61372 1701.4933,553.36842 1701.4933,560.42192 C 1701.4933,568.57538 1706.5808,575.23013 1715.724,575.23013 C 1725.7616,575.23013 1730.7798,568.53413 1730.7798,560.42192 z M 1769.0033,639.88025 C 1769.0033,668.20422 1740.748,681.31435 1712.9058,681.4656 C 1688.3625,681.5756 1664.7823,674.52897 1664.7823,650.98293 C 1664.7823,639.97651 1674.4755,632.61362 1680.388,628.77065 C 1677.1568,626.9007 1674.1318,625.42268 1671.5886,622.51465 C 1668.9073,619.43475 1666.7073,614.93177 1666.7073,607.40394 C 1666.7073,597.93054 1675.0943,589.14464 1685.2693,583.49358 C 1679.6318,580.53056 1672.1386,575.77326 1672.1386,559.8513 C 1672.1386,539.15834 1691.8,528.24811 1717.4428,528.24811 C 1739.2361,528.24811 1760.1351,533.45916 1760.1351,559.00572 C 1760.1351,583.40421 1737.2423,592.30011 1714.0053,592.30011 C 1709.6746,592.30011 1705.8245,591.64016 1702.0433,590.89766 C 1699.5683,592.21761 1694.6188,595.48314 1694.6188,599.15424 C 1694.6188,606.61337 1704.7933,607.70644 1709.4683,607.70644 L 1733.3923,607.70644 C 1755.5288,607.70644 1769.0033,618.45855 1769.0033,639.88025"
         style="fill:#010066;fill-opacity:1;fill-rule:nonzero;stroke:none"
         id="path48312" />
    </g>
  </g>
</svg>
