<?xml version="1.0" encoding="UTF-8" standalone="no"?>
<svg
   xmlns:dc="http://purl.org/dc/elements/1.1/"
   xmlns:cc="http://creativecommons.org/ns#"
   xmlns:rdf="http://www.w3.org/1999/02/22-rdf-syntax-ns#"
   xmlns:svg="http://www.w3.org/2000/svg"
   xmlns="http://www.w3.org/2000/svg"
   xmlns:sodipodi="http://sodipodi.sourceforge.net/DTD/sodipodi-0.dtd"
   xmlns:inkscape="http://www.inkscape.org/namespaces/inkscape"
   width="200pt"
   height="57.719452pt"
   viewBox="0 0 200 57.719452"
   version="1.1"
   id="svg2"
   inkscape:version="0.91 r13725"
   sodipodi:docname="Uni GE logo.svg">
  <metadata
     id="metadata338">
    <rdf:RDF>
      <cc:Work
         rdf:about="">
        <dc:format>image/svg+xml</dc:format>
        <dc:type
           rdf:resource="http://purl.org/dc/dcmitype/StillImage" />
        <dc:title></dc:title>
      </cc:Work>
    </rdf:RDF>
  </metadata>
  <sodipodi:namedview
     pagecolor="#ffffff"
     bordercolor="#666666"
     borderopacity="1"
     objecttolerance="10"
     gridtolerance="10"
     guidetolerance="10"
     inkscape:pageopacity="0"
     inkscape:pageshadow="2"
     inkscape:window-width="1280"
     inkscape:window-height="738"
     id="namedview336"
     showgrid="false"
     inkscape:zoom="5.0746208"
     inkscape:cx="107.05002"
     inkscape:cy="6.3686967"
     inkscape:window-x="-8"
     inkscape:window-y="-8"
     inkscape:window-maximized="1"
     inkscape:current-layer="svg2"
     fit-margin-top="0"
     fit-margin-left="0"
     fit-margin-right="0"
     fit-margin-bottom="0" />
  <defs
     id="defs4">
    <clipPath
       id="clip8">
      <path
         d="m 468.42578,584.04297 99.19922,0 0,-35.30469 -99.19922,0 z"
         id="path143"
         inkscape:connector-curvature="0" />
    </clipPath>
  </defs>
  <g
     style="clip-rule:nonzero;fill:#d9005c;fill-opacity:1;stroke:none;stroke-opacity:1"
     id="g240"
     clip-path="url(#clip8)"
     transform="matrix(2.0542449,0,0,2.0542449,-962.26127,-1127.2508)">
    <path
       inkscape:connector-curvature="0"
       id="path242"
       d="m 474.58594,555.35156 0.60547,0.78125 0.44531,-0.34375 -0.98828,-1.27344 -0.34766,0.26954 c 0.13672,0.21484 -0.0586,0.47265 -0.30469,0.65625 l 0.17578,0.23046 0.41407,-0.32031"
       style="fill:#d9005c;fill-opacity:1;fill-rule:nonzero;stroke:none;stroke-opacity:1" />
    <path
       inkscape:connector-curvature="0"
       id="path244"
       d="m 476.19531,554.61719 c 0.0312,-0.125 0.11719,-0.19922 0.25,-0.26953 0.19531,-0.0977 0.35547,-0.0586 0.42969,0.082 0.0703,0.13672 -0.0234,0.30078 -0.20703,0.39453 -0.14063,0.0742 -0.33985,0.0937 -0.40235,-0.0195 l -0.47265,0.24218 c 0.20312,0.32813 0.60156,0.27735 1.02344,0.0625 0.44921,-0.23437 0.70312,-0.58593 0.52343,-0.9414 -0.15625,-0.29688 -0.49609,-0.33594 -0.89062,-0.13281 -0.14844,0.0781 -0.26563,0.17578 -0.32813,0.29687 l -0.004,0.004 -0.0625,-0.30078 0.85937,-0.4375 -0.15234,-0.29688 -1.22266,0.62891 0.22656,0.90625 0.42969,-0.21875"
       style="fill:#d9005c;fill-opacity:1;fill-rule:nonzero;stroke:none;stroke-opacity:1" />
    <path
       inkscape:connector-curvature="0"
       id="path246"
       d="m 486.4375,554.12109 c -0.14844,-0.0781 -0.29688,-0.10937 -0.42969,-0.0898 l -0.008,-0.004 0.20703,-0.22265 0.86328,0.43359 0.14844,-0.29687 -1.22656,-0.6211 -0.60157,0.71875 0.42969,0.21485 c 0.11719,-0.0469 0.23047,-0.0195 0.36328,0.0508 0.19532,0.0976 0.25782,0.25 0.1875,0.39062 -0.0703,0.14063 -0.2539,0.16016 -0.4414,0.0664 -0.14063,-0.0703 -0.27344,-0.22266 -0.21875,-0.33594 l -0.47657,-0.23828 c -0.14453,0.35547 0.12891,0.64453 0.55469,0.85937 0.44922,0.23047 0.88672,0.22657 1.06641,-0.1289 0.14844,-0.30078 -0.0195,-0.59766 -0.41797,-0.79688"
       style="fill:#d9005c;fill-opacity:1;fill-rule:nonzero;stroke:none;stroke-opacity:1" />
    <path
       inkscape:connector-curvature="0"
       id="path248"
       d="m 488.39062,554.73828 c -0.35546,-0.27734 -0.80078,-0.32422 -1.01562,-0.0508 -0.19141,0.25 -0.0977,0.61328 0.24219,0.87891 0.14843,0.11328 0.33984,0.19921 0.49218,0.16015 l 0.004,0.004 c -0.14062,0.16015 -0.33984,0.2539 -0.57031,0.0781 -0.0508,-0.0391 -0.0977,-0.0937 -0.125,-0.14453 -0.0274,-0.0508 -0.0352,-0.10937 -0.0156,-0.15625 l -0.39062,-0.30469 c -0.125,0.28516 0.0156,0.57032 0.33203,0.81641 0.54687,0.42188 1,0.26172 1.28125,-0.10547 0.26562,-0.33984 0.26953,-0.78906 -0.23438,-1.17578 m -0.0547,0.68359 c -0.0899,0.11719 -0.26953,0.125 -0.44922,-0.0117 -0.17188,-0.13282 -0.20313,-0.3086 -0.10938,-0.42579 0.082,-0.10937 0.26953,-0.11328 0.42578,0.0117 0.1836,0.13672 0.22266,0.3125 0.13282,0.42578"
       style="fill:#d9005c;fill-opacity:1;fill-rule:nonzero;stroke:none;stroke-opacity:1" />
    <path
       inkscape:connector-curvature="0"
       id="path250"
       d="m 470.57812,561.35156 c 0.28125,0.0937 0.48829,-0.17969 0.65625,-0.46484 0.16407,-0.28516 0.28907,-0.58594 0.41016,-0.54688 0.10156,0.0352 0.082,0.19532 0.043,0.3125 -0.0547,0.16797 -0.16016,0.33594 -0.30078,0.27735 l -0.1836,0.55468 c 0.35547,0.11329 0.64844,-0.26171 0.78516,-0.68359 0.13281,-0.39453 0.15234,-0.90625 -0.1875,-1.01953 -0.28906,-0.0937 -0.49609,0.1875 -0.66016,0.46875 -0.16406,0.28516 -0.28906,0.57812 -0.42968,0.53125 -0.11719,-0.0391 -0.10157,-0.22266 -0.0469,-0.39063 0.0781,-0.23437 0.1875,-0.36718 0.375,-0.3164 l 0.1836,-0.55469 c -0.40235,-0.12891 -0.70313,0.25 -0.86719,0.73438 -0.15235,0.46484 -0.17578,0.96484 0.22265,1.09765"
       style="fill:#d9005c;fill-opacity:1;fill-rule:nonzero;stroke:none;stroke-opacity:1" />
    <path
       inkscape:connector-curvature="0"
       id="path252"
       d="m 470.39453,564.13281 0.0469,-0.58203 c -0.1875,-0.0352 -0.29297,-0.19922 -0.27344,-0.47266 0.0312,-0.37109 0.28515,-0.49609 0.53125,-0.47656 0.24609,0.0195 0.47656,0.17969 0.44922,0.55469 -0.0195,0.24219 -0.1211,0.41016 -0.28907,0.42578 l -0.043,0.58203 c 0.39843,0.0156 0.66406,-0.48828 0.69921,-0.96875 0.0547,-0.67187 -0.29296,-1.13672 -0.77343,-1.17578 -0.47657,-0.0352 -0.89063,0.37109 -0.94141,1.04297 -0.043,0.56641 0.17188,1.00391 0.59375,1.07031"
       style="fill:#d9005c;fill-opacity:1;fill-rule:nonzero;stroke:none;stroke-opacity:1" />
    <path
       inkscape:connector-curvature="0"
       id="path254"
       d="m 471.66797,565.99609 -0.59375,0.10157 -0.12891,-0.75391 0.59375,-0.10156 -0.10156,-0.57422 -1.62891,0.28125 0.10157,0.57422 0.66796,-0.11719 0.13282,0.75391 -0.67188,0.11718 0.0977,0.57032 1.6289,-0.27735 z"
       style="fill:#d9005c;fill-opacity:1;fill-rule:nonzero;stroke:none;stroke-opacity:1" />
    <path
       inkscape:connector-curvature="0"
       id="path256"
       d="m 472.35547,567.96875 c -0.28906,-0.64063 -0.79688,-0.84766 -1.23828,-0.65234 -0.4336,0.19531 -0.6211,0.71484 -0.33203,1.35546 0.28515,0.64063 0.79687,0.84766 1.23437,0.65235 0.4375,-0.19531 0.62109,-0.71485 0.33594,-1.35547 m -0.57422,0.82422 c -0.22266,0.10156 -0.50781,0.0703 -0.66016,-0.27344 -0.15234,-0.33984 0.0117,-0.57422 0.23438,-0.67187 0.22656,-0.10157 0.50781,-0.0703 0.66015,0.27343 0.15625,0.33985 -0.008,0.57032 -0.23437,0.67188"
       style="fill:#d9005c;fill-opacity:1;fill-rule:nonzero;stroke:none;stroke-opacity:1" />
    <path
       inkscape:connector-curvature="0"
       id="path258"
       d="m 473.37891,569.79687 -0.35157,-0.46484 -1.3125,1 0.98047,1.29297 0.29297,-0.22656 -0.62891,-0.82813 z"
       style="fill:#d9005c;fill-opacity:1;fill-rule:nonzero;stroke:none;stroke-opacity:1" />
    <path
       inkscape:connector-curvature="0"
       id="path260"
       d="m 473,571.98047 0.45312,0.39062 0.29688,-0.13672 0.59375,0.50782 -0.0898,0.3164 0.46093,0.39453 0.44141,-1.79687 -0.44531,-0.38672 z m 1.44531,0.42969 -0.38281,-0.32813 0.56641,-0.27344 0.008,0.004 z"
       style="fill:#d9005c;fill-opacity:1;fill-rule:nonzero;stroke:none;stroke-opacity:1" />
    <path
       inkscape:connector-curvature="0"
       id="path262"
       d="m 479.3125,573.98047 c 0.23047,0.0508 0.39453,0.17187 0.38672,0.3125 l 0.5664,0.11719 c 0.0312,-0.41407 -0.41406,-0.69532 -0.86718,-0.78907 -0.66016,-0.13672 -1.16407,0.14844 -1.26172,0.61719 -0.0977,0.46875 0.2539,0.93359 0.91406,1.07031 0.20313,0.043 0.46875,0.0391 0.65234,-0.0859 l -0.004,0.18359 0.36719,0.0781 0.18359,-0.88671 -0.91797,-0.19141 -0.0625,0.3125 0.39453,0.082 c -0.0586,0.14063 -0.26953,0.19922 -0.55078,0.14063 -0.36719,-0.0742 -0.45703,-0.34375 -0.41016,-0.58594 0.0508,-0.23828 0.24219,-0.44922 0.60938,-0.375"
       style="fill:#d9005c;fill-opacity:1;fill-rule:nonzero;stroke:none;stroke-opacity:1" />
    <path
       inkscape:connector-curvature="0"
       id="path264"
       d="m 481.70703,575.14453 -0.0156,-0.31641 1.09375,-0.0547 -0.0195,-0.33203 -1.08984,0.0547 -0.0156,-0.28906 1.19531,-0.0625 -0.0156,-0.34375 -1.77734,0.0898 0.082,1.65235 1.80859,-0.0898 -0.0195,-0.37109 z"
       style="fill:#d9005c;fill-opacity:1;fill-rule:nonzero;stroke:none;stroke-opacity:1" />
    <path
       inkscape:connector-curvature="0"
       id="path266"
       d="m 484.77344,573.28906 0.30468,0.97266 -0.008,0.004 -1.04297,-0.74218 -0.5664,0.17578 0.48828,1.57812 0.52344,-0.16406 -0.30469,-0.98047 0.004,-0.004 1.04688,0.7539 0.57031,-0.17578 -0.49219,-1.57812 z"
       style="fill:#d9005c;fill-opacity:1;fill-rule:nonzero;stroke:none;stroke-opacity:1" />
    <path
       inkscape:connector-curvature="0"
       id="path268"
       d="m 487.07031,573.625 -0.16797,-0.26953 0.92969,-0.57422 -0.17187,-0.28125 -0.9336,0.57422 -0.15234,-0.2461 1.01953,-0.6289 -0.17969,-0.29688 -1.51172,0.9375 0.86719,1.40625 1.53906,-0.95312 -0.19531,-0.3125 z"
       style="fill:#d9005c;fill-opacity:1;fill-rule:nonzero;stroke:none;stroke-opacity:1" />
    <path
       inkscape:connector-curvature="0"
       id="path270"
       d="m 488.79687,570.60156 0.5625,1.17578 -0.004,0.008 -1.17969,-0.5586 -0.42578,0.4336 1.66797,0.66406 0.46875,-0.47656 -0.66406,-1.67579 z"
       style="fill:#d9005c;fill-opacity:1;fill-rule:nonzero;stroke:none;stroke-opacity:1" />
    <path
       inkscape:connector-curvature="0"
       id="path272"
       d="m 490.88281,569.96875 -0.26953,-0.16016 0.57031,-0.9375 -0.28515,-0.17187 -0.56641,0.93359 -0.25,-0.14844 0.62109,-1.02343 -0.29687,-0.17969 -0.92188,1.51953 1.41407,0.85938 0.9375,-1.54688 -0.31641,-0.19531 z"
       style="fill:#d9005c;fill-opacity:1;fill-rule:nonzero;stroke:none;stroke-opacity:1" />
    <path
       inkscape:connector-curvature="0"
       id="path274"
       d="m 491.07031,566.38672 0.97656,0.29297 -0.004,0.004 -1.19922,0.44922 -0.17188,0.57031 1.58204,0.47657 0.16015,-0.52344 -0.98828,-0.29688 0.004,-0.004 1.21093,-0.44531 0.17188,-0.57032 -1.58203,-0.47656 z"
       style="fill:#d9005c;fill-opacity:1;fill-rule:nonzero;stroke:none;stroke-opacity:1" />
    <path
       inkscape:connector-curvature="0"
       id="path276"
       d="m 492.53906,563.42969 c -0.29687,-0.0117 -0.42187,0.30859 -0.5039,0.625 -0.082,0.32031 -0.1211,0.64453 -0.2461,0.63672 -0.10937,-0.004 -0.13281,-0.16016 -0.1289,-0.28516 0.008,-0.17969 0.0625,-0.36719 0.21484,-0.35156 l 0.0273,-0.57813 c -0.375,-0.0156 -0.55468,0.42578 -0.57422,0.86719 -0.0156,0.41797 0.10157,0.91406 0.46094,0.92969 0.30469,0.0156 0.42578,-0.31641 0.50781,-0.62891 0.082,-0.32031 0.1211,-0.63672 0.26954,-0.62891 0.12109,0.004 0.16015,0.1875 0.15234,0.35938 -0.0117,0.25 -0.082,0.40625 -0.27734,0.41016 l -0.0234,0.58203 c 0.42187,0.0156 0.60937,-0.42969 0.6289,-0.94141 0.0234,-0.48828 -0.0898,-0.97656 -0.50781,-0.99609"
       style="fill:#d9005c;fill-opacity:1;fill-rule:nonzero;stroke:none;stroke-opacity:1" />
    <path
       inkscape:connector-curvature="0"
       id="path278"
       d="m 491.3125,562.75781 1.63672,-0.23828 -0.082,-0.57422 -1.63672,0.23828 z"
       style="fill:#d9005c;fill-opacity:1;fill-rule:nonzero;stroke:none;stroke-opacity:1" />
    <path
       inkscape:connector-curvature="0"
       id="path280"
       d="m 491.57422,561.375 c 0.28515,-0.0977 0.27734,-0.44922 0.23828,-0.77344 -0.0391,-0.32422 -0.11719,-0.63672 0.0195,-0.68359 0.11719,-0.0391 0.21875,0.11719 0.27734,0.28125 0.0781,0.23437 0.0742,0.40625 -0.10937,0.48437 l 0.19141,0.54688 c 0.39843,-0.14063 0.41015,-0.6211 0.24218,-1.10547 -0.16015,-0.46484 -0.4414,-0.875 -0.83593,-0.73828 -0.28516,0.0937 -0.28516,0.4375 -0.24219,0.76562 0.043,0.32813 0.125,0.64063 0.004,0.67969 -0.10546,0.0352 -0.18359,-0.10156 -0.22656,-0.21875 -0.0586,-0.16797 -0.0703,-0.36328 0.0742,-0.40234 l -0.19141,-0.55078 c -0.35156,0.125 -0.35546,0.59765 -0.21093,1.01562 0.13672,0.39844 0.42578,0.81641 0.76953,0.69922"
       style="fill:#d9005c;fill-opacity:1;fill-rule:nonzero;stroke:none;stroke-opacity:1" />
    <path
       inkscape:connector-curvature="0"
       id="path282"
       d="m 476.19922,573.42969 c -0.13281,0.17578 -0.0977,0.42187 0.0781,0.55468 0.17188,0.12891 0.41797,0.0937 0.55078,-0.0781 0.12891,-0.17578 0.0937,-0.42188 -0.0781,-0.55078 -0.17578,-0.13281 -0.42188,-0.0977 -0.55078,0.0742"
       style="fill:#d9005c;fill-opacity:1;fill-rule:nonzero;stroke:none;stroke-opacity:1" />
    <path
       inkscape:connector-curvature="0"
       id="path284"
       d="m 472.97266,557.6875 c 0.1289,-0.17578 0.0898,-0.42188 -0.0859,-0.55078 -0.17578,-0.12891 -0.42188,-0.0898 -0.55078,0.0859 -0.12891,0.17578 -0.0899,0.42187 0.0859,0.55078 0.17579,0.1289 0.42188,0.0898 0.55079,-0.0859"
       style="fill:#d9005c;fill-opacity:1;fill-rule:nonzero;stroke:none;stroke-opacity:1" />
    <path
       inkscape:connector-curvature="0"
       id="path286"
       d="m 489.73828,557.22266 c -0.12891,0.17578 -0.0898,0.42578 0.0859,0.55078 0.17578,0.1289 0.42578,0.0898 0.55078,-0.0859 0.12891,-0.17578 0.0898,-0.42188 -0.0859,-0.55078 -0.17578,-0.12891 -0.42187,-0.0898 -0.55078,0.0859"
       style="fill:#d9005c;fill-opacity:1;fill-rule:nonzero;stroke:none;stroke-opacity:1" />
    <path
       inkscape:connector-curvature="0"
       id="path288"
       d="m 482.35937,552.92578 -0.3164,0.5 0.78125,0 0,-0.24219 -0.3086,0 0.17188,-0.2539 -0.17188,-0.26563 0.30469,0 0,-0.23828 -0.77734,0 z"
       style="fill:#d9005c;fill-opacity:1;fill-rule:nonzero;stroke:none;stroke-opacity:1" />
    <path
       inkscape:connector-curvature="0"
       id="path290"
       d="m 480.66797,553.18359 -0.19141,0.004 0,-0.52344 0.17578,0 0,-0.23828 -0.64062,0 0,0.23828 0.17578,0 0,0.52344 -0.1875,-0.004 0,0.24219 0.66797,0 z"
       style="fill:#d9005c;fill-opacity:1;fill-rule:nonzero;stroke:none;stroke-opacity:1" />
    <path
       inkscape:connector-curvature="0"
       id="path292"
       d="m 481.58203,552.77734 -0.41016,0 0.004,-0.35547 -0.30078,0 0,1.00391 0.30078,0 -0.004,-0.39844 0.41016,0 0,0.39844 0.29688,0 0,-1.00391 -0.29688,0 z"
       style="fill:#d9005c;fill-opacity:1;fill-rule:nonzero;stroke:none;stroke-opacity:1" />
    <path
       inkscape:connector-curvature="0"
       id="path294"
       d="m 481.25,551.82812 c 0,-0.0781 0.0547,-0.125 0.13672,-0.125 0.0703,0 0.12109,0.0547 0.12109,0.125 l 0.004,0.35157 0.55859,0 0,-0.29688 -0.34375,0 0,-0.0742 c 0,-0.21484 -0.10156,-0.38672 -0.34375,-0.38672 -0.1875,0 -0.3164,0.10157 -0.33984,0.28125 -0.004,0.0391 -0.004,0.082 -0.004,0.1211 l 0,0.0586 -0.33984,0 -0.004,0.29688 0.55469,0 0,-0.35157"
       style="fill:#d9005c;fill-opacity:1;fill-rule:nonzero;stroke:none;stroke-opacity:1" />
    <path
       inkscape:connector-curvature="0"
       id="path296"
       d="m 481.38281,553.66016 c -0.0976,0 -0.17578,0.082 -0.17578,0.17968 0,0.10157 0.0781,0.17969 0.17578,0.17969 0.10156,0 0.17969,-0.0781 0.17969,-0.17969 0,-0.0976 -0.0781,-0.17968 -0.17969,-0.17968"
       style="fill:#d9005c;fill-opacity:1;fill-rule:nonzero;stroke:none;stroke-opacity:1" />
    <path
       inkscape:connector-curvature="0"
       id="path298"
       d="m 484.15625,551.27344 0.26172,-0.32422 -1.53906,0.22656 0.24218,-1.52344 -1.21484,0.98438 -0.55859,-1.46094 -0.55469,1.46094 -1.21485,-0.98828 0.2461,1.54687 -1.54297,-0.25 0.26953,0.33203 c -5.78516,1.28907 -10.125,6.45703 -10.125,12.625 0,7.13282 5.80078,12.9375 12.93359,12.9375 7.13282,0 12.9375,-5.80468 12.9375,-12.9375 0,-6.17187 -4.34765,-11.34765 -10.14062,-12.6289 m -2.77734,-0.31641 c 0.97656,0 1.77343,0.79688 1.77343,1.77344 0,0.97656 -0.79687,1.77344 -1.77343,1.77344 -0.98047,0 -1.77735,-0.79688 -1.77735,-1.77344 0,-0.97656 0.79688,-1.77344 1.77735,-1.77344 m 1.63281,4.01172 c 1.92969,0.35937 3.64844,1.32422 4.94531,2.69531 l -0.83203,0 0,0.61719 -0.75391,0 0,-0.61719 -1.03125,0 0,0.85547 -0.60937,0 c 0,0 0.008,-1.30469 0.008,-1.31641 0,-0.29296 -0.23828,-0.53515 -0.53516,-0.53515 -0.29296,0 -0.53125,0.24219 -0.53125,0.53515 0,0.0117 0.004,6.90625 0.004,6.90625 l -1.05469,0.97266 0,0.51563 c -0.46484,0.0664 -0.85156,0.36328 -1.04687,0.76953 l 0,-10.52344 0.35547,-1.02344 1.1914,0.96875 z m 0.49219,14.90234 c -0.26172,0.10157 -0.44922,0.35547 -0.44922,0.65625 0,0.39063 0.3164,0.70703 0.70312,0.70703 l 0.89063,0 c 0.39062,0 0.70703,-0.3164 0.70703,-0.70703 0,-0.30078 -0.1875,-0.55468 -0.44922,-0.65625 1.20312,-0.41797 2.06641,-1.5625 2.06641,-2.91015 0,-0.69532 -0.51563,-1.26563 -1.1836,-1.36328 l 0,-0.51563 -1.05859,-0.97266 0,-2.02343 0.60937,0 0,0.85547 1.03125,0 0,-0.64844 0.75391,0 0,0.64844 1.03125,0 0,-2.28907 -1.03125,0 0,0.55469 -0.75391,0 0,-0.55469 -0.85547,0 0,-0.70312 0.85547,0 0,-0.55078 0.75391,0 0,0.55078 1.03125,0 0,-2.07422 c 1.42578,1.60547 2.29297,3.71875 2.29297,6.02734 0,4.94141 -3.96094,8.96875 -8.875,9.08203 l 0,-5.10546 c 0.29297,0.92968 1.01172,1.67187 1.92969,1.99218 m -1.35938,-2.91015 c 0,-0.32813 0.24219,-0.60157 0.55469,-0.66016 0.0273,0.39453 0.35156,0.70703 0.75,0.70703 l 1.51172,0 c 0.39843,0 0.72265,-0.3125 0.75,-0.70703 0.3125,0.0586 0.55078,0.33203 0.55078,0.66016 0,1.27343 -0.875,2.04297 -2.0586,2.33593 -1.17968,-0.29296 -2.05859,-1.0625 -2.05859,-2.33593 m -6.86328,-6.73828 c -0.0508,0.0664 -0.082,0.14062 -0.082,0.22656 0,0.0625 0.0156,0.11719 0.0391,0.16797 l -2.35156,0.004 c 0.10547,-0.26562 0.21875,-0.52734 0.34765,-0.78125 z m -1.48438,-1.35157 c 0.26563,-0.39843 0.5625,-0.77343 0.88672,-1.125 0.16407,0.57422 0.51953,1.09375 0.99219,1.46485 -0.0664,0.0391 -0.12109,0.0937 -0.15234,0.17187 -0.0156,0.0469 -0.0234,0.0977 -0.0195,0.14453 z m -0.84375,3.01563 c 0,0 1.1211,-0.21094 2.34766,-0.4375 -0.0117,0.0625 -0.0117,0.1289 0.0156,0.1914 0.0156,0.043 0.0391,0.0781 0.0703,0.10938 l -2.3125,0.90234 c -0.32422,0.19532 -0.41797,0.59375 -0.23438,0.89453 0.0899,0.14454 0.23438,0.2461 0.40235,0.28907 0.16797,0.0391 0.33984,0.0117 0.48437,-0.082 L 475.75781,562.5 c 0.0156,0.0625 0.0391,0.12109 0.0859,0.17187 0.0312,0.0352 0.0664,0.0586 0.10547,0.0781 l -1.83203,1.67578 c -0.23047,0.30078 -0.17578,0.70313 0.10547,0.91797 0.28515,0.21484 0.6875,0.15625 0.90234,-0.125 l 1.45703,-1.92969 c 0.0352,0.0547 0.0781,0.10156 0.13672,0.13281 0.0312,0.0156 0.0664,0.0195 0.10156,0.0273 0.008,0.004 0.0117,0.008 0.0195,0.0156 l -1.01562,2.04688 c -0.10547,0.35156 0.0898,0.69922 0.41797,0.79297 0.33203,0.0937 0.67578,-0.0977 0.77343,-0.42969 l 0.58594,-2.05078 c 0.25,0.0781 0.51953,0.11719 0.79297,0.11719 0.22656,0 0.375,-0.0156 0.58594,-0.0703 -0.004,0.3711 -0.004,0.72266 -0.004,0.75782 -0.0508,0.0508 -1.86328,2.02343 -1.86328,2.02343 -0.32031,0.26172 -0.4375,0.27735 -0.64453,0.0703 l -0.0586,-0.0625 -0.57032,0.44531 0.0781,0.0781 c 0.21484,0.21094 0.41406,0.35938 0.6875,0.38672 -0.39453,0.20703 -0.73047,0.38281 -0.78906,0.41406 -0.0625,-0.0625 -0.35547,-0.36718 -0.51172,-0.52734 -0.0234,-0.40234 -0.35547,-0.72656 -0.76563,-0.72656 -0.42187,0 -0.76953,0.34375 -0.76953,0.76953 l 0,0.0391 0.29688,0.29688 0,-0.23438 c 0,-0.0508 0.0195,-0.10156 0.0547,-0.13672 0.0781,-0.0742 0.19922,-0.0742 0.27344,0 0,0 0.23047,0.2461 0.37891,0.41016 l 0,0.004 0.0625,0.0625 c 0.0391,0.0469 0.0703,0.0781 0.0703,0.0781 l 0.004,-0.004 0.16796,0.17579 -0.21875,0 c -0.14843,-0.1211 -0.32812,-0.1836 -0.51953,-0.17579 -0.20703,0.008 -0.39453,0.0937 -0.53515,0.2461 -0.10157,0.10937 -0.16797,0.24219 -0.19141,0.38672 -0.85156,-1.38282 -1.33984,-3.00782 -1.33984,-4.7461 0,-0.73047 0.0898,-1.4375 0.25,-2.11718 0.11328,0.0976 0.26172,0.13281 0.42968,0.10156 M 474,569.05469 c 0,-0.0547 0.0195,-0.11719 0.0625,-0.16016 0.0469,-0.0508 0.10547,-0.0781 0.17187,-0.082 l 0.55469,0.004 c -0.27734,0.0625 -0.51562,0.24218 -0.64844,0.5039 -0.0664,-0.0976 -0.13281,-0.21094 -0.14062,-0.25781 z m 0.70312,0.80859 c 0.0117,-0.0508 0.043,-0.0937 0.0859,-0.12109 l 1.16016,-0.65625 0.32812,0.33593 -0.008,0.004 0.082,0.0703 0.0586,0.0625 0.004,-0.004 0.41406,0.38281 c 0.0742,0.0742 0.0742,0.19531 -0.004,0.26953 -0.0352,0.0391 -0.0859,0.0586 -0.13672,0.0586 l -0.23438,0 0.29688,0.29688 0.0391,0 c 0.20703,0 0.39844,-0.082 0.54297,-0.22656 0.14844,-0.14453 0.22656,-0.33985 0.22656,-0.54688 0,-0.40625 -0.32031,-0.73828 -0.72265,-0.76172 -0.0937,-0.0937 -0.22266,-0.22265 -0.28516,-0.28515 0.18359,-0.11719 3.39844,-2.16016 3.69922,-2.34766 -0.10156,1.125 -1.07031,2.44531 -1.98828,3.23438 -0.41797,0.42187 -0.57813,0.88671 -0.57813,1.29296 0,0.35547 0.125,0.66797 0.3086,0.84766 0.16015,0.16406 0.40625,0.21094 0.60937,0.12109 l 0.12891,-0.0586 -0.0977,-0.0977 c -0.16406,-0.16406 -0.21875,-0.44531 -0.21875,-0.65625 0,-0.42187 0.10547,-0.63671 0.3125,-0.85937 0.043,0.043 0.13281,0.13281 0.26172,0.26172 -0.0859,0.23437 -0.12891,0.46875 -0.12891,0.69531 0,0.45313 0.16016,0.86328 0.42579,1.12891 0.0547,0.0547 0.64062,0.53906 0.88671,0.45703 l 0.17579,-0.0586 -0.14844,-0.10937 c -0.0859,-0.0664 -0.36328,-0.38672 -0.45703,-0.58594 -0.0781,-0.15625 -0.1211,-0.34375 -0.1211,-0.54297 0,-0.32422 0.12891,-0.69531 0.42188,-0.98828 0.0156,-0.0234 0.65625,-1.60547 0.98437,-2.37109 0,0.0195 0,0.15234 0,0.15234 0.004,0.17969 0.004,0.35547 0.004,0.53125 0,0.92188 -0.0547,1.73828 -0.46094,2.14453 -0.25,0.25391 -0.71875,0.38672 -0.71875,0.38672 l 0.1211,0.14063 c 0.0117,0.0156 0.20703,0.3125 0.51953,0.32422 0.0781,0.004 0.13672,-0.0469 0.20312,-0.0781 0.0156,0.72266 0.14844,1.00391 0.39453,1.27734 -2.42187,-0.0742 -4.60937,-1.09375 -6.19922,-2.70703 l -0.16406,-0.26562 c -0.0195,-0.0312 -0.0273,-0.0664 -0.0273,-0.10547 0,-0.0117 0,-0.0273 0.004,-0.043 m 4.875,-12.91016 0.21485,-0.37109 -0.90235,0 0.10547,-0.38672 c 0,-0.18359 -0.15234,-0.33594 -0.33593,-0.33594 -0.0469,0 -0.0899,0.008 -0.12891,0.0273 0.008,-0.0352 0.0117,-0.0664 0.0117,-0.0937 0,-0.1211 -0.0977,-0.22266 -0.22266,-0.22266 -0.12109,0 -0.22265,0.10156 -0.22265,0.22266 0,0.0273 0.004,0.0586 0.0156,0.0937 -0.0391,-0.0195 -0.082,-0.0273 -0.12891,-0.0273 -0.1875,0 -0.33984,0.15235 -0.33984,0.33594 l 0.10938,0.38672 -0.24219,0 c -0.16016,0 -0.29688,0.11719 -0.32813,0.27344 -0.0508,-0.0156 -0.10156,-0.0234 -0.15625,-0.0234 -0.30859,0 -0.55468,0.24609 -0.55468,0.55469 0,0.0937 0.0234,0.18359 0.0664,0.26562 0.0937,-0.17578 0.27735,-0.29297 0.48828,-0.29297 0.1875,0 0.35547,0.0937 0.45313,0.23829 0.0156,0.0195 0.0234,0.0351 0.0351,0.0547 0.0274,0.0508 0.043,0.11328 0.0547,0.17188 l -1.12109,0 c -0.3086,0 -0.55469,-0.2461 -0.55469,-0.55469 l 0,0.35938 c 0,0.30468 0.24609,0.55468 0.55469,0.55468 l 1.0625,0 c -0.0937,0.16797 -0.27344,0.28516 -0.48438,0.28516 -0.0117,0 -0.0234,0 -0.0312,-0.004 0.0977,0.14844 0.26563,0.24219 0.45703,0.24219 0.23438,0 0.4375,-0.14844 0.51563,-0.35937 l 1.50391,0 c 0.30468,0 0.55468,0.25 0.55468,0.55468 0,0.14453 0,0.34375 -0.14062,0.4961 l -0.14063,0.20703 -0.94531,1.46094 c -0.17187,0.2539 -0.51562,0.32031 -0.76953,0.14843 -0.25391,-0.17578 -0.32031,-0.53125 -0.14844,-0.78125 0.21875,-0.125 0.30469,-0.3789 0.26563,-0.64062 -0.0508,-0.32813 -0.34766,-0.55078 -0.67578,-0.51953 l -0.1836,-0.004 c -1.1875,0 -2.07422,-0.80078 -2.19531,-1.9375 1.25,-1.19531 2.84375,-2.03906 4.61328,-2.36328 l -0.12891,0.82031 1.20313,-0.98047 0.40625,1.04688 0,1.62109 z m 1.78125,19.11329 c -6.70703,0 -12.16406,-5.45704 -12.16406,-12.16407 0,-5.93359 4.27344,-10.88672 9.90235,-11.94922 l 0.16796,0.20704 -1.46093,0.55859 1.46093,0.55859 -0.98437,1.21485 1.54297,-0.2461 -0.0508,0.31641 c -4.47266,0.75781 -7.88672,4.65625 -7.88672,9.33984 0,5.22266 4.25,9.47266 9.47265,9.47266 5.22657,0 9.47657,-4.25 9.47657,-9.47266 0,-4.67968 -3.41407,-8.57812 -7.87891,-9.33593 l -0.043,-0.31641 1.50391,0.24219 -0.94531,-1.22657 1.42187,-0.54296 -1.4375,-0.58985 0.14844,-0.18359 c 5.63672,1.05859 9.91797,6.01172 9.91797,11.95312 0,6.70703 -5.45703,12.16407 -12.16407,12.16407"
       style="fill:#d9005c;fill-opacity:1;fill-rule:nonzero;stroke:none;stroke-opacity:1" />
    <path
       inkscape:connector-curvature="0"
       id="path300"
       d="m 502.37109,561.38672 c -2.80468,0 -3.43359,-1.60547 -3.43359,-3.39453 l 0,-6.10938 1.70703,0 0,6 c 0,1.17578 0.37109,2.00781 1.84375,2.00781 1.31641,0 1.86719,-0.58203 1.86719,-2.17578 l 0,-5.83203 1.69922,0 0,5.72266 c 0,2.54687 -1.34375,3.78125 -3.6836,3.78125"
       style="fill:#d9005c;fill-opacity:1;fill-rule:nonzero;stroke:none;stroke-opacity:1" />
    <path
       inkscape:connector-curvature="0"
       id="path302"
       d="m 512.93359,561.23437 c 0,0 -3.35156,-6.12109 -3.61718,-6.73046 0.0547,0.80078 0.082,2.26953 0.082,3.39062 l 0,3.33984 -1.66016,0 0,-9.34765 2.17188,0 c 0,0 3.28906,5.95312 3.61718,6.66015 -0.0664,-0.9414 -0.0898,-2.60546 -0.0898,-3.7539 l 0,-2.90625 1.65625,0 0,9.34765 -2.16016,0"
       style="fill:#d9005c;fill-opacity:1;fill-rule:nonzero;stroke:none;stroke-opacity:1" />
    <path
       inkscape:connector-curvature="0"
       id="path304"
       d="m 517.10547,551.88672 1.71094,0 0,9.34765 -1.71094,0 z"
       style="fill:#d9005c;fill-opacity:1;fill-rule:nonzero;stroke:none;stroke-opacity:1" />
    <path
       inkscape:connector-curvature="0"
       id="path306"
       d="m 524.97266,561.23437 -1.97266,0 -3.09375,-9.34765 1.87109,0 1.72266,5.46875 c 0.17187,0.52734 0.36719,1.14844 0.52734,1.82812 l 0.0234,0 c 0.13281,-0.63672 0.27734,-1.14843 0.52734,-1.9375 l 1.75,-5.35937 1.75,0 -3.10546,9.34765"
       style="fill:#d9005c;fill-opacity:1;fill-rule:nonzero;stroke:none;stroke-opacity:1" />
    <path
       inkscape:connector-curvature="0"
       id="path308"
       d="m 529.24609,561.23437 0,-9.34765 4.87891,0 0,1.50781 -3.15234,0 0,2.30078 2.99609,0 0,1.46485 -2.99609,0 0,2.53515 3.15234,0 0,1.53906 z"
       style="fill:#d9005c;fill-opacity:1;fill-rule:nonzero;stroke:none;stroke-opacity:1" />
    <path
       inkscape:connector-curvature="0"
       id="path310"
       d="m 540.22656,561.23437 -2.47265,-3.86328 -0.0664,0 0,3.86328 -1.71094,0 0,-9.34765 c 0.69922,-0.043 1.52735,-0.0586 2.55469,-0.0586 1.96094,0 3.22266,0.72266 3.22266,2.63282 0,1.38672 -0.91797,2.38281 -2.26172,2.60547 0.25,0.34375 0.5,0.70312 0.72265,1.02343 l 2.13282,3.14453 z m -1.86719,-7.9375 c -0.25,0 -0.5,0.0156 -0.67187,0.043 l 0,2.69922 c 0.12109,0.0156 0.35547,0.0274 0.62109,0.0274 1.02344,0 1.65625,-0.55079 1.65625,-1.42579 0,-0.89843 -0.52734,-1.34375 -1.60547,-1.34375"
       style="fill:#d9005c;fill-opacity:1;fill-rule:nonzero;stroke:none;stroke-opacity:1" />
    <path
       inkscape:connector-curvature="0"
       id="path312"
       d="m 545.23828,561.38672 c -0.62891,0 -1.26172,-0.0703 -1.81641,-0.22266 l 0.10547,-1.67578 c 0.5,0.17969 1.21094,0.33203 1.85547,0.33203 0.86719,0 1.53906,-0.37109 1.53906,-1.23047 0,-1.78906 -3.72265,-0.96875 -3.72265,-4.04687 0,-1.66016 1.25,-2.8125 3.38281,-2.8125 0.5,0 1.07813,0.0703 1.60547,0.16797 l -0.0937,1.57812 c -0.5,-0.15234 -1.05078,-0.25 -1.59375,-0.25 -0.98438,0 -1.48438,0.47266 -1.48438,1.13672 0,1.67578 3.73438,1.05469 3.73438,3.97656 0,1.75782 -1.32813,3.04688 -3.51172,3.04688"
       style="fill:#d9005c;fill-opacity:1;fill-rule:nonzero;stroke:none;stroke-opacity:1" />
    <path
       inkscape:connector-curvature="0"
       id="path314"
       d="m 550.13281,551.88672 1.71094,0 0,9.34765 -1.71094,0 z"
       style="fill:#d9005c;fill-opacity:1;fill-rule:nonzero;stroke:none;stroke-opacity:1" />
    <path
       inkscape:connector-curvature="0"
       id="path316"
       d="m 557.02734,553.42187 0,7.8125 -1.71093,0 0,-7.8125 -2.30079,0 0,-1.53515 6.31641,0 0,1.53515 z"
       style="fill:#d9005c;fill-opacity:1;fill-rule:nonzero;stroke:none;stroke-opacity:1" />
    <path
       inkscape:connector-curvature="0"
       id="path318"
       d="m 560.68359,561.23437 0,-9.34765 5.08203,0 0,1.50781 -3.28125,0 0,2.30078 3.11329,0 0,1.46485 -3.11329,0 0,2.53515 3.28125,0 0,1.53906 z m 1.89453,-9.96093 -0.60937,-1.00782 2.42578,-1.52343 0.73438,1.21875 z"
       style="fill:#d9005c;fill-opacity:1;fill-rule:nonzero;stroke:none;stroke-opacity:1" />
    <path
       inkscape:connector-curvature="0"
       id="path320"
       d="m 501.58984,576.20703 c -0.97265,0 -1.8164,-0.043 -2.60547,-0.0703 l 0,-9.32031 c 0.73438,-0.0312 1.8711,-0.0703 3.01954,-0.0703 2.89453,0 4.73437,1.28907 4.73437,4.57032 0,3.21484 -2.10156,4.89062 -5.14844,4.89062 m 0.28907,-7.95312 c -0.41407,0 -0.80469,0.0156 -1.09375,0.043 l 0,6.30079 c 0.25,0.043 0.62109,0.0703 0.98437,0.0703 1.75781,0 3.03125,-0.9961 3.03125,-3.21485 0,-2.00781 -0.78906,-3.19921 -2.92187,-3.19921"
       style="fill:#d9005c;fill-opacity:1;fill-rule:nonzero;stroke:none;stroke-opacity:1" />
    <path
       inkscape:connector-curvature="0"
       id="path322"
       d="m 507.96094,576.14844 0,-9.34766 5.08203,0 0,1.51172 -3.28125,0 0,2.29687 3.11328,0 0,1.46875 -3.11328,0 0,2.53516 3.28125,0 0,1.53516 z"
       style="fill:#d9005c;fill-opacity:1;fill-rule:nonzero;stroke:none;stroke-opacity:1" />
    <path
       inkscape:connector-curvature="0"
       id="path324"
       d="m 525.9375,568.73828 c -0.75,-0.28906 -1.60547,-0.46875 -2.48047,-0.46875 -1.83984,0 -3.17187,1.16406 -3.17187,3.25391 0,1.98047 1.08203,3.14453 2.98046,3.14453 0.44141,0 0.82813,-0.0547 1.19141,-0.16406 l 0,-3.25782 1.80078,0 0,4.46094 c -0.92969,0.375 -2.07812,0.58203 -3.20312,0.58203 -2.96094,0 -4.72266,-1.74609 -4.72266,-4.59765 0,-2.9375 1.99609,-5.03125 5.23828,-5.03125 0.92578,0 1.83985,0.16796 2.64453,0.40234 l -0.27734,1.67578"
       style="fill:#d9005c;fill-opacity:1;fill-rule:nonzero;stroke:none;stroke-opacity:1" />
    <path
       inkscape:connector-curvature="0"
       id="path326"
       d="m 528.16797,576.14844 0,-9.34766 5.08203,0 0,1.51172 -3.28125,0 0,2.29687 3.11719,0 0,1.46875 -3.11719,0 0,2.53516 3.28125,0 0,1.53516 z"
       style="fill:#d9005c;fill-opacity:1;fill-rule:nonzero;stroke:none;stroke-opacity:1" />
    <path
       inkscape:connector-curvature="0"
       id="path328"
       d="m 540.58594,576.14844 c 0,0 -3.52735,-6.1211 -3.80469,-6.73047 0.0547,0.80469 0.0859,2.27344 0.0859,3.39453 l 0,3.33594 -1.7461,0 0,-9.34766 2.28907,0 c 0,0 3.45703,5.95703 3.80468,6.66406 -0.0703,-0.94531 -0.0976,-2.60547 -0.0976,-3.7539 l 0,-2.91016 1.74609,0 0,9.34766 -2.27734,0"
       style="fill:#d9005c;fill-opacity:1;fill-rule:nonzero;stroke:none;stroke-opacity:1" />
    <path
       inkscape:connector-curvature="0"
       id="path330"
       d="m 544.73437,576.14844 0,-9.34766 5.08204,0 0,1.51172 -3.28125,0 0,2.29687 3.11328,0 0,1.46875 -3.11328,0 0,2.53516 3.28125,0 0,1.53516 z m 3.08594,-9.94141 -2.54687,-1.31641 0.76172,-1.23437 2.41015,1.52344 z"
       style="fill:#d9005c;fill-opacity:1;fill-rule:nonzero;stroke:none;stroke-opacity:1" />
    <path
       inkscape:connector-curvature="0"
       id="path332"
       d="m 556.25781,576.14844 -2.07812,0 -3.25782,-9.34766 1.96875,0 1.8125,5.47266 c 0.17969,0.52343 0.39063,1.14843 0.55469,1.82812 l 0.0274,0 c 0.14062,-0.63672 0.29296,-1.15234 0.55468,-1.9414 l 1.84375,-5.35938 1.84375,0 -3.26953,9.34766"
       style="fill:#d9005c;fill-opacity:1;fill-rule:nonzero;stroke:none;stroke-opacity:1" />
    <path
       inkscape:connector-curvature="0"
       id="path334"
       d="m 560.70312,576.14844 0,-9.34766 5.08204,0 0,1.51172 -3.28125,0 0,2.29687 3.11718,0 0,1.46875 -3.11718,0 0,2.53516 3.28125,0 0,1.53516 z"
       style="fill:#d9005c;fill-opacity:1;fill-rule:nonzero;stroke:none;stroke-opacity:1" />
  </g>
</svg>
