<?xml version="1.0" encoding="UTF-8" standalone="no"?>
<!-- Created with Inkscape (http://www.inkscape.org/) -->
<svg
   xmlns:svg="http://www.w3.org/2000/svg"
   xmlns="http://www.w3.org/2000/svg"
   version="1.0"
   width="240"
   height="90"
   viewBox="0 0 181 64"
   id="svg2">
  <defs
     id="defs113" />
  <g
     transform="matrix(0.9749851,0,0,0.9749851,2.7030081,0.3289637)"
     id="g2490">
    <g
       transform="translate(10.3828,0.436523)"
       id="g4"
       style="fill:#008ac8;fill-rule:evenodd;stroke:none;stroke-width:1;stroke-linecap:butt;stroke-linejoin:miter;stroke-dasharray:none">
      <path
         d="M 135.655,34.2696 C 134.836,34.1309 128.209,33.4785 123.965,33.7041 C 121.602,33.8301 111.586,34.9483 107.254,35.8037 C 103.457,36.5547 98.1452,37.7344 92.3402,37.8164 C 85.1553,37.916 81.7647,36.3672 79.8701,35.5879 C 77.9776,34.8057 76.4463,33.3975 75.8213,32.6817 C 75.2568,32.0371 75.2217,30.96 75.2217,30.96 C 75.2217,30.96 81.4522,24.3047 84.4424,18.4727 C 87.001,13.4893 87.7588,9.83208 87.9834,8.08399 C 88.21,6.33692 87.7647,4.89453 86.8584,4.20411 C 85.9483,3.51465 84.542,3.33594 83.2276,4.06543 C 81.4111,5.06934 79.751,7.08106 78.4229,8.95411 C 77.0986,10.8291 75.2568,13.542 73.917,18.1377 C 72.4541,23.1602 72.2178,25.2969 72.1768,26.4492 C 72.1377,27.6016 72.2764,29.6055 72.2764,29.6055 C 72.2764,29.6055 70.7959,31.6055 69.1494,33.1944 C 67.501,34.7813 65.6611,36.2188 63.417,35.8438 C 61.6895,35.5518 61.5254,33.5557 61.5039,32.5098 C 61.4883,31.4668 61.9727,30.1133 62.1211,28.9658 C 62.2754,27.8203 62.3711,28.1504 61.8926,27.6973 C 61.4141,27.2403 60.752,27.4365 59.8145,27.459 C 58.8828,27.4805 59.084,28.0362 58.5586,28.9512 C 58.0313,29.8653 56.7656,32.5215 55.2363,33.8955 C 53.707,35.2676 53.0723,35.2364 51.8692,35.0821 C 50.668,34.9297 49.9707,34.3584 49.461,33.2979 C 48.9492,32.2383 49.1387,28.4043 49.0664,27.3574 C 48.9922,26.3125 48.4883,25.5606 47.6074,25.1133 C 46.5391,24.5684 45.3692,24.8535 44.3633,25.6807 C 43.3242,26.5342 41.5449,29.0166 40.7871,30.25 C 40.0332,31.4883 38.461,33.25 38.0469,33.2344 C 37.5547,33.2188 37.5996,32.3887 37.7695,30.9707 C 37.8809,30.0313 37.9883,28.7823 38.0235,27.6846 C 38.0645,26.5899 37.4746,26.1299 36.3867,25.8731 C 35.2988,25.6153 34.3809,26.1973 33.709,27.1504 C 32.9356,28.2481 31.4434,30.086 29.8945,32.0606 C 28.3418,34.0352 25.8692,36.3672 24.9395,36.2813 C 24.0098,36.1924 23.5957,35.5235 23.2481,34.4121 C 22.9043,33.3018 23.4375,29.043 23.6016,27.4571 C 23.7656,25.8692 24.832,18.9405 25.6172,15.2901 C 26.4043,11.6416 26.6973,11.1016 27.3945,8.4375 C 28.0899,5.77344 28.293,6.23145 28.0606,4.96094 C 27.832,3.69043 27.1738,3.71192 26.4649,3.52246 C 25.7598,3.33301 25.4414,3.32129 24.7735,3.62598 C 24.1055,3.9336 23.5957,4.19922 23.1504,5.88477 C 22.709,7.57032 21.7793,10.4639 19.1133,16.1319 C 16.4453,21.8018 13.3692,26.7403 10.1094,31.7715 C 7.3027,36.1094 5.9024,36.5117 4.9336,36.2949 C 4.1309,36.1133 4.0527,34.9922 4.0332,34.0049 C 4.0117,33.0166 4.3027,31.6162 4.8027,29.878 C 5.3027,28.1406 6.6152,24.7168 7.8125,21.8516 C 9.0117,18.9854 11.4688,13.9561 13.4668,9.52442 C 15.6543,4.67383 16.0469,2.53516 16.2656,1.84961 C 16.5508,0.958987 15.6777,0.598637 14.9746,0.299805 C 14.2735,0 13.1426,0.335938 13.1426,0.335938 C 12.3926,0.579107 11.8301,0.753907 11.2012,1.44629 C 10.5742,2.13672 8.7461,3.39453 7.8985,3.64942 C 7.2793,3.83692 7.2402,4.16504 7.5899,4.76465 C 7.5899,4.76465 7.7578,5.4375 8.5274,5.35352 C 9.2988,5.26953 9.125,5.167 9.9531,5.03223 C 10.7793,4.89551 10.8633,5.8418 10.3145,7.35938 C 9.7676,8.87598 7.5918,14.293 6.1426,18.1387 C 4.6914,21.9844 0.9336,30.7481 0.5586,34.8877 C 0.2559,38.211 0,40.3662 2.0645,42.2012 C 4.8106,44.6387 10.8184,39.6826 12.9336,35.5996 C 14.336,32.8955 19.5274,23.1426 20.4746,21.0918 C 21.4258,19.041 23.1973,15.3155 22.8867,16.2393 C 22.584,17.1612 20.8535,24.5078 20.0762,31.0655 C 19.2969,37.6211 21.5567,38.2344 23.125,38.9492 C 24.6914,39.6602 26.7305,38.376 27.7988,37.5889 C 28.8731,36.8047 32.8457,31.6309 33.1992,30.9297 C 33.5527,30.2285 34.4082,30.2305 34.3965,30.6153 C 34.3848,30.9981 34.3985,34.0332 34.957,35.3692 C 35.5137,36.7071 36.0371,37.3828 37.6094,37.9873 C 39.1777,38.5899 40.0801,37.5645 41.8985,35.0313 C 43.7715,32.4258 44.7207,29.9903 45.1485,29.4707 C 45.7402,28.7559 45.7149,29.8653 45.8125,30.9199 C 45.9219,32.086 45.9766,34.0537 47.3994,35.75 C 48.8223,37.4453 49.7969,38.3008 52.6602,37.961 C 55.5254,37.6211 58.2793,33.7715 58.2793,33.7715 C 58.2793,33.7715 58.5176,36.3574 60.377,38.124 C 62.2344,39.8906 63.1514,39.834 65.9619,39.4912 C 68.7725,39.1543 73.3916,33.0918 73.3916,33.0918 C 73.3916,33.0918 75.499,35.8994 78.0342,37.3164 C 81.2022,39.0869 87.333,40.2842 92.5962,40.3574 C 97.8642,40.4317 106.407,38.8877 113.141,37.2227 C 119.078,35.752 126.135,34.9688 128.768,34.8965 C 131.407,34.8242 134.862,35.4649 135.145,35.2022 C 135.43,34.9375 136.473,34.4092 135.655,34.2696 z M 78.6553,13.874 C 81.335,9.30567 83.7373,7.10645 84.5088,7.417 C 85.2783,7.72852 85.2725,7.93946 84.7158,9.62208 C 84.1631,11.3008 83.0322,15.2285 80.0518,19.4463 C 77.0674,23.6651 74.7725,26.5586 74.7725,26.5586 C 74.7725,26.5586 75.2315,19.7129 78.6553,13.874 z"
         id="path6" />
    </g>
    <g
       transform="translate(70.1504,18.5039)"
       id="g8"
       style="fill:#008ac8;fill-rule:evenodd;stroke:none;stroke-width:1;stroke-linecap:butt;stroke-linejoin:miter;stroke-dasharray:none">
      <path
         d="M 0.1035,1.8731 C 0.1074,1.8076 0,1.6484 0.3223,1.6807 C 0.6426,1.7149 0.9277,1.8252 0.9609,1.8369 C 0.9961,1.8496 1.1953,1.8565 1.1953,1.8565 C 1.1953,1.8565 1.3809,1.0283 1.4609,0.9414 C 1.541,0.8565 1.709,0.8272 1.793,0.6641 C 1.8769,0.499 2.0176,0.2607 2.3125,0.1357 C 2.6055,0.0137 2.5957,0 2.8955,0.0127 C 3.1943,0.0215 3.5752,0.0029 3.7939,0.0869 C 4.0146,0.1738 4.0791,0.1982 4.2275,0.3701 C 4.3799,0.543 4.5654,0.6484 4.5557,0.8604 C 4.5498,1.0713 4.5557,1.1279 4.5303,1.294 C 4.5029,1.459 4.4092,1.5449 4.5049,1.6943 C 4.6006,1.8408 4.6396,1.9316 4.6142,2.1094 C 4.583,2.2861 4.667,2.5332 4.4971,2.6055 C 4.3252,2.6777 3.7939,2.9697 3.5693,3.0186 C 3.3447,3.0664 2.5684,3.3066 2.3652,3.3106 C 2.168,3.3135 1.5215,3.3252 1.3105,3.3066 C 1.1016,3.2881 0.6152,3.2256 0.5312,3.0566 C 0.4453,2.8857 0.3711,2.8164 0.3105,2.6152 C 0.25,2.4141 0.1035,1.8731 0.1035,1.8731"
         id="path10" />
    </g>
    <g
       transform="translate(0,51.9717)"
       id="g12"
       style="fill:#161413;fill-rule:nonzero;stroke:none;stroke-width:1;stroke-linecap:butt;stroke-linejoin:miter;stroke-dasharray:none">
      <path
         d="M 0,0 C 0,0 1.7793,0 1.7793,0 C 1.7793,0 1.7793,5.1113 1.7793,5.1113 C 1.7793,6.6211 2.25977,7.6084 3.61719,7.6084 C 4.97656,7.6084 5.45703,6.6211 5.45703,5.1113 C 5.45703,5.1113 5.45703,0 5.45703,0 C 5.45703,0 7.23633,0 7.23633,0 C 7.23633,0 7.23633,5.6553 7.23633,5.6553 C 7.23633,8.0293 5.89258,9.0058 3.61719,9.0058 C 1.3457,9.0058 0,8.0293 0,5.6553 C 0,5.6553 0,0 0,0"
         id="path14" />
    </g>
    <g
       transform="translate(9.83398,51.9717)"
       id="g16"
       style="fill:#161413;fill-rule:nonzero;stroke:none;stroke-width:1;stroke-linecap:butt;stroke-linejoin:miter;stroke-dasharray:none">
      <path
         d="M 0,0 C 0,0 2.18362,0 2.18362,0 C 2.18362,0 5.56052,6.6211 5.56052,6.6211 C 5.56052,6.6211 5.58592,6.6211 5.58592,6.6211 C 5.58592,6.6211 5.58592,0 5.58592,0 C 5.58592,0 7.28712,0 7.28712,0 C 7.28712,0 7.28712,8.8545 7.28712,8.8545 C 7.28712,8.8545 5.11332,8.8545 5.11332,8.8545 C 5.11332,8.8545 1.72652,2.2304 1.72652,2.2304 C 1.72652,2.2304 1.70312,2.2304 1.70312,2.2304 C 1.70312,2.2304 1.70312,8.8545 1.70312,8.8545 C 1.70312,8.8545 0,8.8545 0,8.8545 C 0,8.8545 0,0 0,0"
         id="path18" />
    </g>
    <g
       transform="translate(19.6309,51.9717)"
       id="g20"
       style="fill:#161413;fill-rule:nonzero;stroke:none;stroke-width:1;stroke-linecap:butt;stroke-linejoin:miter;stroke-dasharray:none">
      <path
         d="M 0,0 C 0,0 1.7754,0 1.7754,0 C 1.7754,0 1.7754,8.8545 1.7754,8.8545 C 1.7754,8.8545 0,8.8545 0,8.8545 C 0,8.8545 0,0 0,0"
         id="path22" />
    </g>
    <g
       transform="translate(24.0078,51.9717)"
       id="g24"
       style="fill:#161413;fill-rule:nonzero;stroke:none;stroke-width:1;stroke-linecap:butt;stroke-linejoin:miter;stroke-dasharray:none">
      <path
         d="M 0,0 C 0,0 1.7774,0 1.7774,0 C 1.7774,0 1.7774,7.459 1.7774,7.459 C 1.7774,7.459 5.2168,7.459 5.2168,7.459 C 5.2168,7.459 5.2168,8.8545 5.2168,8.8545 C 5.2168,8.8545 0,8.8545 0,8.8545 C 0,8.8545 0,0 0,0"
         id="path26" />
    </g>
    <g
       transform="translate(35.2227,51.3076)"
       id="g28"
       style="fill:#161413;fill-rule:nonzero;stroke:none;stroke-width:1;stroke-linecap:butt;stroke-linejoin:miter;stroke-dasharray:none">
      <path
         d="M 0.8789,0 C 0.8789,0 0.8789,12.6914 0.8789,12.6914 C 0.8789,12.6914 0,12.6914 0,12.6914 C 0,12.6914 0,0 0,0 C 0,0 0.8789,0 0.8789,0"
         id="path30" />
    </g>
    <g
       transform="translate(43.0176,51.9717)"
       id="g32"
       style="fill:#161413;fill-rule:nonzero;stroke:none;stroke-width:1;stroke-linecap:butt;stroke-linejoin:miter;stroke-dasharray:none">
      <path
         d="M 6.4179,5.7578 C 6.4179,8.3711 4.5039,9.0058 3.207,9.0058 C 1.914,9.0058 0,8.3711 0,5.7578 C 0,5.7578 0,0 0,0 C 0,0 0.873,0 0.873,0 C 0.873,0 0.873,5.7578 0.873,5.7578 C 0.873,7.2041 1.6758,8.2451 3.207,8.2451 C 4.7441,8.2451 5.5429,7.2041 5.5429,5.7578 C 5.5429,5.7578 5.5429,0 5.5429,0 C 5.5429,0 6.4179,0 6.4179,0 C 6.4179,0 6.4179,5.7578 6.4179,5.7578"
         id="path34" />
    </g>
    <g
       transform="translate(52.0996,54.2021)"
       id="g36"
       style="fill:#161413;fill-rule:nonzero;stroke:none;stroke-width:1;stroke-linecap:butt;stroke-linejoin:miter;stroke-dasharray:none">
      <path
         d="M 0.0508,1.6758 C 0.0508,1.1797 0.0508,0.6709 0,0.1553 C 0,0.1553 0.7754,0.1553 0.7754,0.1553 C 0.7754,0.1553 0.7754,1.3057 0.7754,1.3057 C 0.7754,1.3057 0.8008,1.3057 0.8008,1.3057 C 1.0664,0.7227 1.5527,0 2.8965,0 C 4.4922,0 5.1016,1.0665 5.1016,2.4844 C 5.1016,2.4844 5.1016,6.6241 5.1016,6.6241 C 5.1016,6.6241 4.3008,6.6241 4.3008,6.6241 C 4.3008,6.6241 4.3008,2.6915 4.3008,2.6915 C 4.3008,1.4698 3.8731,0.6856 2.7676,0.6856 C 1.3076,0.6856 0.8535,1.9668 0.8535,3.045 C 0.8535,3.045 0.8535,6.6241 0.8535,6.6241 C 0.8535,6.6241 0.0508,6.6241 0.0508,6.6241 C 0.0508,6.6241 0.0508,1.6758 0.0508,1.6758"
         id="path38" />
    </g>
    <g
       transform="translate(59.9043,51.5635)"
       id="g40"
       style="fill:#161413;fill-rule:nonzero;stroke:none;stroke-width:1;stroke-linecap:butt;stroke-linejoin:miter;stroke-dasharray:none">
      <path
         d="M 0.8008,1.0615 C 0.8008,1.0615 0,1.0615 0,1.0615 C 0,1.0615 0,0 0,0 C 0,0 0.8008,0 0.8008,0 C 0.8008,0 0.8008,1.0615 0.8008,1.0615 z M 0,2.7939 C 0,2.7939 0.8008,2.7939 0.8008,2.7939 C 0.8008,2.7939 0.8008,9.2627 0.8008,9.2627 C 0.8008,9.2627 0,9.2627 0,9.2627 C 0,9.2627 0,2.7939 0,2.7939"
         id="path42" />
    </g>
    <g
       transform="translate(62.5322,54.3574)"
       id="g44"
       style="fill:#161413;fill-rule:nonzero;stroke:none;stroke-width:1;stroke-linecap:butt;stroke-linejoin:miter;stroke-dasharray:none">
      <path
         d="M 3.1358,6.4688 C 3.1358,6.4688 2.1983,6.4688 2.1983,6.4688 C 2.1983,6.4688 0,0 0,0 C 0,0 0.875,0 0.875,0 C 0.875,0 2.6651,5.5918 2.6651,5.5918 C 2.6651,5.5918 2.6885,5.5918 2.6885,5.5918 C 2.6885,5.5918 4.5694,0 4.5694,0 C 4.5694,0 5.4033,0 5.4033,0 C 5.4033,0 3.1358,6.4688 3.1358,6.4688"
         id="path46" />
    </g>
    <g
       transform="translate(69.2676,54.2021)"
       id="g48"
       style="fill:#161413;fill-rule:nonzero;stroke:none;stroke-width:1;stroke-linecap:butt;stroke-linejoin:miter;stroke-dasharray:none">
      <path
         d="M 4.8232,6.4219 C 4.2646,6.6495 3.541,6.7754 2.9453,6.7754 C 0.8027,6.7754 0,5.3301 0,3.3897 C 0,1.4092 1.0937,0 2.7285,0 C 4.5556,0 5.3037,1.4698 5.3037,3.209 C 5.3037,3.209 5.3037,3.6153 5.3037,3.6153 C 5.3037,3.6153 0.875,3.6153 0.875,3.6153 C 0.875,4.9854 1.6152,6.0909 3.0097,6.0909 C 3.5908,6.0909 4.4424,5.8477 4.8232,5.6075 C 4.8232,5.6075 4.8232,6.4219 4.8232,6.4219 z M 4.4306,2.9327 C 4.4306,1.8008 3.9697,0.6856 2.7812,0.6856 C 1.5996,0.6856 0.875,1.8663 0.875,2.9327 C 0.875,2.9327 4.4306,2.9327 4.4306,2.9327"
         id="path50" />
    </g>
    <g
       transform="translate(76.7412,54.2021)"
       id="g52"
       style="fill:#161413;fill-rule:nonzero;stroke:none;stroke-width:1;stroke-linecap:butt;stroke-linejoin:miter;stroke-dasharray:none">
      <path
         d="M 0.0508,1.5967 C 0.0508,0.8887 0.0508,0.6211 0,0.1553 C 0,0.1553 0.8027,0.1553 0.8027,0.1553 C 0.8027,0.1553 0.8027,1.3975 0.8027,1.3975 C 0.8027,1.3975 0.8242,1.3975 0.8242,1.3975 C 1.1172,0.6709 1.6641,0 2.4844,0 C 2.6777,0 2.9043,0.0381 3.0449,0.0752 C 3.0449,0.0752 3.0449,0.9141 3.0449,0.9141 C 2.8809,0.8604 2.666,0.836 2.4629,0.836 C 1.1934,0.836 0.8496,2.2598 0.8496,3.4249 C 0.8496,3.4249 0.8496,6.6241 0.8496,6.6241 C 0.8496,6.6241 0.0508,6.6241 0.0508,6.6241 C 0.0508,6.6241 0.0508,1.5967 0.0508,1.5967"
         id="path54" />
    </g>
    <g
       transform="translate(81.1455,54.2021)"
       id="g56"
       style="fill:#161413;fill-rule:nonzero;stroke:none;stroke-width:1;stroke-linecap:butt;stroke-linejoin:miter;stroke-dasharray:none">
      <path
         d="M 0.0762,5.6836 C 0.5547,5.9229 1.1445,6.0909 1.7617,6.0909 C 2.5215,6.0909 3.1973,5.67 3.1973,4.9366 C 3.1973,3.4014 0.0879,3.6387 0.0879,1.7637 C 0.0879,0.4834 1.1309,0 2.1934,0 C 2.5371,0 3.2227,0.0752 3.791,0.2911 C 3.791,0.2911 3.7149,0.9893 3.7149,0.9893 C 3.3008,0.7999 2.7266,0.6856 2.2832,0.6856 C 1.459,0.6856 0.8867,0.9395 0.8867,1.7637 C 0.8867,2.9678 4.0742,2.8155 4.0742,4.9366 C 4.0742,6.3047 2.7891,6.7754 1.8125,6.7754 C 1.1914,6.7754 0.5703,6.7012 0,6.4688 C 0,6.4688 0.0762,5.6836 0.0762,5.6836"
         id="path58" />
    </g>
    <g
       transform="translate(87.3506,51.5635)"
       id="g60"
       style="fill:#161413;fill-rule:nonzero;stroke:none;stroke-width:1;stroke-linecap:butt;stroke-linejoin:miter;stroke-dasharray:none">
      <path
         d="M 0.8008,1.0615 C 0.8008,1.0615 0,1.0615 0,1.0615 C 0,1.0615 0,0 0,0 C 0,0 0.8008,0 0.8008,0 C 0.8008,0 0.8008,1.0615 0.8008,1.0615 z M 0,2.7939 C 0,2.7939 0.8008,2.7939 0.8008,2.7939 C 0.8008,2.7939 0.8008,9.2627 0.8008,9.2627 C 0.8008,9.2627 0,9.2627 0,9.2627 C 0,9.2627 0,2.7939 0,2.7939"
         id="path62" />
    </g>
    <g
       transform="translate(90.1162,52.5146)"
       id="g64"
       style="fill:#161413;fill-rule:nonzero;stroke:none;stroke-width:1;stroke-linecap:butt;stroke-linejoin:miter;stroke-dasharray:none">
      <path
         d="M 3.541,2.5235 C 3.541,2.5235 2.0684,2.5235 2.0684,2.5235 C 2.0684,2.5235 2.0684,6.711 2.0684,6.711 C 2.0684,7.295 2.2832,7.7784 2.9317,7.7784 C 3.2363,7.7784 3.4375,7.7129 3.668,7.625 C 3.668,7.625 3.7188,8.2842 3.7188,8.2842 C 3.5274,8.3633 3.1328,8.4629 2.7402,8.4629 C 1.3184,8.4629 1.2676,7.4864 1.2676,6.3047 C 1.2676,6.3047 1.2676,2.5235 1.2676,2.5235 C 1.2676,2.5235 0,2.5235 0,2.5235 C 0,2.5235 0,1.8428 0,1.8428 C 0,1.8428 1.2676,1.8428 1.2676,1.8428 C 1.2676,1.8428 1.2676,0.2793 1.2676,0.2793 C 1.2676,0.2793 2.0684,0 2.0684,0 C 2.0684,0 2.0684,1.8428 2.0684,1.8428 C 2.0684,1.8428 3.541,1.8428 3.541,1.8428 C 3.541,1.8428 3.541,2.5235 3.541,2.5235"
         id="path66" />
    </g>
    <g
       transform="translate(95.3037,51.8545)"
       id="g68"
       style="fill:#161413;fill-rule:nonzero;stroke:none;stroke-width:1;stroke-linecap:butt;stroke-linejoin:miter;stroke-dasharray:none">
      <path
         d="M 4.8233,8.7695 C 4.2656,8.9971 3.5391,9.123 2.9453,9.123 C 0.8008,9.123 0,7.6777 0,5.7373 C 0,3.7568 1.0918,2.3476 2.7305,2.3476 C 4.5567,2.3476 5.3023,3.8174 5.3023,5.5566 C 5.3023,5.5566 5.3023,5.9629 5.3023,5.9629 C 5.3023,5.9629 0.877,5.9629 0.877,5.9629 C 0.877,7.333 1.6152,8.4385 3.0098,8.4385 C 3.5918,8.4385 4.4395,8.1953 4.8233,7.9551 C 4.8233,7.9551 4.8233,8.7695 4.8233,8.7695 z M 4.4297,5.2803 C 4.4297,4.1484 3.9707,3.0332 2.7774,3.0332 C 1.5996,3.0332 0.877,4.2139 0.877,5.2803 C 0.877,5.2803 4.4297,5.2803 4.4297,5.2803 z M 3.0977,0 C 3.0977,0 4.0996,0 4.0996,0 C 4.0996,0 2.502,1.8281 2.502,1.8281 C 2.502,1.8281 1.916,1.8281 1.916,1.8281 C 1.916,1.8281 3.0977,0 3.0977,0"
         id="path70" />
    </g>
    <g
       transform="translate(106.676,51.3076)"
       id="g72"
       style="fill:#161413;fill-rule:nonzero;stroke:none;stroke-width:1;stroke-linecap:butt;stroke-linejoin:miter;stroke-dasharray:none">
      <path
         d="M 5.506,9.5186 C 5.506,9.5186 4.705,9.5186 4.705,9.5186 C 4.705,9.5186 4.705,8.4883 4.705,8.4883 C 4.705,8.4883 4.68,8.4883 4.68,8.4883 C 4.25,9.3164 3.59,9.6699 2.662,9.6699 C 0.887,9.6699 0,8.1992 0,6.2842 C 0,4.3164 0.762,2.8945 2.662,2.8945 C 3.932,2.8945 4.567,3.8194 4.68,4.1397 C 4.68,4.1397 4.705,4.1397 4.705,4.1397 C 4.705,4.1397 4.705,0 4.705,0 C 4.705,0 5.506,0 5.506,0 C 5.506,0 5.506,9.5186 5.506,9.5186 z M 2.791,8.9854 C 4.213,8.9854 4.705,7.4629 4.705,6.2842 C 4.705,5.1026 4.213,3.5801 2.791,3.5801 C 1.264,3.5801 0.875,5.0274 0.875,6.2842 C 0.875,7.5381 1.264,8.9854 2.791,8.9854"
         id="path74" />
    </g>
    <g
       transform="translate(114.325,54.2021)"
       id="g76"
       style="fill:#161413;fill-rule:nonzero;stroke:none;stroke-width:1;stroke-linecap:butt;stroke-linejoin:miter;stroke-dasharray:none">
      <path
         d="M 4.824,6.4219 C 4.267,6.6495 3.541,6.7754 2.945,6.7754 C 0.802,6.7754 0,5.3301 0,3.3897 C 0,1.4092 1.095,0 2.73,0 C 4.556,0 5.304,1.4698 5.304,3.209 C 5.304,3.209 5.304,3.6153 5.304,3.6153 C 5.304,3.6153 0.875,3.6153 0.875,3.6153 C 0.875,4.9854 1.613,6.0909 3.011,6.0909 C 3.59,6.0909 4.445,5.8477 4.824,5.6075 C 4.824,5.6075 4.824,6.4219 4.824,6.4219 z M 4.429,2.9327 C 4.429,1.8008 3.976,0.6856 2.781,0.6856 C 1.601,0.6856 0.875,1.8663 0.875,2.9327 C 0.875,2.9327 4.429,2.9327 4.429,2.9327"
         id="path78" />
    </g>
    <g
       transform="translate(126.088,51.9717)"
       id="g80"
       style="fill:#161413;fill-rule:nonzero;stroke:none;stroke-width:1;stroke-linecap:butt;stroke-linejoin:miter;stroke-dasharray:none">
      <path
         d="M 0,0 C 0,0 0.879,0 0.879,0 C 0.879,0 0.879,8.0928 0.879,8.0928 C 0.879,8.0928 4.432,8.0928 4.432,8.0928 C 4.432,8.0928 4.432,8.8545 4.432,8.8545 C 4.432,8.8545 0,8.8545 0,8.8545 C 0,8.8545 0,0 0,0"
         id="path82" />
    </g>
    <g
       transform="translate(131.913,54.2021)"
       id="g84"
       style="fill:#161413;fill-rule:nonzero;stroke:none;stroke-width:1;stroke-linecap:butt;stroke-linejoin:miter;stroke-dasharray:none">
      <path
         d="M 4.214,5.5831 C 4.214,5.5831 4.185,5.5831 4.185,5.5831 C 3.83,6.3565 2.931,6.7754 2.132,6.7754 C 0.291,6.7754 0,5.5313 0,4.9483 C 0,2.7774 2.31,2.6768 3.983,2.6768 C 3.983,2.6768 4.136,2.6768 4.136,2.6768 C 4.136,2.6768 4.136,2.3467 4.136,2.3467 C 4.136,1.2452 3.74,0.6856 2.668,0.6856 C 1.992,0.6856 1.359,0.836 0.761,1.2168 C 0.761,1.2168 0.761,0.4454 0.761,0.4454 C 1.252,0.2022 2.093,0 2.668,0 C 4.263,0 4.935,0.7227 4.935,2.4102 C 4.935,2.4102 4.935,5.2657 4.935,5.2657 C 4.935,5.7852 4.935,6.1788 4.996,6.6241 C 4.996,6.6241 4.214,6.6241 4.214,6.6241 C 4.214,6.6241 4.214,5.5831 4.214,5.5831 z M 4.136,3.3624 C 4.136,3.3624 3.908,3.3624 3.908,3.3624 C 2.525,3.3624 0.873,3.502 0.873,4.9219 C 0.873,5.7754 1.484,6.0909 2.222,6.0909 C 4.097,6.0909 4.136,4.4532 4.136,3.7559 C 4.136,3.7559 4.136,3.3624 4.136,3.3624"
         id="path86" />
    </g>
    <g
       transform="translate(139.448,54.3574)"
       id="g88"
       style="fill:#161413;fill-rule:nonzero;stroke:none;stroke-width:1;stroke-linecap:butt;stroke-linejoin:miter;stroke-dasharray:none">
      <path
         d="M 5.052,4.9453 C 5.052,5.4385 5.052,5.9502 5.105,6.4688 C 5.105,6.4688 4.326,6.4688 4.326,6.4688 C 4.326,6.4688 4.326,5.3135 4.326,5.3135 C 4.326,5.3135 4.306,5.3135 4.306,5.3135 C 4.033,5.8975 3.556,6.6201 2.213,6.6201 C 0.613,6.6201 0,5.5547 0,4.1358 C 0,4.1358 0,0 0,0 C 0,0 0.802,0 0.802,0 C 0.802,0 0.802,3.9287 0.802,3.9287 C 0.802,5.1494 1.236,5.9356 2.338,5.9356 C 3.793,5.9356 4.252,4.6524 4.252,3.5742 C 4.252,3.5742 4.252,0 4.252,0 C 4.252,0 5.052,0 5.052,0 C 5.052,0 5.052,4.9453 5.052,4.9453"
         id="path90" />
    </g>
    <g
       transform="translate(146.633,54.2021)"
       id="g92"
       style="fill:#161413;fill-rule:nonzero;stroke:none;stroke-width:1;stroke-linecap:butt;stroke-linejoin:miter;stroke-dasharray:none">
      <path
         d="M 0.073,5.6836 C 0.555,5.9229 1.139,6.0909 1.762,6.0909 C 2.524,6.0909 3.196,5.67 3.196,4.9366 C 3.196,3.4014 0.088,3.6387 0.088,1.7637 C 0.088,0.4834 1.129,0 2.192,0 C 2.535,0 3.221,0.0752 3.793,0.2911 C 3.793,0.2911 3.715,0.9893 3.715,0.9893 C 3.299,0.7999 2.725,0.6856 2.282,0.6856 C 1.461,0.6856 0.888,0.9395 0.888,1.7637 C 0.888,2.9678 4.073,2.8155 4.073,4.9366 C 4.073,6.3047 2.793,6.7754 1.813,6.7754 C 1.192,6.7754 0.571,6.7012 0,6.4688 C 0,6.4688 0.073,5.6836 0.073,5.6836"
         id="path94" />
    </g>
    <g
       transform="translate(152.344,54.2021)"
       id="g96"
       style="fill:#161413;fill-rule:nonzero;stroke:none;stroke-width:1;stroke-linecap:butt;stroke-linejoin:miter;stroke-dasharray:none">
      <path
         d="M 4.211,5.5831 C 4.211,5.5831 4.184,5.5831 4.184,5.5831 C 3.832,6.3565 2.93,6.7754 2.133,6.7754 C 0.289,6.7754 0,5.5313 0,4.9483 C 0,2.7774 2.307,2.6768 3.981,2.6768 C 3.981,2.6768 4.135,2.6768 4.135,2.6768 C 4.135,2.6768 4.135,2.3467 4.135,2.3467 C 4.135,1.2452 3.74,0.6856 2.66,0.6856 C 1.992,0.6856 1.352,0.836 0.76,1.2168 C 0.76,1.2168 0.76,0.4454 0.76,0.4454 C 1.254,0.2022 2.092,0 2.66,0 C 4.26,0 4.932,0.7227 4.932,2.4102 C 4.932,2.4102 4.932,5.2657 4.932,5.2657 C 4.932,5.7852 4.932,6.1788 4.998,6.6241 C 4.998,6.6241 4.211,6.6241 4.211,6.6241 C 4.211,6.6241 4.211,5.5831 4.211,5.5831 z M 4.135,3.3624 C 4.135,3.3624 3.906,3.3624 3.906,3.3624 C 2.522,3.3624 0.869,3.502 0.869,4.9219 C 0.869,5.7754 1.481,6.0909 2.219,6.0909 C 4.094,6.0909 4.135,4.4532 4.135,3.7559 C 4.135,3.7559 4.135,3.3624 4.135,3.3624"
         id="path98" />
    </g>
    <g
       transform="translate(159.827,54.2021)"
       id="g100"
       style="fill:#161413;fill-rule:nonzero;stroke:none;stroke-width:1;stroke-linecap:butt;stroke-linejoin:miter;stroke-dasharray:none">
      <path
         d="M 0.052,1.6758 C 0.052,1.1797 0.052,0.6709 0,0.1553 C 0,0.1553 0.777,0.1553 0.777,0.1553 C 0.777,0.1553 0.777,1.3057 0.777,1.3057 C 0.777,1.3057 0.802,1.3057 0.802,1.3057 C 1.068,0.7227 1.552,0 2.894,0 C 4.494,0 5.103,1.0665 5.103,2.4844 C 5.103,2.4844 5.103,6.6241 5.103,6.6241 C 5.103,6.6241 4.306,6.6241 4.306,6.6241 C 4.306,6.6241 4.306,2.6915 4.306,2.6915 C 4.306,1.4698 3.871,0.6856 2.767,0.6856 C 1.312,0.6856 0.849,1.9668 0.849,3.045 C 0.849,3.045 0.849,6.6241 0.849,6.6241 C 0.849,6.6241 0.052,6.6241 0.052,6.6241 C 0.052,6.6241 0.052,1.6758 0.052,1.6758"
         id="path102" />
    </g>
    <g
       transform="translate(167.579,54.2021)"
       id="g104"
       style="fill:#161413;fill-rule:nonzero;stroke:none;stroke-width:1;stroke-linecap:butt;stroke-linejoin:miter;stroke-dasharray:none">
      <path
         d="M 0.052,1.6758 C 0.052,1.1797 0.052,0.6709 0,0.1553 C 0,0.1553 0.777,0.1553 0.777,0.1553 C 0.777,0.1553 0.777,1.3057 0.777,1.3057 C 0.777,1.3057 0.802,1.3057 0.802,1.3057 C 1.067,0.7227 1.55,0 2.896,0 C 4.494,0 5.103,1.0665 5.103,2.4844 C 5.103,2.4844 5.103,6.6241 5.103,6.6241 C 5.103,6.6241 4.302,6.6241 4.302,6.6241 C 4.302,6.6241 4.302,2.6915 4.302,2.6915 C 4.302,1.4698 3.871,0.6856 2.771,0.6856 C 1.308,0.6856 0.853,1.9668 0.853,3.045 C 0.853,3.045 0.853,6.6241 0.853,6.6241 C 0.853,6.6241 0.052,6.6241 0.052,6.6241 C 0.052,6.6241 0.052,1.6758 0.052,1.6758"
         id="path106" />
    </g>
    <g
       transform="translate(174.905,54.2021)"
       id="g108"
       style="fill:#161413;fill-rule:nonzero;stroke:none;stroke-width:1;stroke-linecap:butt;stroke-linejoin:miter;stroke-dasharray:none">
      <path
         d="M 4.82,6.4219 C 4.263,6.6495 3.535,6.7754 2.945,6.7754 C 0.795,6.7754 0,5.3301 0,3.3897 C 0,1.4092 1.088,0 2.724,0 C 4.551,0 5.301,1.4698 5.301,3.209 C 5.301,3.209 5.301,3.6153 5.301,3.6153 C 5.301,3.6153 0.871,3.6153 0.871,3.6153 C 0.871,4.9854 1.611,6.0909 3.004,6.0909 C 3.588,6.0909 4.441,5.8477 4.82,5.6075 C 4.82,5.6075 4.82,6.4219 4.82,6.4219 z M 4.429,2.9327 C 4.429,1.8008 3.97,0.6856 2.777,0.6856 C 1.597,0.6856 0.871,1.8663 0.871,2.9327 C 0.871,2.9327 4.429,2.9327 4.429,2.9327"
         id="path110" />
    </g>
  </g>
</svg>
