<?xml version="1.0" encoding="utf-8"?>
<!-- Generator: Adobe Illustrator 13.0.0, SVG Export Plug-In . SVG Version: 6.00 Build 14948)  -->
<!DOCTYPE svg PUBLIC "-//W3C//DTD SVG 1.1//EN" "http://www.w3.org/Graphics/SVG/1.1/DTD/svg11.dtd" [
	<!ENTITY ns_flows "http://ns.adobe.com/Flows/1.0/">
	<!ENTITY ns_extend "http://ns.adobe.com/Extensibility/1.0/">
	<!ENTITY ns_ai "http://ns.adobe.com/AdobeIllustrator/10.0/">
	<!ENTITY ns_graphs "http://ns.adobe.com/Graphs/1.0/">
	<!ENTITY ns_vars "http://ns.adobe.com/Variables/1.0/">
	<!ENTITY ns_imrep "http://ns.adobe.com/ImageReplacement/1.0/">
	<!ENTITY ns_sfw "http://ns.adobe.com/SaveForWeb/1.0/">
	<!ENTITY ns_custom "http://ns.adobe.com/GenericCustomNamespace/1.0/">
	<!ENTITY ns_adobe_xpath "http://ns.adobe.com/XPath/1.0/">
]>
<svg version="1.1" id="Capa_1" xmlns:x="&ns_extend;" xmlns:i="&ns_ai;" xmlns:graph="&ns_graphs;"
	 xmlns="http://www.w3.org/2000/svg" xmlns:xlink="http://www.w3.org/1999/xlink" xmlns:a="http://ns.adobe.com/AdobeSVGViewerExtensions/3.0/"
	 x="0px" y="0px" width="438.503px" height="626.554px" viewBox="0 0 438.503 626.554" enable-background="new 0 0 438.503 626.554"
	 xml:space="preserve">
<metadata>
	<sfw  xmlns="&ns_sfw;">
		<slices></slices>
		<sliceSourceBounds  x="88.731" y="88.018" width="438.503" height="626.554" bottomLeftOrigin="true"></sliceSourceBounds>
	</sfw>
</metadata>
<g>
	<g>
		<rect x="5.405" y="4.513" fill-rule="evenodd" clip-rule="evenodd" fill="#F04C3E" width="427.383" height="427.383"/>
		<path fill="#F04C3E" d="M0.892,431.896l4.513-4.513h427.383v9.026H5.405L0.892,431.896L0.892,431.896z M5.405,436.41H0.892v-4.514
			L5.405,436.41L5.405,436.41z M5.405,0l4.513,4.513v427.383H0.892V4.513L5.405,0L5.405,0z M0.892,4.513V0h4.513L0.892,4.513
			L0.892,4.513z M437.301,4.513l-4.513,4.513H5.405V0h427.383L437.301,4.513L437.301,4.513z M432.788,0h4.513v4.513L432.788,0
			L432.788,0z M432.788,436.41l-4.513-4.514V4.513h9.025v427.383L432.788,436.41L432.788,436.41z M437.301,431.896v4.514h-4.513
			L437.301,431.896z"/>
	</g>
	<g>
		<path fill-rule="evenodd" clip-rule="evenodd" fill="#FFFFFF" d="M4.515,156.907C4.517,230.433,64.483,290.4,138.009,290.4
			c73.527,0,133.495-59.968,133.495-133.495c0-0.068,0-0.134-0.001-0.202V4.672H4.513v152.235H4.515z"/>
		<path fill="#F04C3E" d="M138.009,285.887v9.026v-0.018l-7.063-0.174l-6.993-0.535l-6.897-0.869l-6.792-1.23l-6.661-1.547
			l-6.556-1.857l-6.409-2.174l-6.252-2.484l-6.122-2.768l-5.948-3.06l-5.784-3.327l-5.593-3.584l-5.413-3.869l-5.222-4.092
			l-5.006-4.342l-4.799-4.566l-4.566-4.799l-4.342-5.006l-4.092-5.222l-3.869-5.412l-3.584-5.593l-3.327-5.784l-3.06-5.948
			l-2.767-6.122l-2.484-6.251l-2.174-6.409l-1.857-6.556l-1.547-6.661l-1.23-6.792l-0.869-6.896l-0.535-6.993l-0.174-7.063h8.991
			l0.174,6.64l0.5,6.535l0.834,6.438l1.125,6.333l1.442,6.238l1.751,6.098l2.034,5.985l2.308,5.864l2.591,5.699l2.849,5.561
			l3.114,5.396l3.373,5.241l3.587,5.06l3.845,4.87l4.061,4.688l4.284,4.482l4.482,4.284l4.688,4.06l4.87,3.845l5.06,3.587
			l5.241,3.373l5.396,3.115l5.56,2.848l5.699,2.591l5.864,2.308l5.985,2.034l6.098,1.75l6.238,1.442l6.333,1.125l6.438,0.834
			l6.535,0.5l6.641,0.174V285.887L138.009,285.887z M138.009,285.904v-0.009v-0.009V285.904L138.009,285.904z M266.991,156.905
			h9.026l0,0l-0.192,7.063l-0.534,6.993l-0.869,6.897l-1.23,6.792l-1.548,6.661l-1.856,6.556l-2.175,6.409l-2.483,6.252
			l-2.768,6.122l-3.061,5.948l-3.326,5.784l-3.585,5.594l-3.868,5.412l-4.093,5.222l-4.342,5.006l-4.566,4.799l-4.799,4.566
			l-5.007,4.342l-5.223,4.093l-5.412,3.869l-5.594,3.584l-5.784,3.326l-5.948,3.061l-6.122,2.768l-6.252,2.484l-6.408,2.174
			l-6.557,1.857l-6.661,1.547l-6.792,1.23l-6.896,0.869l-6.994,0.535l-7.063,0.192v-9.026l6.641-0.157l6.535-0.5l6.438-0.834
			l6.333-1.125l6.238-1.442l6.098-1.75l5.985-2.034l5.864-2.308l5.699-2.591l5.561-2.849l5.396-3.115l5.241-3.373l5.06-3.587
			l4.87-3.845l4.689-4.06l4.481-4.284l4.284-4.482l4.061-4.689l3.845-4.87l3.587-5.059l3.373-5.241l3.115-5.396l2.849-5.561
			l2.591-5.699l2.308-5.864l2.034-5.985l1.75-6.098l1.442-6.238l1.124-6.333l0.834-6.438l0.5-6.535L266.991,156.905L266.991,156.905
			z M266.991,156.905L266.991,156.905L266.991,156.905L266.991,156.905L266.991,156.905z M267.008,156.703h8.99v-0.071l0.019,0.077
			v0.006v0.006v0.006v0.006v0.006v0.007v0.006l0.001,0.006v0.006v0.006v0.006v0.006v0.006v0.006v0.006v0.006v0.006v0.006v0.006
			v0.006v0.007v0.006v0.006v0.006v0.006v0.006v0.006v0.006v0.006v0.007v0.006h-9.026v-0.006v-0.007v-0.006v-0.006v-0.006v-0.006
			v-0.006v-0.006v-0.006v-0.006v-0.007v-0.006v-0.006v-0.006v-0.006v-0.006v-0.006v-0.006v-0.006v-0.006v-0.006v-0.006v-0.006
			v-0.006v-0.006v-0.007v-0.006l-0.001-0.006v-0.006v-0.006v-0.006l0.018,0.064V156.703L267.008,156.703z M267.008,156.773
			L267.008,156.773v-0.07V156.773L267.008,156.773z M271.503,0.177l4.495,4.495v152.031h-8.99V4.672L271.503,0.177z M271.503,0.177
			h4.495v4.495L271.503,0.177L271.503,0.177z M0,4.672l4.513-4.495h266.99v8.99H4.513L0,4.672z M0,4.672V0.177h4.513L0,4.672
			L0,4.672z M4.513,161.42L0,156.907V4.672h9.026v152.235L4.513,161.42z M4.513,161.42H0v-4.513L4.513,161.42L4.513,161.42z
			 M9.011,156.907l-4.496,4.513H4.513v-9.026h0.002L9.011,156.907L9.011,156.907z M4.515,152.394H9.01l0,4.513L4.515,152.394z"/>
	</g>
	<g>
		<polygon fill-rule="evenodd" clip-rule="evenodd" fill="#FFFFFF" points="287.291,426.63 359.237,289.769 431.183,152.908 
			287.291,152.908 143.398,152.908 215.346,289.769 		"/>
		<path fill="#F04C3E" d="M363.092,291.884L363.092,291.884l-71.945,136.861l-7.71-4.23l71.946-136.862L363.092,291.884z
			 M363.092,291.884L363.092,291.884L363.092,291.884L363.092,291.884L363.092,291.884z M431.183,148.432l3.855,6.591
			l-71.946,136.861l-7.709-4.231l71.945-136.861L431.183,148.432z M431.183,148.432h7.32l-3.465,6.591L431.183,148.432
			L431.183,148.432z M287.291,148.432L287.291,148.432h143.892v8.952H287.291V148.432L287.291,148.432z M287.291,157.384
			L287.291,157.384L287.291,157.384L287.291,157.384L287.291,157.384z M139.543,155.023l3.855-6.591h143.893v8.952H143.398
			L139.543,155.023z M139.543,155.023l-3.464-6.591h7.319L139.543,155.023L139.543,155.023z M219.2,287.653l-7.709,4.231
			l-71.947-136.861l7.71-4.231L219.2,287.653L219.2,287.653z M219.2,287.653L219.2,287.653L219.2,287.653L219.2,287.653
			L219.2,287.653z M291.146,428.746h-7.71l-71.946-136.861l7.709-4.231l71.946,136.862V428.746z M291.146,428.746l-3.855,7.333
			l-3.854-7.333H291.146z"/>
	</g>
	<g>
		<rect x="0.761" y="611.981" fill="#F04C3E" width="436.724" height="14.573"/>
	</g>
	<path fill="#F04C3E" d="M407.519,508.457v-8.246c2.839-0.083,5.063-1.236,6.672-3.46c1.427-2.017,2.14-4.621,2.14-7.816
		c0-3.589-0.591-6.464-1.771-8.628c-1.468-2.643-3.815-3.97-7.041-3.98v-8.639c1.656,0.321,3.119,0.915,4.388,1.78
		c1.376,0.935,2.653,2.287,3.833,4.057l0.148-18.803h10.322v52.942h-10.102v-4.94c-1.18,2.063-2.876,3.612-5.087,4.646
		C409.943,507.878,408.775,508.241,407.519,508.457z M407.519,467.687v8.639l-0.038-0.001c-3.047,0-5.332,1.229-6.855,3.688
		c-1.279,2.112-1.918,4.89-1.918,8.331c0,2.999,0.565,5.556,1.696,7.669c1.474,2.801,3.735,4.202,6.782,4.202
		c0.112,0,0.223-0.002,0.333-0.005v8.246c-0.923,0.158-1.893,0.239-2.912,0.239c-5.457,0-9.662-2.162-12.611-6.489
		c-2.604-3.884-3.907-8.75-3.907-14.6c0-6.439,1.621-11.503,4.866-15.189c2.95-3.342,6.761-5.014,11.431-5.014
		C405.497,467.404,406.541,467.498,407.519,467.687L407.519,467.687z M364.05,507.946v-6.826c1.591-0.304,3.017-0.948,4.276-1.937
		c1.818-1.425,2.729-3.292,2.729-5.604v-5.013c-0.442,0.343-1.229,0.737-2.359,1.18l-4.646,0.971v-6.875l3.392-0.511
		c1.131-0.147,1.942-0.395,2.434-0.737c0.786-0.54,1.18-1.328,1.18-2.36c0-1.867-0.787-3.17-2.359-3.908
		c-0.982-0.442-2.458-0.663-4.424-0.663l-0.222,0.002v-8.235c0.48-0.017,0.972-0.024,1.476-0.024c3.834,0,7.127,0.662,9.88,1.99
		c3.833,1.918,5.751,5.039,5.751,9.365v21.235c0,0.688,0.013,1.45,0.038,2.286c0.023,0.835,0.208,1.61,0.552,2.322
		c0.344,0.713,0.909,1.217,1.696,1.512v1.549h-11.135c-0.393-1.328-0.713-2.877-0.957-4.646c-1.672,1.818-3.197,3.073-4.573,3.76
		C365.931,507.257,365.021,507.646,364.05,507.946z M364.05,467.428v8.235c-2.149,0.039-3.746,0.653-4.792,1.842
		c-0.689,0.737-1.132,1.941-1.328,3.612h-9.955c0.492-5.357,2.557-9.143,6.193-11.355
		C356.593,468.353,359.886,467.575,364.05,467.428L364.05,467.428z M364.05,483.841v6.875l-0.295,0.062
		c-2.213,0.295-3.762,0.786-4.645,1.476c-1.377,0.934-2.065,2.384-2.065,4.35c0,1.572,0.541,2.801,1.622,3.687
		c0.935,0.688,1.99,1.032,3.171,1.032c0.77,0,1.507-0.068,2.212-0.202v6.826c-1.621,0.5-3.414,0.75-5.383,0.75
		c-3.245,0-5.972-0.885-8.185-2.655c-2.508-2.063-3.76-4.988-3.76-8.773c0-3.688,1.02-6.55,3.06-8.59s4.829-3.355,8.369-3.945
		L364.05,483.841L364.05,483.841z M321.467,508.457v-8.246c2.839-0.083,5.063-1.236,6.672-3.46c1.427-2.017,2.14-4.621,2.14-7.816
		c0-3.589-0.59-6.464-1.771-8.628c-1.468-2.643-3.815-3.97-7.041-3.98v-8.639c1.656,0.321,3.119,0.915,4.388,1.78
		c1.376,0.935,2.653,2.287,3.834,4.057l0.146-18.803h10.323v52.942h-10.102v-4.94c-1.18,2.063-2.876,3.612-5.087,4.646
		C323.892,507.878,322.724,508.241,321.467,508.457z M321.467,467.687v8.639l-0.038-0.001c-3.047,0-5.332,1.229-6.855,3.688
		c-1.279,2.112-1.918,4.89-1.918,8.331c0,2.999,0.564,5.556,1.696,7.669c1.474,2.801,3.735,4.202,6.782,4.202
		c0.112,0,0.223-0.002,0.333-0.005v8.246c-0.923,0.158-1.893,0.239-2.913,0.239c-5.456,0-9.66-2.162-12.608-6.489
		c-2.605-3.884-3.907-8.75-3.907-14.6c0-6.439,1.621-11.503,4.866-15.189c2.948-3.342,6.759-5.014,11.429-5.014
		C319.445,467.404,320.489,467.498,321.467,467.687L321.467,467.687z M188.668,508.683v-8.274c0.3,0.019,0.607,0.028,0.923,0.028
		c1.425,0,2.776-0.369,4.055-1.106c1.277-0.737,2.139-1.794,2.58-3.17h10.619c-1.229,4.326-3.589,7.595-7.079,9.806
		c-2.951,1.819-6.342,2.729-10.175,2.729C189.28,508.696,188.973,508.691,188.668,508.683L188.668,508.683z M188.668,490.852v-6.71
		h8c0-1.377-0.257-2.605-0.773-3.688c-0.517-1.081-1.241-2.015-2.175-2.801c-1.328-1.181-3-1.771-5.014-1.771h-0.038v-8.478
		l0.185-0.001c4.867,0,8.898,1.352,12.093,4.055c4.228,3.638,6.341,9.488,6.341,17.55v1.844H188.668L188.668,490.852z
		 M236.855,477.948l-1.327-0.073h-1.623c-3.638,0-6.219,1.007-7.742,3.021c-1.181,1.476-1.769,3.589-1.769,6.342v20.426H214.07
		v-39.229h9.881v6.784c1.77-3.146,3.478-5.235,5.124-6.268c1.647-1.033,3.576-1.548,5.789-1.548h1.991V477.948L236.855,477.948z
		 M276.304,495.202c0,4.965-2.09,8.628-6.268,10.986c-3.098,1.672-6.735,2.508-10.913,2.508c-5.26,0-9.513-0.934-12.756-2.803
		c-4.08-2.358-6.12-5.947-6.12-10.765h10.617c0,1.77,0.639,3.194,1.918,4.275c1.376,0.984,3.587,1.476,6.636,1.476
		c2.311,0,4.056-0.491,5.235-1.476c0.885-0.737,1.326-1.597,1.326-2.579c0-1.623-2.089-2.9-6.268-3.836
		c-6.291-1.325-10.2-2.383-11.724-3.17c-4.228-1.917-6.342-5.014-6.342-9.291c0-3.343,1.106-6.243,3.319-8.7
		c2.801-2.95,6.979-4.424,12.535-4.424c4.866,0,8.75,0.762,11.649,2.285c3.981,2.162,5.973,5.728,5.973,10.691h-10.101
		c-0.295-1.672-0.788-2.85-1.476-3.539c-1.081-1.081-2.899-1.622-5.456-1.622c-2.508,0-4.253,0.419-5.235,1.253
		c-0.737,0.591-1.106,1.45-1.106,2.582c0,1.425,2.114,2.653,6.342,3.687c6.193,1.376,10.127,2.457,11.798,3.245
		C274.165,488,276.304,491.073,276.304,495.202L276.304,495.202z M294.441,463.791h-10.323v-9.586h10.323V463.791L294.441,463.791z
		 M294.441,507.664h-10.323v-39.229h10.323V507.664z M56.57,489.156c0,6.735-1.905,11.736-5.714,15.005
		c-3.81,3.269-9.156,4.904-16.038,4.904c-3.195,0-5.997-0.395-8.406-1.181c-3.441-1.032-6.243-2.777-8.406-5.235
		c-2.752-3.146-4.129-7.422-4.129-12.83v-35.098h11.281v34.36c0,3.441,0.885,6.071,2.655,7.891c1.77,1.818,4.032,2.728,6.784,2.728
		c3.686,0,6.39-0.86,8.11-2.58c1.721-1.722,2.582-4.228,2.582-7.521v-34.877H56.57V489.156L56.57,489.156z M188.668,467.405v8.478
		c-2.342,0.008-4.184,0.721-5.53,2.14c-1.352,1.425-2.175,3.465-2.47,6.12h8v6.71h-8.295c0.295,3.391,1.193,5.838,2.691,7.336
		c1.334,1.333,3.202,2.073,5.604,2.221v8.274c-5.598-0.151-9.938-1.696-13.014-4.632c-3.736-3.59-5.604-9.193-5.604-16.813
		c0-4.325,0.982-8.209,2.949-11.65C176.167,470.177,181.392,467.451,188.668,467.405L188.668,467.405z M102.064,507.664H91.742
		v-23.816c0-2.163-0.295-3.811-0.886-4.94c-0.982-1.869-2.925-2.803-5.825-2.803c-2.359,0-4.301,0.799-5.825,2.396
		c-1.523,1.598-2.285,3.822-2.285,6.674v22.489H66.598v-39.229h9.882v5.751c1.572-2.407,3.33-4.141,5.271-5.197
		c1.943-1.058,4.167-1.585,6.674-1.585c4.03,0,7.312,1.143,9.844,3.428c2.531,2.286,3.796,5.519,3.796,9.696V507.664
		L102.064,507.664z M122.269,463.791h-10.322v-9.586h10.322V463.791L122.269,463.791z M122.269,507.664h-10.322v-39.229h10.322
		V507.664L122.269,507.664z M167.396,468.435l-14.156,39.229H142.4l-14.084-39.229h11.503l8.111,28.905l8.479-28.905H167.396z"/>
	<path fill="#F04C3E" d="M346.806,582.611v-8.274c0.299,0.019,0.606,0.028,0.923,0.028c1.425,0,2.775-0.369,4.055-1.106
		c1.277-0.737,2.139-1.794,2.58-3.17h10.619c-1.229,4.326-3.589,7.595-7.079,9.807c-2.95,1.818-6.342,2.729-10.175,2.729
		C347.417,582.624,347.109,582.619,346.806,582.611L346.806,582.611z M346.806,564.78v-6.711h8c0-1.376-0.258-2.604-0.773-3.688
		c-0.517-1.081-1.241-2.015-2.176-2.801c-1.327-1.18-2.998-1.771-5.014-1.771h-0.037v-8.478l0.186-0.001
		c4.865,0,8.897,1.352,12.092,4.055c4.228,3.638,6.342,9.488,6.342,17.549v1.845H346.806z M346.806,541.333v8.478
		c-2.343,0.008-4.185,0.721-5.53,2.14c-1.352,1.424-2.175,3.465-2.47,6.119h8v6.711h-8.295c0.295,3.391,1.192,5.837,2.691,7.336
		c1.334,1.333,3.201,2.073,5.604,2.221v8.274c-5.599-0.151-9.938-1.695-13.014-4.633c-3.736-3.589-5.604-9.192-5.604-16.813
		c0-4.325,0.982-8.209,2.949-11.65C334.305,544.105,339.528,541.378,346.806,541.333L346.806,541.333z M263.963,581.873v-6.826
		c1.591-0.303,3.017-0.947,4.276-1.936c1.818-1.425,2.729-3.292,2.729-5.604v-5.014c-0.442,0.344-1.229,0.738-2.359,1.181
		l-4.646,0.971v-6.874l3.392-0.512c1.131-0.147,1.942-0.395,2.434-0.738c0.786-0.539,1.18-1.327,1.18-2.359
		c0-1.868-0.787-3.17-2.359-3.908c-0.983-0.442-2.458-0.663-4.424-0.663l-0.222,0.002v-8.235c0.479-0.017,0.972-0.024,1.475-0.024
		c3.834,0,7.128,0.662,9.881,1.99c3.833,1.917,5.751,5.039,5.751,9.365v21.235c0,0.688,0.013,1.449,0.038,2.286
		c0.023,0.835,0.208,1.609,0.552,2.322s0.909,1.216,1.696,1.512v1.549h-11.135c-0.393-1.328-0.713-2.877-0.958-4.646
		c-1.671,1.819-3.196,3.072-4.572,3.76C265.844,581.185,264.934,581.574,263.963,581.873L263.963,581.873z M300.903,581.591h-10.322
		v-52.942h10.322V581.591L300.903,581.591z M321.402,581.591H311.08v-52.942h10.322V581.591z M263.963,541.356v8.235
		c-2.149,0.039-3.747,0.653-4.792,1.842c-0.689,0.737-1.132,1.94-1.328,3.612h-9.955c0.492-5.357,2.557-9.143,6.193-11.355
		C256.506,542.281,259.799,541.501,263.963,541.356L263.963,541.356z M263.963,557.77v6.874l-0.295,0.062
		c-2.213,0.295-3.762,0.786-4.646,1.476c-1.376,0.934-2.064,2.384-2.064,4.35c0,1.572,0.541,2.801,1.622,3.687
		c0.935,0.688,1.99,1.032,3.17,1.032c0.771,0,1.508-0.068,2.213-0.203v6.826c-1.621,0.5-3.415,0.751-5.383,0.751
		c-3.245,0-5.973-0.886-8.185-2.655c-1.852-1.523-3.019-3.516-3.503-5.978v-5.802c0.421-2.276,1.355-4.137,2.803-5.585
		c2.04-2.04,4.829-3.354,8.369-3.944L263.963,557.77L263.963,557.77z M246.893,529.406v-0.757h0.258L246.893,529.406z
		 M246.893,528.649v0.757l-17.734,52.186h-10.544l-17.844-52.942h11.872l11.355,40.111l11.65-40.111H246.893L246.893,528.649z
		 M246.893,568.189c-0.172,0.932-0.258,1.935-0.258,3.006c0,0.991,0.086,1.923,0.258,2.796V568.189L246.893,568.189z
		 M137.688,582.611v-8.274c0.3,0.019,0.607,0.028,0.923,0.028c1.425,0,2.776-0.369,4.055-1.106c1.277-0.737,2.139-1.794,2.58-3.17
		h10.619c-1.229,4.326-3.589,7.595-7.079,9.807c-2.95,1.818-6.341,2.729-10.175,2.729
		C138.299,582.624,137.992,582.619,137.688,582.611L137.688,582.611z M137.688,564.78v-6.711h8c0-1.376-0.257-2.604-0.773-3.688
		c-0.516-1.081-1.241-2.015-2.175-2.801c-1.327-1.18-2.999-1.771-5.013-1.771h-0.038v-8.478l0.185-0.001
		c4.866,0,8.898,1.352,12.093,4.055c4.228,3.638,6.341,9.488,6.341,17.549v1.845H137.688L137.688,564.78z M173.781,581.591h-10.323
		v-52.942h10.323V581.591z M112.949,581.591h-10.101v-4.94c-1.18,2.063-2.877,3.612-5.088,4.645
		c-1.078,0.511-2.245,0.873-3.502,1.09v-8.247c2.84-0.083,5.063-1.236,6.672-3.46c1.427-2.017,2.139-4.621,2.139-7.816
		c0-3.589-0.59-6.464-1.77-8.628c-1.468-2.644-3.815-3.971-7.042-3.98v-8.639c1.657,0.32,3.119,0.914,4.388,1.78
		c1.376,0.934,2.654,2.286,3.833,4.057l0.147-18.803h10.323V581.591L112.949,581.591z M137.688,541.333v8.478
		c-2.342,0.008-4.185,0.721-5.53,2.14c-1.351,1.424-2.175,3.465-2.47,6.119h8v6.711h-8.295c0.295,3.391,1.192,5.837,2.691,7.336
		c1.333,1.333,3.202,2.073,5.604,2.221v8.274c-5.598-0.151-9.937-1.695-13.014-4.633c-3.736-3.589-5.604-9.192-5.604-16.813
		c0-4.325,0.982-8.209,2.949-11.65C125.187,544.105,130.411,541.378,137.688,541.333z M94.257,582.385
		c-0.922,0.158-1.894,0.238-2.913,0.238c-5.456,0-9.66-2.162-12.609-6.489c-2.605-3.884-3.907-8.75-3.907-14.6
		c0-6.439,1.621-11.503,4.866-15.189c2.948-3.343,6.759-5.014,11.429-5.014c1.112,0,2.157,0.094,3.134,0.283v8.639l-0.038-0.001
		c-3.047,0-5.332,1.229-6.856,3.688c-1.279,2.111-1.918,4.89-1.918,8.331c0,2.999,0.565,5.555,1.697,7.669
		c1.473,2.801,3.734,4.202,6.782,4.202c0.111,0,0.223-0.002,0.333-0.005V582.385z"/>
</g>
</svg>
