<?xml version="1.0" encoding="UTF-8" standalone="no"?>
<svg
   xmlns:dc="http://purl.org/dc/elements/1.1/"
   xmlns:cc="http://creativecommons.org/ns#"
   xmlns:rdf="http://www.w3.org/1999/02/22-rdf-syntax-ns#"
   xmlns:svg="http://www.w3.org/2000/svg"
   xmlns="http://www.w3.org/2000/svg"
   xmlns:xlink="http://www.w3.org/1999/xlink"
   xmlns:sodipodi="http://sodipodi.sourceforge.net/DTD/sodipodi-0.dtd"
   xmlns:inkscape="http://www.inkscape.org/namespaces/inkscape"
   version="1.1"
   id="Calque_1"
   x="0px"
   y="0px"
   width="600"
   height="353.86963"
   viewBox="0 0 600 353.86965"
   enable-background="new 0 0 232 136.859"
   xml:space="preserve"
   sodipodi:docname="logo.svg"
   inkscape:version="1.0.1 (c497b03c, 2020-09-10)"><metadata
   id="metadata1266"><rdf:RDF><cc:Work
       rdf:about=""><dc:format>image/svg+xml</dc:format><dc:type
         rdf:resource="http://purl.org/dc/dcmitype/StillImage" /></cc:Work></rdf:RDF></metadata><defs
   id="defs1264"><defs
     id="defs834"><rect
       id="SVGID_1_"
       x="-3.984"
       y="-3.984"
       width="240"
       height="146" /></defs><clipPath
     id="SVGID_2_">
		<use
   xlink:href="#SVGID_1_"
   overflow="visible"
   id="use836"
   x="0"
   y="0"
   width="100%"
   height="100%" />
	</clipPath></defs><sodipodi:namedview
   pagecolor="#ffffff"
   bordercolor="#666666"
   borderopacity="1"
   objecttolerance="10"
   gridtolerance="10"
   guidetolerance="10"
   inkscape:pageopacity="0"
   inkscape:pageshadow="2"
   inkscape:window-width="1920"
   inkscape:window-height="1080"
   id="namedview1262"
   showgrid="false"
   inkscape:zoom="1.2511523"
   inkscape:cx="352.56591"
   inkscape:cy="68.413497"
   inkscape:window-x="0"
   inkscape:window-y="0"
   inkscape:window-maximized="0"
   inkscape:current-layer="Calque_1" />
<g
   id="g1496"><path
     clip-path="url(#SVGID_2_)"
     fill="#2e2a25"
     d="m 132.207,113.53 c -0.456,0.367 -1.107,0.415 -1.807,0.415 h -0.909 v -4.801 h 1.371 c 0.282,0 0.54,0.046 0.756,0.118 0.894,0.274 1.306,1.094 1.306,2.176 0,0.875 -0.173,1.666 -0.717,2.092 m -1.477,-5.937 h -3.186 v 7.914 h 3.264 c 0.675,0 1.34,-0.047 1.965,-0.306 1.577,-0.634 2.141,-2.06 2.141,-3.673 0,-2.628 -1.638,-3.935 -4.184,-3.935"
     id="path1227"
     style="stroke-width:0.14951"
     transform="matrix(2.586218,0,0,2.586218,-0.04137949,-0.04137949)" /><polygon
     clip-path="url(#SVGID_2_)"
     fill="#2e2a25"
     points="155.093,107.622 148.862,107.622 148.862,115.507 155.132,115.507 155.132,113.906 150.806,113.926 150.806,112.211 154.3,112.227 154.3,110.646 150.806,110.662 150.806,109.203 155.093,109.22 "
     id="polygon1229"
     style="stroke-width:0.14951"
     transform="matrix(2.586218,0,0,2.586218,-0.04137949,-0.04137949)" /><rect
     x="24.393"
     y="107.606"
     clip-path="url(#SVGID_2_)"
     fill="#2e2a25"
     width="1.836"
     height="7.875"
     id="rect1231"
     style="stroke-width:0.14951"
     transform="matrix(2.586218,0,0,2.586218,-0.04137949,-0.04137949)" /><polygon
     clip-path="url(#SVGID_2_)"
     fill="#2e2a25"
     points="91.954,107.622 85.723,107.622 85.723,115.507 91.992,115.507 91.992,113.906 87.668,113.926 87.668,112.211 91.157,112.227 91.157,110.646 87.668,110.662 87.668,109.203 91.954,109.22 "
     id="polygon1233"
     style="stroke-width:0.14951"
     transform="matrix(2.586218,0,0,2.586218,-0.04137949,-0.04137949)" /><polygon
     clip-path="url(#SVGID_2_)"
     fill="#2e2a25"
     points="66.658,107.594 64.729,107.594 64.729,115.508 70.563,115.508 70.563,113.906 66.639,113.945 "
     id="polygon1235"
     style="stroke-width:0.14951"
     transform="matrix(2.586218,0,0,2.586218,-0.04137949,-0.04137949)" /><polygon
     clip-path="url(#SVGID_2_)"
     fill="#2e2a25"
     points="45.497,107.594 43.572,107.594 43.572,115.508 49.4,115.508 49.4,113.906 45.483,113.945 "
     id="polygon1237"
     style="stroke-width:0.14951"
     transform="matrix(2.586218,0,0,2.586218,-0.04137949,-0.04137949)" /><polygon
     clip-path="url(#SVGID_2_)"
     fill="#2e2a25"
     points="133.234,128.783 131.139,134.65 129.136,128.783 127.058,128.783 130.102,136.664 132.229,136.664 135.316,128.783 "
     id="polygon1239"
     style="stroke-width:0.14951"
     transform="matrix(2.586218,0,0,2.586218,-0.04137949,-0.04137949)" /><path
     clip-path="url(#SVGID_2_)"
     fill="#2e2a25"
     d="m 46.831,132.191 v 1.47 h 1.532 c 0,0.255 0.013,0.514 0,0.775 -0.046,0.802 -0.773,0.943 -1.43,0.943 -1.578,0 -2.189,-1.223 -2.189,-2.631 0,-1.309 0.674,-2.628 2.159,-2.628 0.743,0 1.414,0.321 1.897,0.91 l 1.233,-1.124 c -0.76,-0.882 -1.868,-1.306 -3.028,-1.306 -2.468,0 -4.279,1.628 -4.279,4.133 0,2.653 1.673,4.112 4.279,4.112 0.972,0 2.37,-0.287 2.918,-1.186 0.29,-0.455 0.322,-0.909 0.322,-1.476 v -1.994 h -3.414 z"
     id="path1241"
     style="stroke-width:0.14951"
     transform="matrix(2.586218,0,0,2.586218,-0.04137949,-0.04137949)" /><polygon
     clip-path="url(#SVGID_2_)"
     fill="#2e2a25"
     points="70.756,128.783 64.525,128.783 64.525,136.664 70.799,136.664 70.799,135.07 66.477,135.083 66.477,133.368 69.965,133.384 69.965,131.804 66.477,131.82 66.477,130.36 70.756,130.376 "
     id="polygon1243"
     style="stroke-width:0.14951"
     transform="matrix(2.586218,0,0,2.586218,-0.04137949,-0.04137949)" /><polygon
     clip-path="url(#SVGID_2_)"
     fill="#2e2a25"
     points="155.093,128.783 148.862,128.783 148.862,136.664 155.132,136.664 155.132,135.07 150.806,135.083 150.806,133.368 154.3,133.384 154.3,131.804 150.806,131.82 150.806,130.36 155.093,130.376 "
     id="polygon1245"
     style="stroke-width:0.14951"
     transform="matrix(2.586218,0,0,2.586218,-0.04137949,-0.04137949)" /><polygon
     clip-path="url(#SVGID_2_)"
     fill="#2e2a25"
     points="90.533,136.672 92.652,136.672 92.652,128.779 90.73,128.779 90.76,134.045 87.193,128.779 85.05,128.779 85.05,136.672 86.975,136.672 86.95,131.413 "
     id="polygon1247"
     style="stroke-width:0.14951"
     transform="matrix(2.586218,0,0,2.586218,-0.04137949,-0.04137949)" /><polygon
     clip-path="url(#SVGID_2_)"
     fill="#2e2a25"
     points="111.027,128.05 111.973,127.068 109.361,125.313 108.109,126.623 "
     id="polygon1249"
     style="stroke-width:0.14951"
     transform="matrix(2.586218,0,0,2.586218,-0.04137949,-0.04137949)" /><polygon
     clip-path="url(#SVGID_2_)"
     fill="#2e2a25"
     points="113.243,128.783 107.021,128.783 107.021,136.664 113.294,136.664 113.294,135.07 108.965,135.083 108.965,133.368 112.456,133.384 112.456,131.804 108.965,131.82 108.965,130.36 113.243,130.376 "
     id="polygon1251"
     style="stroke-width:0.14951"
     transform="matrix(2.586218,0,0,2.586218,-0.04137949,-0.04137949)" /><polygon
     clip-path="url(#SVGID_2_)"
     fill="#2e2a25"
     points="6.199,107.604 4.102,113.467 2.093,107.604 0.016,107.604 3.072,115.484 5.199,115.484 8.279,107.604 "
     id="polygon1253"
     style="stroke-width:0.14951"
     transform="matrix(2.586218,0,0,2.586218,-0.04137949,-0.04137949)" /></g><g
   id="g2077"><g
     id="g1875"><path
       clip-path="url(#SVGID_2_)"
       fill="#ffcd00"
       d="m 116.634,94.974 c -1.119,0 -2.028,0.909 -2.028,2.023 0,1.118 0.91,2.029 2.028,2.029 1.117,0 2.026,-0.911 2.026,-2.029 0,-1.114 -0.909,-2.023 -2.026,-2.023"
       id="path839"
       style="stroke-width:0.14951"
       transform="matrix(2.586218,0,0,2.586218,-0.04137949,-0.04137949)" /><path
       clip-path="url(#SVGID_2_)"
       fill="#ffcd00"
       d="m 116.634,89.673 c -1.119,0 -2.028,0.909 -2.028,2.025 0,1.122 0.91,2.033 2.028,2.033 1.117,0 2.026,-0.911 2.026,-2.033 0,-1.116 -0.909,-2.025 -2.026,-2.025"
       id="path841"
       style="stroke-width:0.14951"
       transform="matrix(2.586218,0,0,2.586218,-0.04137949,-0.04137949)" /><path
       clip-path="url(#SVGID_2_)"
       fill="#ffcd00"
       d="m 111.341,20.852 c -1.118,0 -2.028,0.909 -2.028,2.026 0,1.115 0.91,2.023 2.028,2.023 1.116,0 2.025,-0.908 2.025,-2.023 0,-1.117 -0.908,-2.026 -2.025,-2.026"
       id="path843"
       style="stroke-width:0.14951"
       transform="matrix(2.586218,0,0,2.586218,-0.04137949,-0.04137949)" /><path
       clip-path="url(#SVGID_2_)"
       fill="#ffcd00"
       d="m 116.634,84.383 c -1.119,0 -2.028,0.908 -2.028,2.024 0,1.12 0.91,2.028 2.028,2.028 1.117,0 2.026,-0.908 2.026,-2.028 0,-1.116 -0.909,-2.024 -2.026,-2.024"
       id="path845"
       style="stroke-width:0.14951"
       transform="matrix(2.586218,0,0,2.586218,-0.04137949,-0.04137949)" /><path
       clip-path="url(#SVGID_2_)"
       fill="#ffcd00"
       d="m 111.341,26.144 c -1.118,0 -2.028,0.912 -2.028,2.033 0,1.116 0.91,2.024 2.028,2.024 1.116,0 2.025,-0.908 2.025,-2.024 0,-1.121 -0.908,-2.033 -2.025,-2.033"
       id="path847"
       style="stroke-width:0.14951"
       transform="matrix(2.586218,0,0,2.586218,-0.04137949,-0.04137949)" /><path
       clip-path="url(#SVGID_2_)"
       fill="#ffcd00"
       d="m 116.634,52.617 c -1.119,0 -2.028,0.909 -2.028,2.027 0,1.117 0.91,2.025 2.028,2.025 1.117,0 2.026,-0.908 2.026,-2.025 0,-1.118 -0.909,-2.027 -2.026,-2.027"
       id="path849"
       style="stroke-width:0.14951"
       transform="matrix(2.586218,0,0,2.586218,-0.04137949,-0.04137949)" /><path
       clip-path="url(#SVGID_2_)"
       fill="#ffcd00"
       d="m 116.634,79.086 c -1.119,0 -2.028,0.909 -2.028,2.025 0,1.12 0.91,2.031 2.028,2.031 1.117,0 2.026,-0.911 2.026,-2.031 0,-1.116 -0.909,-2.025 -2.026,-2.025"
       id="path851"
       style="stroke-width:0.14951"
       transform="matrix(2.586218,0,0,2.586218,-0.04137949,-0.04137949)" /><path
       clip-path="url(#SVGID_2_)"
       fill="#ffcd00"
       d="m 116.634,57.913 c -1.119,0 -2.028,0.908 -2.028,2.024 0,1.119 0.91,2.029 2.028,2.029 1.117,0 2.026,-0.91 2.026,-2.029 0,-1.116 -0.909,-2.024 -2.026,-2.024"
       id="path853"
       style="stroke-width:0.14951"
       transform="matrix(2.586218,0,0,2.586218,-0.04137949,-0.04137949)" /><path
       clip-path="url(#SVGID_2_)"
       fill="#ffcd00"
       d="m 116.634,73.788 c -1.119,0 -2.028,0.909 -2.028,2.028 0,1.119 0.91,2.03 2.028,2.03 1.117,0 2.026,-0.911 2.026,-2.03 0,-1.119 -0.909,-2.028 -2.026,-2.028"
       id="path855"
       style="stroke-width:0.14951"
       transform="matrix(2.586218,0,0,2.586218,-0.04137949,-0.04137949)" /><path
       clip-path="url(#SVGID_2_)"
       fill="#ffcd00"
       d="m 116.634,68.5 c -1.119,0 -2.028,0.909 -2.028,2.026 0,1.116 0.91,2.022 2.028,2.022 1.117,0 2.026,-0.906 2.026,-2.022 0,-1.117 -0.909,-2.026 -2.026,-2.026"
       id="path857"
       style="stroke-width:0.14951"
       transform="matrix(2.586218,0,0,2.586218,-0.04137949,-0.04137949)" /><path
       clip-path="url(#SVGID_2_)"
       fill="#ffcd00"
       d="m 116.634,63.207 c -1.119,0 -2.028,0.909 -2.028,2.025 0,1.118 0.91,2.027 2.028,2.027 1.117,0 2.026,-0.909 2.026,-2.027 0,-1.116 -0.909,-2.025 -2.026,-2.025"
       id="path859"
       style="stroke-width:0.14951"
       transform="matrix(2.586218,0,0,2.586218,-0.04137949,-0.04137949)" /><path
       clip-path="url(#SVGID_2_)"
       fill="#ffcd00"
       d="m 111.341,68.5 c -1.118,0 -2.028,0.909 -2.028,2.026 0,1.116 0.91,2.022 2.028,2.022 1.116,0 2.025,-0.906 2.025,-2.022 0,-1.117 -0.908,-2.026 -2.025,-2.026"
       id="path861"
       style="stroke-width:0.14951"
       transform="matrix(2.586218,0,0,2.586218,-0.04137949,-0.04137949)" /><path
       clip-path="url(#SVGID_2_)"
       fill="#ffcd00"
       d="m 111.341,57.913 c -1.118,0 -2.028,0.908 -2.028,2.024 0,1.119 0.91,2.029 2.028,2.029 1.116,0 2.025,-0.91 2.025,-2.029 0,-1.116 -0.908,-2.024 -2.025,-2.024"
       id="path863"
       style="stroke-width:0.14951"
       transform="matrix(2.586218,0,0,2.586218,-0.04137949,-0.04137949)" /><path
       clip-path="url(#SVGID_2_)"
       fill="#ffcd00"
       d="m 111.341,31.44 c -1.118,0 -2.028,0.907 -2.028,2.023 0,1.118 0.91,2.027 2.028,2.027 1.116,0 2.025,-0.909 2.025,-2.027 0,-1.115 -0.908,-2.023 -2.025,-2.023"
       id="path865"
       style="stroke-width:0.14951"
       transform="matrix(2.586218,0,0,2.586218,-0.04137949,-0.04137949)" /><path
       clip-path="url(#SVGID_2_)"
       fill="#ffcd00"
       d="m 111.342,79.086 c -1.118,0 -2.028,0.909 -2.028,2.025 0,1.12 0.91,2.031 2.028,2.031 1.117,0 2.024,-0.911 2.024,-2.031 0,-1.116 -0.907,-2.025 -2.024,-2.025"
       id="path867"
       style="stroke-width:0.14951"
       transform="matrix(2.586218,0,0,2.586218,-0.04137949,-0.04137949)" /><path
       clip-path="url(#SVGID_2_)"
       fill="#ffcd00"
       d="m 111.341,73.788 c -1.118,0 -2.028,0.909 -2.028,2.028 0.003,1.119 0.913,2.03 2.029,2.03 1.117,0 2.024,-0.911 2.024,-2.03 0,-1.119 -0.908,-2.028 -2.025,-2.028"
       id="path869"
       style="stroke-width:0.14951"
       transform="matrix(2.586218,0,0,2.586218,-0.04137949,-0.04137949)" /><path
       clip-path="url(#SVGID_2_)"
       fill="#ffcd00"
       d="m 111.341,63.207 c -1.118,0 -2.028,0.909 -2.028,2.025 0,1.118 0.91,2.027 2.028,2.027 1.116,0 2.025,-0.909 2.025,-2.027 0,-1.116 -0.908,-2.025 -2.025,-2.025"
       id="path871"
       style="stroke-width:0.14951"
       transform="matrix(2.586218,0,0,2.586218,-0.04137949,-0.04137949)" /><path
       clip-path="url(#SVGID_2_)"
       fill="#ffcd00"
       d="m 111.341,36.736 c -1.118,0 -2.028,0.908 -2.028,2.023 0,1.118 0.91,2.027 2.028,2.027 1.116,0 2.025,-0.909 2.025,-2.027 0,-1.115 -0.908,-2.023 -2.025,-2.023"
       id="path873"
       style="stroke-width:0.14951"
       transform="matrix(2.586218,0,0,2.586218,-0.04137949,-0.04137949)" /><path
       clip-path="url(#SVGID_2_)"
       fill="#ffcd00"
       d="m 111.341,42.031 c -1.118,0 -2.028,0.907 -2.028,2.021 0,1.118 0.91,2.029 2.028,2.029 1.116,0 2.025,-0.911 2.025,-2.029 0,-1.114 -0.908,-2.021 -2.025,-2.021"
       id="path875"
       style="stroke-width:0.14951"
       transform="matrix(2.586218,0,0,2.586218,-0.04137949,-0.04137949)" /><path
       clip-path="url(#SVGID_2_)"
       fill="#ffcd00"
       d="m 111.341,52.617 c -1.118,0 -2.028,0.909 -2.028,2.027 0,1.117 0.91,2.025 2.028,2.025 1.116,0 2.025,-0.908 2.025,-2.025 0,-1.118 -0.908,-2.027 -2.025,-2.027"
       id="path877"
       style="stroke-width:0.14951"
       transform="matrix(2.586218,0,0,2.586218,-0.04137949,-0.04137949)" /><path
       clip-path="url(#SVGID_2_)"
       fill="#ffcd00"
       d="m 111.341,47.322 c -1.118,0 -2.028,0.907 -2.028,2.022 0,1.118 0.91,2.027 2.028,2.027 1.116,0 2.025,-0.909 2.025,-2.027 0,-1.115 -0.908,-2.022 -2.025,-2.022"
       id="path879"
       style="stroke-width:0.14951"
       transform="matrix(2.586218,0,0,2.586218,-0.04137949,-0.04137949)" /><path
       clip-path="url(#SVGID_2_)"
       fill="#ffcd00"
       d="m 121.931,94.974 c -1.119,0 -2.028,0.909 -2.028,2.023 0,1.118 0.909,2.029 2.028,2.029 1.114,0 2.022,-0.911 2.022,-2.029 0,-1.114 -0.908,-2.023 -2.022,-2.023"
       id="path881"
       style="stroke-width:0.14951"
       transform="matrix(2.586218,0,0,2.586218,-0.04137949,-0.04137949)" /><path
       clip-path="url(#SVGID_2_)"
       fill="#ffcd00"
       d="m 121.931,47.322 c -1.119,0 -2.028,0.907 -2.028,2.022 0,1.118 0.909,2.027 2.028,2.027 1.118,0 2.027,-0.909 2.027,-2.027 0,-1.115 -0.909,-2.022 -2.027,-2.022"
       id="path883"
       style="stroke-width:0.14951"
       transform="matrix(2.586218,0,0,2.586218,-0.04137949,-0.04137949)" /><path
       clip-path="url(#SVGID_2_)"
       fill="#ffcd00"
       d="m 121.931,52.617 c -1.119,0 -2.028,0.909 -2.028,2.027 0,1.117 0.909,2.025 2.028,2.025 1.118,0 2.027,-0.908 2.027,-2.025 0,-1.118 -0.909,-2.027 -2.027,-2.027"
       id="path885"
       style="stroke-width:0.14951"
       transform="matrix(2.586218,0,0,2.586218,-0.04137949,-0.04137949)" /><path
       clip-path="url(#SVGID_2_)"
       fill="#ffcd00"
       d="m 121.931,42.031 c -1.119,0 -2.028,0.907 -2.028,2.021 0,1.118 0.909,2.029 2.028,2.029 1.118,0 2.027,-0.911 2.027,-2.029 0,-1.114 -0.909,-2.021 -2.027,-2.021"
       id="path887"
       style="stroke-width:0.14951"
       transform="matrix(2.586218,0,0,2.586218,-0.04137949,-0.04137949)" /><path
       clip-path="url(#SVGID_2_)"
       fill="#ffcd00"
       d="m 121.931,57.913 c -1.119,0 -2.028,0.908 -2.028,2.024 0,1.119 0.909,2.029 2.028,2.029 1.118,0 2.027,-0.91 2.027,-2.029 0,-1.116 -0.909,-2.024 -2.027,-2.024"
       id="path889"
       style="stroke-width:0.14951"
       transform="matrix(2.586218,0,0,2.586218,-0.04137949,-0.04137949)" /><path
       clip-path="url(#SVGID_2_)"
       fill="#ffcd00"
       d="m 121.931,63.207 c -1.119,0 -2.028,0.909 -2.028,2.025 0,1.118 0.909,2.027 2.028,2.027 1.118,0 2.027,-0.909 2.027,-2.027 0,-1.116 -0.909,-2.025 -2.027,-2.025"
       id="path891"
       style="stroke-width:0.14951"
       transform="matrix(2.586218,0,0,2.586218,-0.04137949,-0.04137949)" /><path
       clip-path="url(#SVGID_2_)"
       fill="#ffcd00"
       d="m 127.224,84.383 c -1.116,0 -2.025,0.908 -2.025,2.024 0,1.12 0.909,2.028 2.025,2.028 1.119,0 2.028,-0.908 2.028,-2.028 0,-1.116 -0.909,-2.024 -2.028,-2.024"
       id="path893"
       style="stroke-width:0.14951"
       transform="matrix(2.586218,0,0,2.586218,-0.04137949,-0.04137949)" /><path
       clip-path="url(#SVGID_2_)"
       fill="#ffcd00"
       d="m 127.224,94.974 c -1.116,0 -2.025,0.909 -2.025,2.023 0,1.118 0.909,2.029 2.025,2.029 1.119,0 2.028,-0.911 2.028,-2.029 0,-1.114 -0.909,-2.023 -2.028,-2.023"
       id="path895"
       style="stroke-width:0.14951"
       transform="matrix(2.586218,0,0,2.586218,-0.04137949,-0.04137949)" /><path
       clip-path="url(#SVGID_2_)"
       fill="#ffcd00"
       d="m 121.931,68.5 c -1.119,0 -2.028,0.909 -2.028,2.026 0,1.116 0.909,2.022 2.028,2.022 1.118,0 2.027,-0.906 2.027,-2.022 0,-1.117 -0.909,-2.026 -2.027,-2.026"
       id="path897"
       style="stroke-width:0.14951"
       transform="matrix(2.586218,0,0,2.586218,-0.04137949,-0.04137949)" /><path
       clip-path="url(#SVGID_2_)"
       fill="#ffcd00"
       d="m 127.224,79.086 c -1.119,0 -2.03,0.909 -2.03,2.025 0,1.12 0.911,2.031 2.03,2.031 1.119,0 2.028,-0.911 2.028,-2.031 0,-1.116 -0.909,-2.025 -2.028,-2.025"
       id="path899"
       style="stroke-width:0.14951"
       transform="matrix(2.586218,0,0,2.586218,-0.04137949,-0.04137949)" /><path
       clip-path="url(#SVGID_2_)"
       fill="#ffcd00"
       d="m 127.224,89.673 c -1.116,0 -2.025,0.909 -2.025,2.025 0,1.122 0.909,2.033 2.025,2.033 1.119,0 2.028,-0.911 2.028,-2.033 0,-1.116 -0.909,-2.025 -2.028,-2.025"
       id="path901"
       style="stroke-width:0.14951"
       transform="matrix(2.586218,0,0,2.586218,-0.04137949,-0.04137949)" /><path
       clip-path="url(#SVGID_2_)"
       fill="#ffcd00"
       d="m 116.634,47.322 c -1.119,0 -2.028,0.907 -2.028,2.022 0,1.118 0.91,2.027 2.028,2.027 1.117,0 2.026,-0.909 2.026,-2.027 0,-1.115 -0.909,-2.022 -2.026,-2.022"
       id="path903"
       style="stroke-width:0.14951"
       transform="matrix(2.586218,0,0,2.586218,-0.04137949,-0.04137949)" /><path
       clip-path="url(#SVGID_2_)"
       fill="#ffcd00"
       d="m 116.634,26.144 c -1.119,0 -2.028,0.912 -2.028,2.033 0,1.116 0.91,2.024 2.028,2.024 1.117,0 2.026,-0.908 2.026,-2.024 0,-1.121 -0.909,-2.033 -2.026,-2.033"
       id="path905"
       style="stroke-width:0.14951"
       transform="matrix(2.586218,0,0,2.586218,-0.04137949,-0.04137949)" /><path
       clip-path="url(#SVGID_2_)"
       fill="#ffcd00"
       d="m 121.931,73.788 c -1.119,0 -2.028,0.909 -2.028,2.028 0,1.119 0.909,2.03 2.028,2.03 1.118,0 2.027,-0.911 2.027,-2.03 0,-1.119 -0.909,-2.028 -2.027,-2.028"
       id="path907"
       style="stroke-width:0.14951"
       transform="matrix(2.586218,0,0,2.586218,-0.04137949,-0.04137949)" /><path
       clip-path="url(#SVGID_2_)"
       fill="#ffcd00"
       d="m 116.634,31.44 c -1.119,0 -2.028,0.907 -2.028,2.023 0,1.118 0.91,2.027 2.028,2.027 1.117,0 2.026,-0.909 2.026,-2.027 0,-1.115 -0.909,-2.023 -2.026,-2.023"
       id="path909"
       style="stroke-width:0.14951"
       transform="matrix(2.586218,0,0,2.586218,-0.04137949,-0.04137949)" /><path
       clip-path="url(#SVGID_2_)"
       fill="#ffcd00"
       d="m 116.634,36.736 c -1.119,0 -2.028,0.908 -2.028,2.023 0,1.118 0.91,2.027 2.028,2.027 1.117,0 2.026,-0.909 2.026,-2.027 0,-1.115 -0.909,-2.023 -2.026,-2.023"
       id="path911"
       style="stroke-width:0.14951"
       transform="matrix(2.586218,0,0,2.586218,-0.04137949,-0.04137949)" /><path
       clip-path="url(#SVGID_2_)"
       fill="#ffcd00"
       d="m 116.634,42.031 c -1.119,0 -2.028,0.907 -2.028,2.021 0,1.118 0.91,2.029 2.028,2.029 1.117,0 2.026,-0.911 2.026,-2.029 0,-1.114 -0.909,-2.021 -2.026,-2.021"
       id="path913"
       style="stroke-width:0.14951"
       transform="matrix(2.586218,0,0,2.586218,-0.04137949,-0.04137949)" /><path
       clip-path="url(#SVGID_2_)"
       fill="#ffcd00"
       d="m 116.634,20.852 c -1.119,0 -2.028,0.909 -2.028,2.026 0,1.115 0.91,2.023 2.028,2.023 1.117,0 2.026,-0.908 2.026,-2.023 0,-1.117 -0.909,-2.026 -2.026,-2.026"
       id="path915"
       style="stroke-width:0.14951"
       transform="matrix(2.586218,0,0,2.586218,-0.04137949,-0.04137949)" /><path
       clip-path="url(#SVGID_2_)"
       fill="#ffcd00"
       d="m 111.342,84.383 c -1.118,0 -2.028,0.908 -2.028,2.024 0,1.12 0.91,2.028 2.028,2.028 1.117,0 2.024,-0.908 2.024,-2.028 0,-1.116 -0.907,-2.024 -2.024,-2.024"
       id="path917"
       style="stroke-width:0.14951"
       transform="matrix(2.586218,0,0,2.586218,-0.04137949,-0.04137949)" /><path
       clip-path="url(#SVGID_2_)"
       fill="#ffcd00"
       d="m 121.931,84.383 c -1.119,0 -2.028,0.908 -2.028,2.024 0,1.12 0.909,2.028 2.028,2.028 1.118,0 2.027,-0.908 2.027,-2.028 0,-1.116 -0.909,-2.024 -2.027,-2.024"
       id="path919"
       style="stroke-width:0.14951"
       transform="matrix(2.586218,0,0,2.586218,-0.04137949,-0.04137949)" /><path
       clip-path="url(#SVGID_2_)"
       fill="#ffcd00"
       d="m 121.931,79.086 c -1.119,0 -2.028,0.909 -2.028,2.025 0,1.12 0.909,2.031 2.028,2.031 1.118,0 2.027,-0.911 2.027,-2.031 0,-1.116 -0.909,-2.025 -2.027,-2.025"
       id="path921"
       style="stroke-width:0.14951"
       transform="matrix(2.586218,0,0,2.586218,-0.04137949,-0.04137949)" /><path
       clip-path="url(#SVGID_2_)"
       fill="#ffcd00"
       d="m 121.931,89.673 c -1.119,0 -2.028,0.909 -2.028,2.025 0,1.122 0.909,2.033 2.028,2.033 1.118,0 2.027,-0.911 2.027,-2.033 0,-1.116 -0.909,-2.025 -2.027,-2.025"
       id="path923"
       style="stroke-width:0.14951"
       transform="matrix(2.586218,0,0,2.586218,-0.04137949,-0.04137949)" /><path
       clip-path="url(#SVGID_2_)"
       fill="#ffcd00"
       d="m 137.817,68.5 c -1.119,0 -2.028,0.909 -2.028,2.026 0,1.116 0.909,2.022 2.028,2.022 1.112,0 2.019,-0.906 2.019,-2.022 0,-1.117 -0.906,-2.026 -2.019,-2.026"
       id="path925"
       style="stroke-width:0.14951"
       transform="matrix(2.586218,0,0,2.586218,-0.04137949,-0.04137949)" /><path
       clip-path="url(#SVGID_2_)"
       fill="#ffcd00"
       d="m 137.817,35.49 c 1.112,0 2.019,-0.909 2.019,-2.027 0,-1.116 -0.906,-2.023 -2.019,-2.023 -1.119,0 -2.028,0.907 -2.028,2.023 0,1.118 0.909,2.027 2.028,2.027"
       id="path927"
       style="stroke-width:0.14951"
       transform="matrix(2.586218,0,0,2.586218,-0.04137949,-0.04137949)" /><path
       clip-path="url(#SVGID_2_)"
       fill="#ffcd00"
       d="m 137.817,63.207 c -1.119,0 -2.028,0.909 -2.028,2.025 0,1.118 0.909,2.027 2.028,2.027 1.112,0 2.019,-0.909 2.019,-2.027 0,-1.116 -0.906,-2.025 -2.019,-2.025"
       id="path929"
       style="stroke-width:0.14951"
       transform="matrix(2.586218,0,0,2.586218,-0.04137949,-0.04137949)" /><path
       clip-path="url(#SVGID_2_)"
       fill="#ffcd00"
       d="m 143.108,40.786 c 1.114,0 2.023,-0.909 2.023,-2.026 0,-1.116 -0.909,-2.024 -2.023,-2.024 -1.119,0 -2.027,0.908 -2.027,2.024 0,1.116 0.908,2.026 2.027,2.026"
       id="path931"
       style="stroke-width:0.14951"
       transform="matrix(2.586218,0,0,2.586218,-0.04137949,-0.04137949)" /><path
       clip-path="url(#SVGID_2_)"
       fill="#ffcd00"
       d="m 137.817,40.786 c 1.112,0 2.019,-0.909 2.019,-2.026 0,-1.116 -0.906,-2.024 -2.019,-2.024 -1.121,0 -2.032,0.908 -2.032,2.024 0,1.116 0.911,2.026 2.032,2.026"
       id="path933"
       style="stroke-width:0.14951"
       transform="matrix(2.586218,0,0,2.586218,-0.04137949,-0.04137949)" /><path
       clip-path="url(#SVGID_2_)"
       fill="#ffcd00"
       d="m 127.224,73.788 c -1.119,0 -2.03,0.909 -2.03,2.028 0,1.119 0.911,2.03 2.03,2.03 1.119,0 2.028,-0.911 2.028,-2.03 0,-1.119 -0.909,-2.028 -2.028,-2.028"
       id="path935"
       style="stroke-width:0.14951"
       transform="matrix(2.586218,0,0,2.586218,-0.04137949,-0.04137949)" /><path
       clip-path="url(#SVGID_2_)"
       fill="#ffcd00"
       d="m 137.817,77.847 c 1.112,0 2.019,-0.911 2.019,-2.03 0,-1.119 -0.906,-2.027 -2.019,-2.027 -1.121,0 -2.032,0.908 -2.032,2.027 0,1.119 0.911,2.03 2.032,2.03"
       id="path937"
       style="stroke-width:0.14951"
       transform="matrix(2.586218,0,0,2.586218,-0.04137949,-0.04137949)" /><path
       clip-path="url(#SVGID_2_)"
       fill="#ffcd00"
       d="m 132.521,24.901 c 1.114,0 2.021,-0.908 2.021,-2.023 0,-1.117 -0.907,-2.026 -2.021,-2.026 -1.123,0 -2.037,0.909 -2.037,2.026 0,1.115 0.914,2.023 2.037,2.023"
       id="path939"
       style="stroke-width:0.14951"
       transform="matrix(2.586218,0,0,2.586218,-0.04137949,-0.04137949)" /><path
       clip-path="url(#SVGID_2_)"
       fill="#ffcd00"
       d="m 137.817,57.913 c -1.119,0 -2.028,0.908 -2.028,2.024 0,1.119 0.909,2.029 2.028,2.029 1.112,0 2.019,-0.91 2.019,-2.029 0,-1.116 -0.906,-2.024 -2.019,-2.024"
       id="path941"
       style="stroke-width:0.14951"
       transform="matrix(2.586218,0,0,2.586218,-0.04137949,-0.04137949)" /><path
       clip-path="url(#SVGID_2_)"
       fill="#ffcd00"
       d="m 132.521,30.2 c 1.114,0 2.021,-0.908 2.021,-2.023 0,-1.122 -0.907,-2.034 -2.021,-2.034 -1.123,0 -2.037,0.912 -2.037,2.034 0,1.115 0.914,2.023 2.037,2.023"
       id="path943"
       style="stroke-width:0.14951"
       transform="matrix(2.586218,0,0,2.586218,-0.04137949,-0.04137949)" /><path
       clip-path="url(#SVGID_2_)"
       fill="#ffcd00"
       d="m 143.108,35.496 c 1.114,0 2.023,-0.906 2.023,-2.02 0,-1.122 -0.909,-2.035 -2.023,-2.035 -1.119,0 -2.027,0.913 -2.027,2.035 0,1.114 0.908,2.02 2.027,2.02"
       id="path945"
       style="stroke-width:0.14951"
       transform="matrix(2.586218,0,0,2.586218,-0.04137949,-0.04137949)" /><path
       clip-path="url(#SVGID_2_)"
       fill="#ffcd00"
       d="m 143.108,30.2 c 1.114,0 2.023,-0.908 2.023,-2.023 0,-1.122 -0.909,-2.034 -2.023,-2.034 -1.119,0 -2.027,0.912 -2.027,2.034 0,1.115 0.908,2.023 2.027,2.023"
       id="path947"
       style="stroke-width:0.14951"
       transform="matrix(2.586218,0,0,2.586218,-0.04137949,-0.04137949)" /><path
       clip-path="url(#SVGID_2_)"
       fill="#ffcd00"
       d="m 206.636,46.081 c 1.122,0 2.035,-0.911 2.035,-2.029 0,-1.114 -0.913,-2.021 -2.035,-2.021 -1.119,0 -2.027,0.907 -2.027,2.021 -0.001,1.118 0.908,2.029 2.027,2.029"
       id="path949"
       style="stroke-width:0.14951"
       transform="matrix(2.586218,0,0,2.586218,-0.04137949,-0.04137949)" /><path
       clip-path="url(#SVGID_2_)"
       fill="#ffcd00"
       d="m 206.636,35.49 c 1.119,0 2.028,-0.909 2.028,-2.027 0,-1.116 -0.909,-2.023 -2.028,-2.023 -1.119,0 -2.027,0.907 -2.027,2.023 -0.001,1.118 0.908,2.027 2.027,2.027"
       id="path951"
       style="stroke-width:0.14951"
       transform="matrix(2.586218,0,0,2.586218,-0.04137949,-0.04137949)" /><path
       clip-path="url(#SVGID_2_)"
       fill="#ffcd00"
       d="m 206.636,40.786 c 1.119,0 2.028,-0.909 2.028,-2.026 0,-1.116 -0.909,-2.024 -2.028,-2.024 -1.119,0 -2.027,0.908 -2.027,2.024 -0.001,1.116 0.908,2.026 2.027,2.026"
       id="path953"
       style="stroke-width:0.14951"
       transform="matrix(2.586218,0,0,2.586218,-0.04137949,-0.04137949)" /><path
       clip-path="url(#SVGID_2_)"
       fill="#ffcd00"
       d="m 206.636,30.2 c 1.104,0 2.015,-0.9 2.028,-2.007 0,-1.131 -0.909,-2.05 -2.028,-2.05 -1.119,0 -2.027,0.912 -2.027,2.034 -0.001,1.115 0.908,2.023 2.027,2.023"
       id="path955"
       style="stroke-width:0.14951"
       transform="matrix(2.586218,0,0,2.586218,-0.04137949,-0.04137949)" /><path
       clip-path="url(#SVGID_2_)"
       fill="#ffcd00"
       d="m 132.515,35.49 c 1.119,0 2.028,-0.909 2.028,-2.027 0,-1.116 -0.909,-2.023 -2.028,-2.023 -1.119,0 -2.03,0.907 -2.03,2.023 -0.001,1.118 0.911,2.027 2.03,2.027"
       id="path957"
       style="stroke-width:0.14951"
       transform="matrix(2.586218,0,0,2.586218,-0.04137949,-0.04137949)" /><path
       clip-path="url(#SVGID_2_)"
       fill="#ffcd00"
       d="m 111.342,89.673 c -1.118,0 -2.028,0.909 -2.028,2.025 0,1.122 0.91,2.033 2.028,2.033 1.117,0 2.024,-0.911 2.024,-2.033 0,-1.116 -0.907,-2.025 -2.024,-2.025"
       id="path959"
       style="stroke-width:0.14951"
       transform="matrix(2.586218,0,0,2.586218,-0.04137949,-0.04137949)" /><path
       clip-path="url(#SVGID_2_)"
       fill="#ffcd00"
       d="m 153.697,24.901 c 1.115,0 2.021,-0.908 2.021,-2.023 0,-1.117 -0.905,-2.026 -2.021,-2.026 -1.119,0 -2.03,0.909 -2.03,2.026 0,1.115 0.911,2.023 2.03,2.023"
       id="path961"
       style="stroke-width:0.14951"
       transform="matrix(2.586218,0,0,2.586218,-0.04137949,-0.04137949)" /><path
       clip-path="url(#SVGID_2_)"
       fill="#ffcd00"
       d="m 143.108,24.901 c 1.114,0 2.023,-0.908 2.023,-2.023 0,-1.117 -0.909,-2.026 -2.023,-2.026 -1.119,0 -2.027,0.909 -2.027,2.026 0,1.115 0.908,2.023 2.027,2.023"
       id="path963"
       style="stroke-width:0.14951"
       transform="matrix(2.586218,0,0,2.586218,-0.04137949,-0.04137949)" /><path
       clip-path="url(#SVGID_2_)"
       fill="#ffcd00"
       d="m 153.697,35.49 c 1.11,0 2.015,-0.909 2.015,-2.027 0,-1.116 -0.904,-2.023 -2.015,-2.023 -1.121,0 -2.034,0.907 -2.034,2.023 0,1.118 0.913,2.027 2.034,2.027"
       id="path965"
       style="stroke-width:0.14951"
       transform="matrix(2.586218,0,0,2.586218,-0.04137949,-0.04137949)" /><path
       clip-path="url(#SVGID_2_)"
       fill="#ffcd00"
       d="m 153.697,30.2 c 1.097,0 2.003,-0.898 2.021,-2.004 0,-1.131 -0.905,-2.053 -2.021,-2.053 -1.119,0 -2.03,0.912 -2.03,2.034 0,1.115 0.911,2.023 2.03,2.023"
       id="path967"
       style="stroke-width:0.14951"
       transform="matrix(2.586218,0,0,2.586218,-0.04137949,-0.04137949)" /><path
       clip-path="url(#SVGID_2_)"
       fill="#ffcd00"
       d="m 206.636,24.901 c 1.119,0 2.028,-0.908 2.028,-2.023 0,-1.117 -0.909,-2.026 -2.028,-2.026 -1.119,0 -2.027,0.909 -2.027,2.026 -0.001,1.115 0.908,2.023 2.027,2.023"
       id="path969"
       style="stroke-width:0.14951"
       transform="matrix(2.586218,0,0,2.586218,-0.04137949,-0.04137949)" /><path
       clip-path="url(#SVGID_2_)"
       fill="#ffcd00"
       d="m 106.052,57.913 c -1.118,0 -2.028,0.908 -2.028,2.024 0,1.119 0.91,2.029 2.028,2.029 1.115,0 2.022,-0.91 2.022,-2.029 0,-1.116 -0.907,-2.024 -2.022,-2.024"
       id="path971"
       style="stroke-width:0.14951"
       transform="matrix(2.586218,0,0,2.586218,-0.04137949,-0.04137949)" /><path
       clip-path="url(#SVGID_2_)"
       fill="#ffcd00"
       d="m 106.052,63.207 c -1.118,0 -2.028,0.909 -2.028,2.025 0,1.118 0.91,2.027 2.028,2.027 1.115,0 2.022,-0.909 2.022,-2.027 0,-1.116 -0.907,-2.025 -2.022,-2.025"
       id="path973"
       style="stroke-width:0.14951"
       transform="matrix(2.586218,0,0,2.586218,-0.04137949,-0.04137949)" /><path
       clip-path="url(#SVGID_2_)"
       fill="#ffcd00"
       d="m 106.052,68.5 c -1.118,0 -2.028,0.909 -2.028,2.026 0,1.116 0.91,2.022 2.028,2.022 1.115,0 2.022,-0.906 2.022,-2.022 0,-1.117 -0.907,-2.026 -2.022,-2.026"
       id="path975"
       style="stroke-width:0.14951"
       transform="matrix(2.586218,0,0,2.586218,-0.04137949,-0.04137949)" /><path
       clip-path="url(#SVGID_2_)"
       fill="#ffcd00"
       d="m 106.052,84.383 c -1.118,0 -2.028,0.908 -2.028,2.024 0,1.12 0.91,2.028 2.028,2.028 1.115,0 2.022,-0.908 2.022,-2.028 0,-1.116 -0.907,-2.024 -2.022,-2.024"
       id="path977"
       style="stroke-width:0.14951"
       transform="matrix(2.586218,0,0,2.586218,-0.04137949,-0.04137949)" /><path
       clip-path="url(#SVGID_2_)"
       fill="#ffcd00"
       d="m 106.052,73.788 c -1.118,0 -2.028,0.909 -2.028,2.028 0,1.119 0.91,2.03 2.028,2.03 1.115,0 2.022,-0.911 2.022,-2.03 0,-1.119 -0.907,-2.028 -2.022,-2.028"
       id="path979"
       style="stroke-width:0.14951"
       transform="matrix(2.586218,0,0,2.586218,-0.04137949,-0.04137949)" /><path
       clip-path="url(#SVGID_2_)"
       fill="#ffcd00"
       d="m 106.052,79.086 c -1.118,0 -2.028,0.909 -2.028,2.025 0,1.12 0.91,2.031 2.028,2.031 1.115,0 2.022,-0.911 2.022,-2.031 0,-1.116 -0.907,-2.025 -2.022,-2.025"
       id="path981"
       style="stroke-width:0.14951"
       transform="matrix(2.586218,0,0,2.586218,-0.04137949,-0.04137949)" /><path
       clip-path="url(#SVGID_2_)"
       fill="#ffcd00"
       d="m 111.342,94.974 c -1.118,0 -2.028,0.909 -2.028,2.023 0,1.118 0.91,2.029 2.028,2.029 1.117,0 2.024,-0.911 2.024,-2.029 0,-1.114 -0.907,-2.023 -2.024,-2.023"
       id="path983"
       style="stroke-width:0.14951"
       transform="matrix(2.586218,0,0,2.586218,-0.04137949,-0.04137949)" /><path
       clip-path="url(#SVGID_2_)"
       fill="#ffcd00"
       d="m 106.052,42.031 c -1.118,0 -2.028,0.907 -2.028,2.021 0,1.118 0.91,2.029 2.028,2.029 1.115,0 2.022,-0.911 2.022,-2.029 0,-1.114 -0.907,-2.021 -2.022,-2.021"
       id="path985"
       style="stroke-width:0.14951"
       transform="matrix(2.586218,0,0,2.586218,-0.04137949,-0.04137949)" /><path
       clip-path="url(#SVGID_2_)"
       fill="#ffcd00"
       d="m 106.052,52.617 c -1.118,0 -2.028,0.909 -2.028,2.027 0,1.117 0.91,2.025 2.028,2.025 1.115,0 2.022,-0.908 2.022,-2.025 0,-1.118 -0.907,-2.027 -2.022,-2.027"
       id="path987"
       style="stroke-width:0.14951"
       transform="matrix(2.586218,0,0,2.586218,-0.04137949,-0.04137949)" /><path
       clip-path="url(#SVGID_2_)"
       fill="#ffcd00"
       d="m 106.052,47.322 c -1.118,0 -2.028,0.907 -2.028,2.022 0,1.118 0.91,2.027 2.028,2.027 1.115,0 2.022,-0.909 2.022,-2.027 0,-1.115 -0.907,-2.022 -2.022,-2.022"
       id="path989"
       style="stroke-width:0.14951"
       transform="matrix(2.586218,0,0,2.586218,-0.04137949,-0.04137949)" /><path
       clip-path="url(#SVGID_2_)"
       fill="#ffcd00"
       d="m 121.931,24.901 c 1.114,0 2.022,-0.908 2.022,-2.023 0,-1.117 -0.908,-2.026 -2.022,-2.026 -1.119,0 -2.028,0.909 -2.028,2.026 -0.001,1.115 0.909,2.023 2.028,2.023"
       id="path991"
       style="stroke-width:0.14951"
       transform="matrix(2.586218,0,0,2.586218,-0.04137949,-0.04137949)" /><path
       clip-path="url(#SVGID_2_)"
       fill="#ffcd00"
       d="m 121.931,35.49 c 1.114,0 2.022,-0.909 2.022,-2.027 0,-1.116 -0.908,-2.023 -2.022,-2.023 -1.119,0 -2.028,0.907 -2.028,2.023 -0.001,1.118 0.909,2.027 2.028,2.027"
       id="path993"
       style="stroke-width:0.14951"
       transform="matrix(2.586218,0,0,2.586218,-0.04137949,-0.04137949)" /><path
       clip-path="url(#SVGID_2_)"
       fill="#ffcd00"
       d="m 121.931,40.786 c 1.114,0 2.022,-0.909 2.022,-2.026 0,-1.116 -0.908,-2.024 -2.022,-2.024 -1.119,0 -2.028,0.908 -2.028,2.024 -0.001,1.116 0.909,2.026 2.028,2.026"
       id="path995"
       style="stroke-width:0.14951"
       transform="matrix(2.586218,0,0,2.586218,-0.04137949,-0.04137949)" /><path
       clip-path="url(#SVGID_2_)"
       fill="#ffcd00"
       d="m 106.052,24.901 c 1.111,0 2.015,-0.908 2.015,-2.023 0,-1.117 -0.904,-2.026 -2.015,-2.026 -1.118,0 -2.028,0.909 -2.028,2.026 0,1.115 0.91,2.023 2.028,2.023"
       id="path997"
       style="stroke-width:0.14951"
       transform="matrix(2.586218,0,0,2.586218,-0.04137949,-0.04137949)" /><path
       clip-path="url(#SVGID_2_)"
       fill="#ffcd00"
       d="m 130.489,38.759 c 0,1.118 0.911,2.026 2.032,2.026 1.113,0 2.021,-0.908 2.021,-2.026 0,-1.116 -0.908,-2.023 -2.021,-2.023 -1.121,0 -2.032,0.908 -2.032,2.023"
       id="path999"
       style="stroke-width:0.14951"
       transform="matrix(2.586218,0,0,2.586218,-0.04137949,-0.04137949)" /><path
       clip-path="url(#SVGID_2_)"
       fill="#ffcd00"
       d="m 121.931,30.2 c 1.114,0 2.022,-0.908 2.022,-2.023 0,-1.122 -0.908,-2.034 -2.022,-2.034 -1.119,0 -2.028,0.912 -2.028,2.034 -0.001,1.115 0.909,2.023 2.028,2.023"
       id="path1001"
       style="stroke-width:0.14951"
       transform="matrix(2.586218,0,0,2.586218,-0.04137949,-0.04137949)" /><path
       clip-path="url(#SVGID_2_)"
       fill="#ffcd00"
       d="m 106.046,30.2 c 1.115,0 2.021,-0.908 2.021,-2.023 0,-1.122 -0.906,-2.034 -2.021,-2.034 -1.114,0 -2.022,0.912 -2.022,2.034 0,1.115 0.909,2.023 2.022,2.023"
       id="path1003"
       style="stroke-width:0.14951"
       transform="matrix(2.586218,0,0,2.586218,-0.04137949,-0.04137949)" /><path
       clip-path="url(#SVGID_2_)"
       fill="#ffcd00"
       d="m 106.046,40.786 c 1.115,0 2.021,-0.909 2.021,-2.026 0,-1.116 -0.906,-2.024 -2.021,-2.024 -1.118,0 -2.027,0.908 -2.027,2.024 10e-4,1.116 0.909,2.026 2.027,2.026"
       id="path1005"
       style="stroke-width:0.14951"
       transform="matrix(2.586218,0,0,2.586218,-0.04137949,-0.04137949)" /><path
       clip-path="url(#SVGID_2_)"
       fill="#ffcd00"
       d="m 106.052,89.673 c -1.118,0 -2.028,0.909 -2.028,2.025 0,1.122 0.91,2.033 2.028,2.033 1.115,0 2.022,-0.911 2.022,-2.033 0,-1.116 -0.907,-2.025 -2.022,-2.025"
       id="path1007"
       style="stroke-width:0.14951"
       transform="matrix(2.586218,0,0,2.586218,-0.04137949,-0.04137949)" /><path
       clip-path="url(#SVGID_2_)"
       fill="#ffcd00"
       d="m 106.052,94.974 c -1.118,0 -2.028,0.909 -2.028,2.023 0,1.118 0.91,2.029 2.028,2.029 1.111,0 2.015,-0.911 2.015,-2.029 0,-1.114 -0.904,-2.023 -2.015,-2.023"
       id="path1009"
       style="stroke-width:0.14951"
       transform="matrix(2.586218,0,0,2.586218,-0.04137949,-0.04137949)" /><path
       clip-path="url(#SVGID_2_)"
       fill="#ffcd00"
       d="m 106.046,35.49 c 1.115,0 2.021,-0.909 2.021,-2.027 0,-1.116 -0.906,-2.023 -2.021,-2.023 -1.118,0 -2.027,0.907 -2.027,2.023 10e-4,1.118 0.909,2.027 2.027,2.027"
       id="path1011"
       style="stroke-width:0.14951"
       transform="matrix(2.586218,0,0,2.586218,-0.04137949,-0.04137949)" /><path
       clip-path="url(#SVGID_2_)"
       fill="#ffcd00"
       d="m 127.224,26.144 c -1.116,0 -2.025,0.912 -2.025,2.033 0,1.116 0.909,2.024 2.025,2.024 1.101,0 2.012,-0.9 2.028,-2.008 0,-1.13 -0.909,-2.049 -2.028,-2.049"
       id="path1013"
       style="stroke-width:0.14951"
       transform="matrix(2.586218,0,0,2.586218,-0.04137949,-0.04137949)" /><path
       clip-path="url(#SVGID_2_)"
       fill="#ffcd00"
       d="m 153.697,73.788 c -1.119,0 -2.03,0.909 -2.03,2.028 0,1.119 0.911,2.03 2.03,2.03 1.119,0 2.028,-0.911 2.028,-2.03 0,-1.119 -0.909,-2.028 -2.028,-2.028"
       id="path1015"
       style="stroke-width:0.14951"
       transform="matrix(2.586218,0,0,2.586218,-0.04137949,-0.04137949)" /><path
       clip-path="url(#SVGID_2_)"
       fill="#ffcd00"
       d="m 153.697,79.086 c -1.119,0 -2.03,0.909 -2.03,2.025 0,1.12 0.911,2.031 2.03,2.031 1.119,0 2.028,-0.911 2.028,-2.031 0.001,-1.116 -0.909,-2.025 -2.028,-2.025"
       id="path1017"
       style="stroke-width:0.14951"
       transform="matrix(2.586218,0,0,2.586218,-0.04137949,-0.04137949)" /><path
       clip-path="url(#SVGID_2_)"
       fill="#ffcd00"
       d="m 153.697,84.383 c -1.119,0 -2.03,0.91 -2.03,2.031 0,1.114 0.911,2.024 2.03,2.024 1.119,0 2.028,-0.91 2.028,-2.024 0.001,-1.121 -0.909,-2.031 -2.028,-2.031"
       id="path1019"
       style="stroke-width:0.14951"
       transform="matrix(2.586218,0,0,2.586218,-0.04137949,-0.04137949)" /><path
       clip-path="url(#SVGID_2_)"
       fill="#ffcd00"
       d="m 153.697,89.673 c -1.119,0 -2.03,0.909 -2.03,2.025 0,1.122 0.911,2.033 2.03,2.033 1.119,0 2.028,-0.911 2.028,-2.033 0.001,-1.116 -0.909,-2.025 -2.028,-2.025"
       id="path1021"
       style="stroke-width:0.14951"
       transform="matrix(2.586218,0,0,2.586218,-0.04137949,-0.04137949)" /><path
       clip-path="url(#SVGID_2_)"
       fill="#ffcd00"
       d="m 153.69,94.974 c -1.119,0 -2.027,0.909 -2.027,2.023 0,1.118 0.908,2.029 2.027,2.029 1.119,0 2.028,-0.911 2.028,-2.029 0.001,-1.114 -0.908,-2.023 -2.028,-2.023"
       id="path1023"
       style="stroke-width:0.14951"
       transform="matrix(2.586218,0,0,2.586218,-0.04137949,-0.04137949)" /><path
       clip-path="url(#SVGID_2_)"
       fill="#ffcd00"
       d="m 153.697,68.5 c -1.119,0 -2.03,0.909 -2.03,2.026 0,1.116 0.911,2.022 2.03,2.022 1.119,0 2.028,-0.906 2.028,-2.022 0.001,-1.117 -0.909,-2.026 -2.028,-2.026"
       id="path1025"
       style="stroke-width:0.14951"
       transform="matrix(2.586218,0,0,2.586218,-0.04137949,-0.04137949)" /><path
       clip-path="url(#SVGID_2_)"
       fill="#ffcd00"
       d="m 148.399,20.852 c -1.116,0 -2.025,0.909 -2.025,2.026 0,1.115 0.909,2.023 2.025,2.023 1.119,0 2.028,-0.908 2.028,-2.023 0.001,-1.117 -0.908,-2.026 -2.028,-2.026"
       id="path1027"
       style="stroke-width:0.14951"
       transform="matrix(2.586218,0,0,2.586218,-0.04137949,-0.04137949)" /><path
       clip-path="url(#SVGID_2_)"
       fill="#ffcd00"
       d="m 153.697,52.617 c -1.119,0 -2.03,0.909 -2.03,2.027 0,1.117 0.911,2.025 2.03,2.025 1.119,0 2.028,-0.908 2.028,-2.025 0.001,-1.118 -0.909,-2.027 -2.028,-2.027"
       id="path1029"
       style="stroke-width:0.14951"
       transform="matrix(2.586218,0,0,2.586218,-0.04137949,-0.04137949)" /><path
       clip-path="url(#SVGID_2_)"
       fill="#ffcd00"
       d="m 153.697,57.913 c -1.119,0 -2.03,0.908 -2.03,2.024 0,1.119 0.911,2.029 2.03,2.029 1.119,0 2.028,-0.91 2.028,-2.029 0.001,-1.116 -0.909,-2.024 -2.028,-2.024"
       id="path1031"
       style="stroke-width:0.14951"
       transform="matrix(2.586218,0,0,2.586218,-0.04137949,-0.04137949)" /><path
       clip-path="url(#SVGID_2_)"
       fill="#ffcd00"
       d="m 153.697,63.207 c -1.119,0 -2.03,0.909 -2.03,2.025 0,1.118 0.911,2.027 2.03,2.027 1.119,0 2.028,-0.909 2.028,-2.027 0.001,-1.116 -0.909,-2.025 -2.028,-2.025"
       id="path1033"
       style="stroke-width:0.14951"
       transform="matrix(2.586218,0,0,2.586218,-0.04137949,-0.04137949)" /><path
       clip-path="url(#SVGID_2_)"
       fill="#ffcd00"
       d="m 153.697,47.322 c -1.119,0 -2.03,0.907 -2.03,2.022 0,1.118 0.911,2.027 2.03,2.027 1.119,0 2.028,-0.909 2.028,-2.027 0.001,-1.115 -0.909,-2.022 -2.028,-2.022"
       id="path1035"
       style="stroke-width:0.14951"
       transform="matrix(2.586218,0,0,2.586218,-0.04137949,-0.04137949)" /><path
       clip-path="url(#SVGID_2_)"
       fill="#ffcd00"
       d="m 148.406,63.207 c -1.119,0 -2.028,0.909 -2.028,2.025 0,1.118 0.909,2.027 2.028,2.027 1.114,0 2.021,-0.909 2.021,-2.027 0,-1.116 -0.906,-2.025 -2.021,-2.025"
       id="path1037"
       style="stroke-width:0.14951"
       transform="matrix(2.586218,0,0,2.586218,-0.04137949,-0.04137949)" /><path
       clip-path="url(#SVGID_2_)"
       fill="#ffcd00"
       d="m 148.406,57.913 c -1.119,0 -2.028,0.908 -2.028,2.024 0,1.119 0.909,2.029 2.028,2.029 1.114,0 2.021,-0.91 2.021,-2.029 0,-1.116 -0.906,-2.024 -2.021,-2.024"
       id="path1039"
       style="stroke-width:0.14951"
       transform="matrix(2.586218,0,0,2.586218,-0.04137949,-0.04137949)" /><path
       clip-path="url(#SVGID_2_)"
       fill="#ffcd00"
       d="m 148.406,68.5 c -1.119,0 -2.028,0.909 -2.028,2.026 0,1.116 0.909,2.022 2.028,2.022 1.114,0 2.021,-0.906 2.021,-2.022 0,-1.117 -0.906,-2.026 -2.021,-2.026"
       id="path1041"
       style="stroke-width:0.14951"
       transform="matrix(2.586218,0,0,2.586218,-0.04137949,-0.04137949)" /><path
       clip-path="url(#SVGID_2_)"
       fill="#ffcd00"
       d="m 148.406,73.788 c -1.119,0 -2.028,0.909 -2.028,2.028 0,1.119 0.909,2.03 2.028,2.03 1.114,0 2.021,-0.911 2.021,-2.03 0,-1.119 -0.906,-2.028 -2.021,-2.028"
       id="path1043"
       style="stroke-width:0.14951"
       transform="matrix(2.586218,0,0,2.586218,-0.04137949,-0.04137949)" /><path
       clip-path="url(#SVGID_2_)"
       fill="#ffcd00"
       d="m 127.224,68.5 c -1.119,0 -2.03,0.909 -2.03,2.026 0,1.116 0.911,2.022 2.03,2.022 1.119,0 2.028,-0.906 2.028,-2.022 0,-1.117 -0.909,-2.026 -2.028,-2.026"
       id="path1045"
       style="stroke-width:0.14951"
       transform="matrix(2.586218,0,0,2.586218,-0.04137949,-0.04137949)" /><path
       clip-path="url(#SVGID_2_)"
       fill="#ffcd00"
       d="m 148.399,31.44 c -1.116,0 -2.025,0.907 -2.025,2.023 0,1.118 0.909,2.027 2.025,2.027 1.119,0 2.028,-0.909 2.028,-2.027 0.001,-1.115 -0.908,-2.023 -2.028,-2.023"
       id="path1047"
       style="stroke-width:0.14951"
       transform="matrix(2.586218,0,0,2.586218,-0.04137949,-0.04137949)" /><path
       clip-path="url(#SVGID_2_)"
       fill="#ffcd00"
       d="m 148.406,47.322 c -1.119,0 -2.028,0.907 -2.028,2.022 0,1.118 0.909,2.027 2.028,2.027 1.114,0 2.021,-0.909 2.021,-2.027 0,-1.115 -0.906,-2.022 -2.021,-2.022"
       id="path1049"
       style="stroke-width:0.14951"
       transform="matrix(2.586218,0,0,2.586218,-0.04137949,-0.04137949)" /><path
       clip-path="url(#SVGID_2_)"
       fill="#ffcd00"
       d="m 148.406,36.736 c -1.119,0 -2.028,0.908 -2.028,2.023 0,1.118 0.909,2.027 2.028,2.027 1.114,0 2.021,-0.909 2.021,-2.027 0,-1.115 -0.906,-2.023 -2.021,-2.023"
       id="path1051"
       style="stroke-width:0.14951"
       transform="matrix(2.586218,0,0,2.586218,-0.04137949,-0.04137949)" /><path
       clip-path="url(#SVGID_2_)"
       fill="#ffcd00"
       d="m 148.399,26.144 c -1.116,0 -2.025,0.912 -2.025,2.033 0,1.116 0.909,2.024 2.025,2.024 1.119,0 2.028,-0.908 2.028,-2.024 0.001,-1.121 -0.908,-2.033 -2.028,-2.033"
       id="path1053"
       style="stroke-width:0.14951"
       transform="matrix(2.586218,0,0,2.586218,-0.04137949,-0.04137949)" /><path
       clip-path="url(#SVGID_2_)"
       fill="#ffcd00"
       d="m 148.406,42.031 c -1.119,0 -2.028,0.907 -2.028,2.021 0,1.118 0.909,2.029 2.028,2.029 1.114,0 2.021,-0.911 2.021,-2.029 0,-1.114 -0.906,-2.021 -2.021,-2.021"
       id="path1055"
       style="stroke-width:0.14951"
       transform="matrix(2.586218,0,0,2.586218,-0.04137949,-0.04137949)" /><path
       clip-path="url(#SVGID_2_)"
       fill="#ffcd00"
       d="m 190.754,94.974 c -1.117,0 -2.025,0.909 -2.025,2.023 0,1.118 0.908,2.029 2.025,2.029 1.114,0 2.022,-0.911 2.022,-2.029 0,-1.114 -0.908,-2.023 -2.022,-2.023"
       id="path1057"
       style="stroke-width:0.14951"
       transform="matrix(2.586218,0,0,2.586218,-0.04137949,-0.04137949)" /><path
       clip-path="url(#SVGID_2_)"
       fill="#ffcd00"
       d="m 206.636,73.788 c -1.119,0 -2.027,0.909 -2.027,2.028 0,1.119 0.908,2.03 2.027,2.03 1.122,0 2.035,-0.911 2.035,-2.03 0,-1.119 -0.913,-2.028 -2.035,-2.028"
       id="path1059"
       style="stroke-width:0.14951"
       transform="matrix(2.586218,0,0,2.586218,-0.04137949,-0.04137949)" /><path
       clip-path="url(#SVGID_2_)"
       fill="#ffcd00"
       d="m 206.636,94.974 c -1.119,0 -2.027,0.909 -2.027,2.023 0,1.118 0.908,2.029 2.027,2.029 1.119,0 2.028,-0.911 2.028,-2.029 0,-1.114 -0.909,-2.023 -2.028,-2.023"
       id="path1061"
       style="stroke-width:0.14951"
       transform="matrix(2.586218,0,0,2.586218,-0.04137949,-0.04137949)" /><path
       clip-path="url(#SVGID_2_)"
       fill="#ffcd00"
       d="m 206.636,89.673 c -1.119,0 -2.027,0.909 -2.027,2.025 0,1.122 0.908,2.033 2.027,2.033 1.122,0 2.035,-0.911 2.035,-2.033 0,-1.116 -0.913,-2.025 -2.035,-2.025"
       id="path1063"
       style="stroke-width:0.14951"
       transform="matrix(2.586218,0,0,2.586218,-0.04137949,-0.04137949)" /><path
       clip-path="url(#SVGID_2_)"
       fill="#ffcd00"
       d="m 206.636,84.383 c -1.119,0 -2.027,0.908 -2.027,2.024 0,1.12 0.908,2.028 2.027,2.028 1.122,0 2.035,-0.908 2.035,-2.028 0,-1.116 -0.913,-2.024 -2.035,-2.024"
       id="path1065"
       style="stroke-width:0.14951"
       transform="matrix(2.586218,0,0,2.586218,-0.04137949,-0.04137949)" /><path
       clip-path="url(#SVGID_2_)"
       fill="#ffcd00"
       d="m 206.636,68.5 c -1.119,0 -2.027,0.909 -2.027,2.026 0,1.116 0.908,2.022 2.027,2.022 1.122,0 2.035,-0.906 2.035,-2.022 0,-1.117 -0.913,-2.026 -2.035,-2.026"
       id="path1067"
       style="stroke-width:0.14951"
       transform="matrix(2.586218,0,0,2.586218,-0.04137949,-0.04137949)" /><path
       clip-path="url(#SVGID_2_)"
       fill="#ffcd00"
       d="m 206.636,79.086 c -1.119,0 -2.027,0.909 -2.027,2.025 0,1.12 0.908,2.031 2.027,2.031 1.122,0 2.035,-0.911 2.035,-2.031 0,-1.116 -0.913,-2.025 -2.035,-2.025"
       id="path1069"
       style="stroke-width:0.14951"
       transform="matrix(2.586218,0,0,2.586218,-0.04137949,-0.04137949)" /><path
       clip-path="url(#SVGID_2_)"
       fill="#ffcd00"
       d="m 206.636,63.207 c -1.119,0 -2.027,0.909 -2.027,2.025 0,1.118 0.908,2.027 2.027,2.027 1.122,0 2.035,-0.909 2.035,-2.027 0,-1.116 -0.913,-2.025 -2.035,-2.025"
       id="path1071"
       style="stroke-width:0.14951"
       transform="matrix(2.586218,0,0,2.586218,-0.04137949,-0.04137949)" /><path
       clip-path="url(#SVGID_2_)"
       fill="#ffcd00"
       d="m 206.636,52.617 c -1.119,0 -2.027,0.909 -2.027,2.027 0,1.117 0.908,2.025 2.027,2.025 1.122,0 2.035,-0.908 2.035,-2.025 0,-1.118 -0.913,-2.027 -2.035,-2.027"
       id="path1073"
       style="stroke-width:0.14951"
       transform="matrix(2.586218,0,0,2.586218,-0.04137949,-0.04137949)" /><path
       clip-path="url(#SVGID_2_)"
       fill="#ffcd00"
       d="m 206.636,47.322 c -1.119,0 -2.027,0.907 -2.027,2.022 0,1.118 0.908,2.027 2.027,2.027 1.122,0 2.035,-0.909 2.035,-2.027 0,-1.115 -0.913,-2.022 -2.035,-2.022"
       id="path1075"
       style="stroke-width:0.14951"
       transform="matrix(2.586218,0,0,2.586218,-0.04137949,-0.04137949)" /><path
       clip-path="url(#SVGID_2_)"
       fill="#ffcd00"
       d="m 206.636,57.913 c -1.119,0 -2.027,0.908 -2.027,2.024 0,1.119 0.908,2.029 2.027,2.029 1.122,0 2.035,-0.91 2.035,-2.029 0,-1.116 -0.913,-2.024 -2.035,-2.024"
       id="path1077"
       style="stroke-width:0.14951"
       transform="matrix(2.586218,0,0,2.586218,-0.04137949,-0.04137949)" /><path
       clip-path="url(#SVGID_2_)"
       fill="#ffcd00"
       d="m 148.406,79.086 c -1.119,0 -2.028,0.909 -2.028,2.025 0,1.12 0.909,2.031 2.028,2.031 1.114,0 2.021,-0.911 2.021,-2.031 0,-1.116 -0.906,-2.025 -2.021,-2.025"
       id="path1079"
       style="stroke-width:0.14951"
       transform="matrix(2.586218,0,0,2.586218,-0.04137949,-0.04137949)" /><path
       clip-path="url(#SVGID_2_)"
       fill="#ffcd00"
       d="m 164.279,94.974 c -1.114,0 -2.023,0.909 -2.023,2.023 0,1.118 0.909,2.029 2.023,2.029 1.119,0 2.03,-0.911 2.03,-2.029 0.001,-1.114 -0.911,-2.023 -2.03,-2.023"
       id="path1081"
       style="stroke-width:0.14951"
       transform="matrix(2.586218,0,0,2.586218,-0.04137949,-0.04137949)" /><path
       clip-path="url(#SVGID_2_)"
       fill="#ffcd00"
       d="m 174.869,94.974 c -1.114,0 -2.021,0.909 -2.021,2.023 0,1.118 0.907,2.029 2.021,2.029 1.118,0 2.027,-0.911 2.027,-2.029 0,-1.114 -0.909,-2.023 -2.027,-2.023"
       id="path1083"
       style="stroke-width:0.14951"
       transform="matrix(2.586218,0,0,2.586218,-0.04137949,-0.04137949)" /><path
       clip-path="url(#SVGID_2_)"
       fill="#ffcd00"
       d="m 169.578,94.974 c -1.117,0 -2.026,0.909 -2.026,2.023 0,1.118 0.909,2.029 2.026,2.029 1.114,0 2.021,-0.911 2.021,-2.029 0.001,-1.114 -0.907,-2.023 -2.021,-2.023"
       id="path1085"
       style="stroke-width:0.14951"
       transform="matrix(2.586218,0,0,2.586218,-0.04137949,-0.04137949)" /><path
       clip-path="url(#SVGID_2_)"
       fill="#ffcd00"
       d="m 153.697,36.736 c -1.119,0 -2.03,0.908 -2.03,2.023 0,1.118 0.911,2.027 2.03,2.027 1.119,0 2.028,-0.909 2.028,-2.027 0.001,-1.115 -0.909,-2.023 -2.028,-2.023"
       id="path1087"
       style="stroke-width:0.14951"
       transform="matrix(2.586218,0,0,2.586218,-0.04137949,-0.04137949)" /><path
       clip-path="url(#SVGID_2_)"
       fill="#ffcd00"
       d="m 158.986,94.974 c -1.117,0 -2.025,0.909 -2.025,2.023 0,1.118 0.908,2.029 2.025,2.029 1.121,0 2.032,-0.911 2.032,-2.029 0.001,-1.114 -0.911,-2.023 -2.032,-2.023"
       id="path1089"
       style="stroke-width:0.14951"
       transform="matrix(2.586218,0,0,2.586218,-0.04137949,-0.04137949)" /><path
       clip-path="url(#SVGID_2_)"
       fill="#ffcd00"
       d="m 201.345,94.974 c -1.114,0 -2.023,0.909 -2.023,2.023 0,1.118 0.909,2.029 2.023,2.029 1.119,0 2.028,-0.911 2.028,-2.029 0,-1.114 -0.909,-2.023 -2.028,-2.023"
       id="path1091"
       style="stroke-width:0.14951"
       transform="matrix(2.586218,0,0,2.586218,-0.04137949,-0.04137949)" /><path
       clip-path="url(#SVGID_2_)"
       fill="#ffcd00"
       d="m 153.697,42.031 c -1.119,0 -2.03,0.907 -2.03,2.021 0,1.118 0.911,2.029 2.03,2.029 1.119,0 2.028,-0.911 2.028,-2.029 0.001,-1.114 -0.909,-2.021 -2.028,-2.021"
       id="path1093"
       style="stroke-width:0.14951"
       transform="matrix(2.586218,0,0,2.586218,-0.04137949,-0.04137949)" /><path
       clip-path="url(#SVGID_2_)"
       fill="#ffcd00"
       d="m 180.164,94.974 c -1.116,0 -2.025,0.909 -2.025,2.023 0,1.118 0.909,2.029 2.025,2.029 1.115,0 2.023,-0.911 2.023,-2.029 10e-4,-1.114 -0.908,-2.023 -2.023,-2.023"
       id="path1095"
       style="stroke-width:0.14951"
       transform="matrix(2.586218,0,0,2.586218,-0.04137949,-0.04137949)" /><path
       clip-path="url(#SVGID_2_)"
       fill="#ffcd00"
       d="m 196.045,94.974 c -1.117,0 -2.025,0.909 -2.025,2.023 0,1.118 0.908,2.029 2.025,2.029 1.119,0 2.03,-0.911 2.03,-2.029 0,-1.114 -0.911,-2.023 -2.03,-2.023"
       id="path1097"
       style="stroke-width:0.14951"
       transform="matrix(2.586218,0,0,2.586218,-0.04137949,-0.04137949)" /><path
       clip-path="url(#SVGID_2_)"
       fill="#ffcd00"
       d="m 185.463,94.974 c -1.122,0 -2.033,0.909 -2.033,2.023 0,1.118 0.911,2.029 2.033,2.029 1.112,0 2.016,-0.911 2.016,-2.029 0,-1.114 -0.904,-2.023 -2.016,-2.023"
       id="path1099"
       style="stroke-width:0.14951"
       transform="matrix(2.586218,0,0,2.586218,-0.04137949,-0.04137949)" /><path
       clip-path="url(#SVGID_2_)"
       fill="#ffcd00"
       d="m 148.406,52.617 c -1.119,0 -2.028,0.909 -2.028,2.027 0,1.117 0.909,2.025 2.028,2.025 1.114,0 2.021,-0.908 2.021,-2.025 0,-1.118 -0.906,-2.027 -2.021,-2.027"
       id="path1101"
       style="stroke-width:0.14951"
       transform="matrix(2.586218,0,0,2.586218,-0.04137949,-0.04137949)" /><path
       clip-path="url(#SVGID_2_)"
       fill="#ffcd00"
       d="m 132.521,63.207 c -1.121,0 -2.032,0.909 -2.032,2.025 0,1.118 0.911,2.027 2.032,2.027 1.114,0 2.021,-0.909 2.021,-2.027 0.001,-1.116 -0.906,-2.025 -2.021,-2.025"
       id="path1103"
       style="stroke-width:0.14951"
       transform="matrix(2.586218,0,0,2.586218,-0.04137949,-0.04137949)" /><path
       clip-path="url(#SVGID_2_)"
       fill="#ffcd00"
       d="m 132.521,57.913 c -1.121,0 -2.032,0.908 -2.032,2.024 0,1.119 0.911,2.029 2.032,2.029 1.114,0 2.021,-0.91 2.021,-2.029 0.001,-1.116 -0.906,-2.024 -2.021,-2.024"
       id="path1105"
       style="stroke-width:0.14951"
       transform="matrix(2.586218,0,0,2.586218,-0.04137949,-0.04137949)" /><path
       clip-path="url(#SVGID_2_)"
       fill="#ffcd00"
       d="m 132.521,68.5 c -1.121,0 -2.032,0.909 -2.032,2.026 0,1.116 0.911,2.022 2.032,2.022 1.114,0 2.021,-0.906 2.021,-2.022 0.001,-1.117 -0.906,-2.026 -2.021,-2.026"
       id="path1107"
       style="stroke-width:0.14951"
       transform="matrix(2.586218,0,0,2.586218,-0.04137949,-0.04137949)" /><path
       clip-path="url(#SVGID_2_)"
       fill="#ffcd00"
       d="m 132.521,84.383 c -1.123,0 -2.037,0.908 -2.037,2.024 0,1.12 0.914,2.028 2.037,2.028 1.114,0 2.021,-0.908 2.021,-2.028 0.001,-1.116 -0.906,-2.024 -2.021,-2.024"
       id="path1109"
       style="stroke-width:0.14951"
       transform="matrix(2.586218,0,0,2.586218,-0.04137949,-0.04137949)" /><path
       clip-path="url(#SVGID_2_)"
       fill="#ffcd00"
       d="m 132.521,79.086 c -1.121,0 -2.032,0.909 -2.032,2.025 0,1.12 0.911,2.031 2.032,2.031 1.114,0 2.021,-0.911 2.021,-2.031 0.001,-1.116 -0.906,-2.025 -2.021,-2.025"
       id="path1111"
       style="stroke-width:0.14951"
       transform="matrix(2.586218,0,0,2.586218,-0.04137949,-0.04137949)" /><path
       clip-path="url(#SVGID_2_)"
       fill="#ffcd00"
       d="m 148.406,84.383 c -1.119,0 -2.028,0.91 -2.028,2.031 0,1.114 0.909,2.024 2.028,2.024 1.114,0 2.021,-0.91 2.021,-2.024 0,-1.121 -0.906,-2.031 -2.021,-2.031"
       id="path1113"
       style="stroke-width:0.14951"
       transform="matrix(2.586218,0,0,2.586218,-0.04137949,-0.04137949)" /><path
       clip-path="url(#SVGID_2_)"
       fill="#ffcd00"
       d="m 137.817,83.143 c 1.112,0 2.019,-0.911 2.019,-2.03 0,-1.117 -0.906,-2.026 -2.019,-2.026 -1.121,0 -2.032,0.909 -2.032,2.026 0,1.118 0.911,2.03 2.032,2.03"
       id="path1115"
       style="stroke-width:0.14951"
       transform="matrix(2.586218,0,0,2.586218,-0.04137949,-0.04137949)" /><path
       clip-path="url(#SVGID_2_)"
       fill="#ffcd00"
       d="m 132.521,42.031 c -1.121,0 -2.032,0.907 -2.032,2.021 0,1.118 0.911,2.029 2.032,2.029 1.119,0 2.028,-0.911 2.028,-2.029 0.001,-1.114 -0.908,-2.021 -2.028,-2.021"
       id="path1117"
       style="stroke-width:0.14951"
       transform="matrix(2.586218,0,0,2.586218,-0.04137949,-0.04137949)" /><path
       clip-path="url(#SVGID_2_)"
       fill="#ffcd00"
       d="m 132.521,51.371 c 1.114,0 2.021,-0.909 2.021,-2.027 0,-1.115 -0.907,-2.022 -2.021,-2.022 -1.121,0 -2.032,0.907 -2.032,2.022 0,1.117 0.911,2.027 2.032,2.027"
       id="path1119"
       style="stroke-width:0.14951"
       transform="matrix(2.586218,0,0,2.586218,-0.04137949,-0.04137949)" /><path
       clip-path="url(#SVGID_2_)"
       fill="#ffcd00"
       d="m 132.521,52.617 c -1.121,0 -2.032,0.909 -2.032,2.027 0,1.117 0.911,2.025 2.032,2.025 1.119,0 2.028,-0.908 2.028,-2.025 0.001,-1.118 -0.908,-2.027 -2.028,-2.027"
       id="path1121"
       style="stroke-width:0.14951"
       transform="matrix(2.586218,0,0,2.586218,-0.04137949,-0.04137949)" /><path
       clip-path="url(#SVGID_2_)"
       fill="#ffcd00"
       d="m 127.224,35.49 c 1.114,0 2.021,-0.909 2.021,-2.027 0,-1.116 -0.906,-2.023 -2.021,-2.023 -1.116,0 -2.025,0.907 -2.025,2.023 -0.001,1.118 0.908,2.027 2.025,2.027"
       id="path1123"
       style="stroke-width:0.14951"
       transform="matrix(2.586218,0,0,2.586218,-0.04137949,-0.04137949)" /><path
       clip-path="url(#SVGID_2_)"
       fill="#ffcd00"
       d="m 127.224,42.031 c -1.119,0 -2.03,0.907 -2.03,2.021 0,1.118 0.911,2.029 2.03,2.029 1.119,0 2.028,-0.911 2.028,-2.029 0,-1.114 -0.909,-2.021 -2.028,-2.021"
       id="path1125"
       style="stroke-width:0.14951"
       transform="matrix(2.586218,0,0,2.586218,-0.04137949,-0.04137949)" /><path
       clip-path="url(#SVGID_2_)"
       fill="#ffcd00"
       d="m 127.224,47.322 c -1.119,0 -2.03,0.907 -2.03,2.022 0,1.118 0.911,2.027 2.03,2.027 1.119,0 2.028,-0.909 2.028,-2.027 0,-1.115 -0.909,-2.022 -2.028,-2.022"
       id="path1127"
       style="stroke-width:0.14951"
       transform="matrix(2.586218,0,0,2.586218,-0.04137949,-0.04137949)" /><path
       clip-path="url(#SVGID_2_)"
       fill="#ffcd00"
       d="m 127.224,52.617 c -1.119,0 -2.03,0.909 -2.03,2.027 0,1.117 0.911,2.025 2.03,2.025 1.119,0 2.028,-0.908 2.028,-2.025 0,-1.118 -0.909,-2.027 -2.028,-2.027"
       id="path1129"
       style="stroke-width:0.14951"
       transform="matrix(2.586218,0,0,2.586218,-0.04137949,-0.04137949)" /><path
       clip-path="url(#SVGID_2_)"
       fill="#ffcd00"
       d="m 127.224,63.207 c -1.119,0 -2.03,0.909 -2.03,2.025 0,1.118 0.911,2.027 2.03,2.027 1.119,0 2.028,-0.909 2.028,-2.027 0,-1.116 -0.909,-2.025 -2.028,-2.025"
       id="path1131"
       style="stroke-width:0.14951"
       transform="matrix(2.586218,0,0,2.586218,-0.04137949,-0.04137949)" /><path
       clip-path="url(#SVGID_2_)"
       fill="#ffcd00"
       d="m 127.224,57.913 c -1.119,0 -2.03,0.908 -2.03,2.024 0,1.119 0.911,2.029 2.03,2.029 1.119,0 2.028,-0.91 2.028,-2.029 0,-1.116 -0.909,-2.024 -2.028,-2.024"
       id="path1133"
       style="stroke-width:0.14951"
       transform="matrix(2.586218,0,0,2.586218,-0.04137949,-0.04137949)" /><path
       clip-path="url(#SVGID_2_)"
       fill="#ffcd00"
       d="m 137.817,94.974 c -1.119,0 -2.028,0.909 -2.028,2.023 0,1.118 0.909,2.029 2.028,2.029 1.114,0 2.023,-0.911 2.023,-2.029 0.001,-1.114 -0.908,-2.023 -2.023,-2.023"
       id="path1135"
       style="stroke-width:0.14951"
       transform="matrix(2.586218,0,0,2.586218,-0.04137949,-0.04137949)" /><path
       clip-path="url(#SVGID_2_)"
       fill="#ffcd00"
       d="m 127.224,20.852 c -1.116,0 -2.025,0.909 -2.025,2.026 0,1.115 0.909,2.023 2.025,2.023 1.119,0 2.028,-0.908 2.028,-2.023 0,-1.117 -0.909,-2.026 -2.028,-2.026"
       id="path1137"
       style="stroke-width:0.14951"
       transform="matrix(2.586218,0,0,2.586218,-0.04137949,-0.04137949)" /><path
       clip-path="url(#SVGID_2_)"
       fill="#ffcd00"
       d="m 132.521,94.974 c -1.123,0 -2.037,0.909 -2.037,2.023 0,1.118 0.914,2.029 2.037,2.029 1.114,0 2.021,-0.911 2.021,-2.029 0.001,-1.114 -0.906,-2.023 -2.021,-2.023"
       id="path1139"
       style="stroke-width:0.14951"
       transform="matrix(2.586218,0,0,2.586218,-0.04137949,-0.04137949)" /><path
       clip-path="url(#SVGID_2_)"
       fill="#ffcd00"
       d="m 127.224,36.736 c -1.119,0 -2.03,0.908 -2.03,2.023 0,1.118 0.911,2.027 2.03,2.027 1.119,0 2.028,-0.909 2.028,-2.027 0,-1.115 -0.909,-2.023 -2.028,-2.023"
       id="path1141"
       style="stroke-width:0.14951"
       transform="matrix(2.586218,0,0,2.586218,-0.04137949,-0.04137949)" /><path
       clip-path="url(#SVGID_2_)"
       fill="#ffcd00"
       d="m 132.521,89.673 c -1.123,0 -2.037,0.909 -2.037,2.025 0,1.122 0.914,2.033 2.037,2.033 1.114,0 2.021,-0.911 2.021,-2.033 0.001,-1.116 -0.906,-2.025 -2.021,-2.025"
       id="path1143"
       style="stroke-width:0.14951"
       transform="matrix(2.586218,0,0,2.586218,-0.04137949,-0.04137949)" /><path
       clip-path="url(#SVGID_2_)"
       fill="#ffcd00"
       d="m 132.521,73.788 c -1.121,0 -2.032,0.909 -2.032,2.028 0,1.119 0.911,2.03 2.032,2.03 1.114,0 2.021,-0.911 2.021,-2.03 0,-1.119 -0.906,-2.028 -2.021,-2.028"
       id="path1145"
       style="stroke-width:0.14951"
       transform="matrix(2.586218,0,0,2.586218,-0.04137949,-0.04137949)" /><path
       clip-path="url(#SVGID_2_)"
       fill="#ffcd00"
       d="m 143.115,57.913 c -1.119,0 -2.03,0.908 -2.03,2.024 0,1.119 0.911,2.029 2.03,2.029 1.114,0 2.021,-0.91 2.021,-2.029 0,-1.116 -0.907,-2.024 -2.021,-2.024"
       id="path1147"
       style="stroke-width:0.14951"
       transform="matrix(2.586218,0,0,2.586218,-0.04137949,-0.04137949)" /><path
       clip-path="url(#SVGID_2_)"
       fill="#ffcd00"
       d="m 143.115,63.207 c -1.119,0 -2.03,0.909 -2.03,2.025 0,1.118 0.911,2.027 2.03,2.027 1.114,0 2.021,-0.909 2.021,-2.027 0,-1.116 -0.907,-2.025 -2.021,-2.025"
       id="path1149"
       style="stroke-width:0.14951"
       transform="matrix(2.586218,0,0,2.586218,-0.04137949,-0.04137949)" /><path
       clip-path="url(#SVGID_2_)"
       fill="#ffcd00"
       d="m 143.115,73.788 c -1.119,0 -2.03,0.909 -2.03,2.028 0,1.119 0.911,2.03 2.03,2.03 1.114,0 2.021,-0.911 2.021,-2.03 0,-1.119 -0.907,-2.028 -2.021,-2.028"
       id="path1151"
       style="stroke-width:0.14951"
       transform="matrix(2.586218,0,0,2.586218,-0.04137949,-0.04137949)" /><path
       clip-path="url(#SVGID_2_)"
       fill="#ffcd00"
       d="m 143.115,52.617 c -1.119,0 -2.03,0.909 -2.03,2.027 0,1.117 0.911,2.025 2.03,2.025 1.114,0 2.021,-0.908 2.021,-2.025 0,-1.118 -0.907,-2.027 -2.021,-2.027"
       id="path1153"
       style="stroke-width:0.14951"
       transform="matrix(2.586218,0,0,2.586218,-0.04137949,-0.04137949)" /><path
       clip-path="url(#SVGID_2_)"
       fill="#ffcd00"
       d="m 143.115,68.5 c -1.119,0 -2.03,0.909 -2.03,2.026 0,1.116 0.911,2.022 2.03,2.022 1.114,0 2.021,-0.906 2.021,-2.022 0,-1.117 -0.907,-2.026 -2.021,-2.026"
       id="path1155"
       style="stroke-width:0.14951"
       transform="matrix(2.586218,0,0,2.586218,-0.04137949,-0.04137949)" /><path
       clip-path="url(#SVGID_2_)"
       fill="#ffcd00"
       d="m 148.399,94.974 c -1.116,0 -2.025,0.909 -2.025,2.023 0,1.118 0.909,2.029 2.025,2.029 1.119,0 2.028,-0.911 2.028,-2.029 0.001,-1.114 -0.908,-2.023 -2.028,-2.023"
       id="path1157"
       style="stroke-width:0.14951"
       transform="matrix(2.586218,0,0,2.586218,-0.04137949,-0.04137949)" /><path
       clip-path="url(#SVGID_2_)"
       fill="#ffcd00"
       d="m 143.115,79.086 c -1.119,0 -2.03,0.909 -2.03,2.025 0,1.12 0.911,2.031 2.03,2.031 1.114,0 2.021,-0.911 2.021,-2.031 0,-1.116 -0.907,-2.025 -2.021,-2.025"
       id="path1159"
       style="stroke-width:0.14951"
       transform="matrix(2.586218,0,0,2.586218,-0.04137949,-0.04137949)" /><path
       clip-path="url(#SVGID_2_)"
       fill="#ffcd00"
       d="m 137.817,89.673 c -1.119,0 -2.028,0.909 -2.028,2.025 0,1.122 0.909,2.033 2.028,2.033 1.114,0 2.023,-0.911 2.023,-2.033 0.001,-1.116 -0.908,-2.025 -2.023,-2.025"
       id="path1161"
       style="stroke-width:0.14951"
       transform="matrix(2.586218,0,0,2.586218,-0.04137949,-0.04137949)" /><path
       clip-path="url(#SVGID_2_)"
       fill="#ffcd00"
       d="m 143.115,42.031 c -1.119,0 -2.03,0.907 -2.03,2.021 0,1.118 0.911,2.029 2.03,2.029 1.114,0 2.021,-0.911 2.021,-2.029 0,-1.114 -0.907,-2.021 -2.021,-2.021"
       id="path1163"
       style="stroke-width:0.14951"
       transform="matrix(2.586218,0,0,2.586218,-0.04137949,-0.04137949)" /><path
       clip-path="url(#SVGID_2_)"
       fill="#ffcd00"
       d="m 143.115,47.322 c -1.119,0 -2.03,0.907 -2.03,2.022 0,1.118 0.911,2.027 2.03,2.027 1.114,0 2.021,-0.909 2.021,-2.027 0,-1.115 -0.907,-2.022 -2.021,-2.022"
       id="path1165"
       style="stroke-width:0.14951"
       transform="matrix(2.586218,0,0,2.586218,-0.04137949,-0.04137949)" /><path
       clip-path="url(#SVGID_2_)"
       fill="#ffcd00"
       d="m 148.406,89.673 c -1.119,0 -2.028,0.909 -2.028,2.025 0,1.122 0.909,2.033 2.028,2.033 1.114,0 2.021,-0.911 2.021,-2.033 0,-1.116 -0.906,-2.025 -2.021,-2.025"
       id="path1167"
       style="stroke-width:0.14951"
       transform="matrix(2.586218,0,0,2.586218,-0.04137949,-0.04137949)" /><path
       clip-path="url(#SVGID_2_)"
       fill="#ffcd00"
       d="m 137.817,42.031 c -1.119,0 -2.028,0.907 -2.028,2.021 0,1.118 0.909,2.029 2.028,2.029 1.114,0 2.023,-0.911 2.023,-2.029 0.001,-1.114 -0.908,-2.021 -2.023,-2.021"
       id="path1169"
       style="stroke-width:0.14951"
       transform="matrix(2.586218,0,0,2.586218,-0.04137949,-0.04137949)" /><path
       clip-path="url(#SVGID_2_)"
       fill="#ffcd00"
       d="m 137.817,51.371 c 1.112,0 2.019,-0.909 2.019,-2.027 0,-1.115 -0.906,-2.022 -2.019,-2.022 -1.119,0 -2.028,0.907 -2.028,2.022 0,1.117 0.909,2.027 2.028,2.027"
       id="path1171"
       style="stroke-width:0.14951"
       transform="matrix(2.586218,0,0,2.586218,-0.04137949,-0.04137949)" /><path
       clip-path="url(#SVGID_2_)"
       fill="#ffcd00"
       d="m 137.817,52.617 c -1.119,0 -2.028,0.909 -2.028,2.027 0,1.117 0.909,2.025 2.028,2.025 1.114,0 2.023,-0.908 2.023,-2.025 0.001,-1.118 -0.908,-2.027 -2.023,-2.027"
       id="path1173"
       style="stroke-width:0.14951"
       transform="matrix(2.586218,0,0,2.586218,-0.04137949,-0.04137949)" /><path
       clip-path="url(#SVGID_2_)"
       fill="#ffcd00"
       d="m 137.817,84.383 c -1.119,0 -2.028,0.908 -2.028,2.024 0,1.12 0.909,2.028 2.028,2.028 1.114,0 2.023,-0.908 2.023,-2.028 0.001,-1.116 -0.908,-2.024 -2.023,-2.024"
       id="path1175"
       style="stroke-width:0.14951"
       transform="matrix(2.586218,0,0,2.586218,-0.04137949,-0.04137949)" /><path
       clip-path="url(#SVGID_2_)"
       fill="#ffcd00"
       d="m 143.115,84.383 c -1.119,0 -2.03,0.91 -2.03,2.031 0,1.114 0.911,2.024 2.03,2.024 1.114,0 2.021,-0.91 2.021,-2.024 0,-1.121 -0.907,-2.031 -2.021,-2.031"
       id="path1177"
       style="stroke-width:0.14951"
       transform="matrix(2.586218,0,0,2.586218,-0.04137949,-0.04137949)" /><path
       clip-path="url(#SVGID_2_)"
       fill="#ffcd00"
       d="m 143.115,89.673 c -1.119,0 -2.03,0.909 -2.03,2.025 0,1.122 0.911,2.033 2.03,2.033 1.114,0 2.021,-0.911 2.021,-2.033 0,-1.116 -0.907,-2.025 -2.021,-2.025"
       id="path1179"
       style="stroke-width:0.14951"
       transform="matrix(2.586218,0,0,2.586218,-0.04137949,-0.04137949)" /><path
       clip-path="url(#SVGID_2_)"
       fill="#ffcd00"
       d="m 143.108,94.974 c -1.119,0 -2.027,0.909 -2.027,2.023 0,1.118 0.908,2.029 2.027,2.029 1.114,0 2.023,-0.911 2.023,-2.029 0.001,-1.114 -0.908,-2.023 -2.023,-2.023"
       id="path1181"
       style="stroke-width:0.14951"
       transform="matrix(2.586218,0,0,2.586218,-0.04137949,-0.04137949)" /><path
       clip-path="url(#SVGID_2_)"
       fill="#ffcd00"
       d="m 137.817,20.852 c -1.119,0 -2.028,0.909 -2.028,2.026 0,1.115 0.909,2.023 2.028,2.023 1.114,0 2.023,-0.908 2.023,-2.023 0.001,-1.117 -0.908,-2.026 -2.023,-2.026"
       id="path1183"
       style="stroke-width:0.14951"
       transform="matrix(2.586218,0,0,2.586218,-0.04137949,-0.04137949)" /><path
       clip-path="url(#SVGID_2_)"
       fill="#ffcd00"
       d="m 137.817,26.144 c -1.119,0 -2.028,0.912 -2.028,2.033 0,1.116 0.909,2.024 2.028,2.024 1.104,0 2.012,-0.902 2.023,-2.012 0.001,-1.127 -0.908,-2.045 -2.023,-2.045"
       id="path1185"
       style="stroke-width:0.14951"
       transform="matrix(2.586218,0,0,2.586218,-0.04137949,-0.04137949)" /></g><g
     id="g1519"><path
       clip-path="url(#SVGID_2_)"
       fill="#2e2a25"
       d="m 138.738,9.627 c 0,-0.959 0.777,-1.733 1.734,-1.733 0.958,0 1.733,0.774 1.733,1.733 0,0.959 -0.775,1.736 -1.733,1.736 -0.956,0 -1.734,-0.777 -1.734,-1.736"
       id="path1187"
       style="stroke-width:0.14951"
       transform="matrix(2.586218,0,0,2.586218,-0.04137949,-0.04137949)" /><path
       clip-path="url(#SVGID_2_)"
       fill="#2e2a25"
       d="m 146.405,9.627 c 0,-0.959 0.775,-1.733 1.733,-1.733 0.96,0 1.735,0.774 1.735,1.733 0,0.959 -0.775,1.736 -1.735,1.736 -0.957,0 -1.733,-0.777 -1.733,-1.736"
       id="path1189"
       style="stroke-width:0.14951"
       transform="matrix(2.586218,0,0,2.586218,-0.04137949,-0.04137949)" /><path
       clip-path="url(#SVGID_2_)"
       fill="#2e2a25"
       d="m 146.405,17.603 c 0,-0.956 0.775,-1.733 1.733,-1.733 0.96,0 1.735,0.777 1.735,1.733 0,0.959 -0.775,1.736 -1.735,1.736 -0.957,0 -1.733,-0.777 -1.733,-1.736"
       id="path1191"
       style="stroke-width:0.14951"
       transform="matrix(2.586218,0,0,2.586218,-0.04137949,-0.04137949)" /><path
       clip-path="url(#SVGID_2_)"
       fill="#2e2a25"
       d="m 146.405,1.749 c 0,-0.959 0.775,-1.733 1.733,-1.733 0.96,0 1.735,0.774 1.735,1.733 0,0.959 -0.775,1.736 -1.735,1.736 -0.957,0 -1.733,-0.777 -1.733,-1.736"
       id="path1193"
       style="stroke-width:0.14951"
       transform="matrix(2.586218,0,0,2.586218,-0.04137949,-0.04137949)" /></g><g
     id="g1513"><path
       clip-path="url(#SVGID_2_)"
       fill="#2e2a25"
       d="m 220.581,78.325 c 0,-0.963 0.775,-1.736 1.733,-1.736 0.958,0 1.735,0.773 1.735,1.736 0,0.955 -0.777,1.732 -1.735,1.732 -0.958,0 -1.733,-0.777 -1.733,-1.732"
       id="path1195"
       style="stroke-width:0.14951"
       transform="matrix(2.586218,0,0,2.586218,-0.04137949,-0.04137949)" /><path
       clip-path="url(#SVGID_2_)"
       fill="#2e2a25"
       d="m 220.581,70.443 c 0,-0.956 0.775,-1.733 1.733,-1.733 0.958,0 1.735,0.777 1.735,1.733 0,0.96 -0.777,1.737 -1.735,1.737 -0.958,0 -1.733,-0.777 -1.733,-1.737"
       id="path1197"
       style="stroke-width:0.14951"
       transform="matrix(2.586218,0,0,2.586218,-0.04137949,-0.04137949)" /><path
       clip-path="url(#SVGID_2_)"
       fill="#2e2a25"
       d="m 220.581,54.491 c 0,-0.959 0.775,-1.737 1.733,-1.737 0.958,0 1.735,0.778 1.735,1.737 0,0.956 -0.777,1.733 -1.735,1.733 -0.958,0 -1.733,-0.777 -1.733,-1.733"
       id="path1199"
       style="stroke-width:0.14951"
       transform="matrix(2.586218,0,0,2.586218,-0.04137949,-0.04137949)" /><path
       clip-path="url(#SVGID_2_)"
       fill="#2e2a25"
       d="m 220.581,62.467 c 0,-0.959 0.775,-1.733 1.733,-1.733 0.958,0 1.735,0.774 1.735,1.733 0,0.959 -0.777,1.736 -1.735,1.736 -0.958,0 -1.733,-0.777 -1.733,-1.736"
       id="path1201"
       style="stroke-width:0.14951"
       transform="matrix(2.586218,0,0,2.586218,-0.04137949,-0.04137949)" /><path
       clip-path="url(#SVGID_2_)"
       fill="#2e2a25"
       d="m 220.581,46.613 c 0,-0.959 0.775,-1.733 1.733,-1.733 0.958,0 1.735,0.774 1.735,1.733 0,0.956 -0.777,1.736 -1.735,1.736 -0.958,0 -1.733,-0.78 -1.733,-1.736"
       id="path1203"
       style="stroke-width:0.14951"
       transform="matrix(2.586218,0,0,2.586218,-0.04137949,-0.04137949)" /><path
       clip-path="url(#SVGID_2_)"
       fill="#2e2a25"
       d="m 220.581,30.657 c 0,-0.959 0.775,-1.733 1.733,-1.733 0.958,0 1.735,0.774 1.735,1.733 0,0.959 -0.777,1.736 -1.735,1.736 -0.958,0 -1.733,-0.777 -1.733,-1.736"
       id="path1205"
       style="stroke-width:0.14951"
       transform="matrix(2.586218,0,0,2.586218,-0.04137949,-0.04137949)" /><path
       clip-path="url(#SVGID_2_)"
       fill="#2e2a25"
       d="m 220.581,38.634 c 0,-0.957 0.775,-1.733 1.733,-1.733 0.958,0 1.735,0.776 1.735,1.733 0,0.959 -0.777,1.736 -1.735,1.736 -0.958,0 -1.733,-0.777 -1.733,-1.736"
       id="path1207"
       style="stroke-width:0.14951"
       transform="matrix(2.586218,0,0,2.586218,-0.04137949,-0.04137949)" /><path
       clip-path="url(#SVGID_2_)"
       fill="#2e2a25"
       d="m 220.581,22.779 c 0,-0.959 0.775,-1.733 1.733,-1.733 0.958,0 1.735,0.774 1.735,1.733 0,0.959 -0.777,1.736 -1.735,1.736 -0.958,0 -1.733,-0.777 -1.733,-1.736"
       id="path1209"
       style="stroke-width:0.14951"
       transform="matrix(2.586218,0,0,2.586218,-0.04137949,-0.04137949)" /><path
       clip-path="url(#SVGID_2_)"
       fill="#2e2a25"
       d="m 212.613,46.613 c 0,-0.959 0.776,-1.733 1.734,-1.733 0.959,0 1.734,0.774 1.734,1.733 0,0.956 -0.775,1.736 -1.734,1.736 -0.957,0 -1.734,-0.78 -1.734,-1.736"
       id="path1211"
       style="stroke-width:0.14951"
       transform="matrix(2.586218,0,0,2.586218,-0.04137949,-0.04137949)" /><path
       clip-path="url(#SVGID_2_)"
       fill="#2e2a25"
       d="m 212.613,30.657 c 0,-0.959 0.776,-1.733 1.734,-1.733 0.959,0 1.734,0.774 1.734,1.733 0,0.959 -0.775,1.736 -1.734,1.736 -0.957,0 -1.734,-0.777 -1.734,-1.736"
       id="path1213"
       style="stroke-width:0.14951"
       transform="matrix(2.586218,0,0,2.586218,-0.04137949,-0.04137949)" /><path
       clip-path="url(#SVGID_2_)"
       fill="#2e2a25"
       d="m 212.613,38.634 c 0,-0.957 0.776,-1.733 1.734,-1.733 0.959,0 1.734,0.776 1.734,1.733 0,0.959 -0.775,1.736 -1.734,1.736 -0.957,0 -1.734,-0.777 -1.734,-1.736"
       id="path1215"
       style="stroke-width:0.14951"
       transform="matrix(2.586218,0,0,2.586218,-0.04137949,-0.04137949)" /><path
       clip-path="url(#SVGID_2_)"
       fill="#2e2a25"
       d="m 212.613,22.779 c 0,-0.959 0.776,-1.733 1.734,-1.733 0.959,0 1.734,0.774 1.734,1.733 0,0.959 -0.775,1.736 -1.734,1.736 -0.957,0 -1.734,-0.777 -1.734,-1.736"
       id="path1217"
       style="stroke-width:0.14951"
       transform="matrix(2.586218,0,0,2.586218,-0.04137949,-0.04137949)" /><path
       clip-path="url(#SVGID_2_)"
       fill="#2e2a25"
       d="m 228.547,30.657 c 0,-0.959 0.776,-1.733 1.735,-1.733 0.958,0 1.733,0.774 1.733,1.733 0,0.959 -0.775,1.736 -1.733,1.736 -0.959,0 -1.735,-0.777 -1.735,-1.736"
       id="path1219"
       style="stroke-width:0.14951"
       transform="matrix(2.586218,0,0,2.586218,-0.04137949,-0.04137949)" /><path
       clip-path="url(#SVGID_2_)"
       fill="#2e2a25"
       d="m 228.547,38.634 c 0,-0.957 0.776,-1.733 1.735,-1.733 0.958,0 1.733,0.776 1.733,1.733 0,0.959 -0.775,1.736 -1.733,1.736 -0.959,0 -1.735,-0.777 -1.735,-1.736"
       id="path1221"
       style="stroke-width:0.14951"
       transform="matrix(2.586218,0,0,2.586218,-0.04137949,-0.04137949)" /><path
       clip-path="url(#SVGID_2_)"
       fill="#2e2a25"
       d="m 228.547,22.779 c 0,-0.959 0.776,-1.733 1.735,-1.733 0.958,0 1.733,0.774 1.733,1.733 0,0.959 -0.775,1.736 -1.733,1.736 -0.959,0 -1.735,-0.777 -1.735,-1.736"
       id="path1223"
       style="stroke-width:0.14951"
       transform="matrix(2.586218,0,0,2.586218,-0.04137949,-0.04137949)" /></g><path
     clip-path="url(#SVGID_2_)"
     fill="#2e2a25"
     d="m 136.34,40.077 c 0.046,-0.046 1.257,-1.362 2.778,-0.101 0,0 -1.065,0.916 -2.778,0.101 m 5.457,-7.623 v 1.688 h -0.611 c -0.144,-0.412 -0.293,-0.884 -0.363,-1.064 0.038,-0.227 0.402,-0.504 0.974,-0.624 m 1.249,-0.009 c 0.594,0.118 0.972,0.406 1.019,0.633 -0.069,0.18 -0.228,0.652 -0.368,1.064 h -0.65 v -1.697 z m 11.181,11.126 c -0.149,-0.359 -2.412,-2.413 -2.412,-2.413 0.668,-1.902 0.352,-2.67 0.352,-2.67 -1.438,2.002 -2.359,0.513 -2.359,0.513 1.285,-2.053 0.052,-2.567 0.052,-2.567 0,0 0.104,1.834 -1.393,1.184 -1.678,-0.735 -1.634,-1.829 -3.852,-2.251 l 0.715,-2.148 v -0.105 c 0,-1.025 -1.089,-1.85 -2.531,-1.96 0.21,-0.129 0.357,-0.365 0.357,-0.628 0,-0.411 -0.336,-0.738 -0.738,-0.738 -0.398,0 -0.732,0.327 -0.732,0.738 0,0.268 0.152,0.499 0.365,0.628 -1.431,0.129 -2.492,0.944 -2.492,1.96 v 0.11 l 0.725,2.17 h 0.086 c -1.923,0.432 -2.178,1.399 -2.178,1.399 -1.284,0 -2.871,1.028 -1.854,3.278 -0.537,-0.255 -1.136,-0.684 -1.798,-1.375 0,0 -0.073,3.031 3.239,3.031 1.187,0 2.623,-0.671 3.34,-0.671 0,0 0.107,0.259 -0.405,0.36 -0.52,0.102 -1.748,0.2 -2.157,0.668 0,0 1.231,1.487 3.896,0.308 0,0 2.522,0 3.712,2.004 0.647,1.103 -0.771,2.463 -0.771,2.463 0,0 1.334,0 2.007,-0.619 0.662,-0.61 -0.18,1.067 -1.913,1.852 -0.563,0.254 2.371,0.818 3.394,0.204 0,0 0.052,0.825 -0.668,1.233 -0.71,0.408 -2.151,-0.053 -2.151,-0.053 0,0 -0.985,0.053 -1.653,0.314 0,0 -1.696,0.768 -1.842,0.813 -0.157,0.06 -1.704,0.982 -1.287,-1.176 l 0.048,-1.236 c 0,-0.509 -0.355,-0.816 -0.355,-0.816 0,0 -2.316,-1.542 -2.621,-2.668 l -0.883,0.508 c -3.229,-2.003 -4.625,-6.013 -3.959,-10.424 0,0 -0.152,-0.416 -0.506,-0.102 -0.358,0.308 -4.938,3.646 -0.516,10.37 0,0 -3.585,-2.667 -3.981,-8.905 0,0 -2.063,2.945 3.257,9.839 0,0 -3.61,-1.908 -4.697,-6.676 0,-0.033 -3.75,4.789 3.198,10.592 0,0 -3.47,-1.759 -5.183,-4.312 0,0 0.7,3.565 6.415,6.109 0,0 -2.945,-0.09 -6.593,-2.505 0,0 -0.445,3.38 5.321,5.759 0,0 -1.932,0.171 -5.189,-1.802 0,0 -0.175,1.713 5.677,2.68 0,0 -1.934,0.748 -5.762,-0.842 0,0 0.524,4.181 7.694,4.092 0,0 -2.288,1.007 -7.083,0.352 0,0 2.335,1.932 7.255,0.26 0,0 -1.625,1.931 -6.943,1.012 0,0 2.95,5.052 9.628,1.98 0,0 -1.979,2.633 -6.899,2.899 0,0 3.821,1.273 8.086,-2.421 0,0 -3.465,3.298 -5.931,4.264 0,0 4.791,2.813 10.728,-3.867 0,0 -1.499,2.505 -2.599,3.647 1.539,-0.039 3.681,-4.107 3.957,-4.65 -0.022,0.071 -0.792,3.299 -1.139,4.078 0,0 1.845,0.924 5.01,-4.969 0,0 -0.088,0.929 -0.398,1.761 -0.307,0.833 0.398,0.133 0.398,0.133 0,0 0.75,-0.133 1.32,-3.472 l 0.173,1.76 -0.349,0.837 0.966,-0.354 c 0.966,-0.307 0.087,0.657 0.087,0.657 0,0 -1.852,0.175 -4.659,3.997 0,0 -0.046,0.839 -2.589,1.497 0,0 -0.669,0.047 0.041,0.573 l 1.008,0.92 0.047,1.802 -2.726,2.898 c -1.277,1.363 -1.366,-0.525 -1.366,-0.525 l -0.13,-1.799 c -0.398,-2.768 -4.573,-4.044 -4.971,-1.013 0,0 0.967,-0.53 1.322,-0.091 0.353,0.448 0.045,0.529 0.045,0.529 0,0 0.702,0.574 1.007,0.923 0.313,0.355 0.181,1.897 0.181,1.897 0,0 -0.045,0.473 0.439,0.995 0,0 -1.981,-1.442 -3.255,-1.66 -4.448,-0.771 -4.659,4.303 -2.901,4.123 0,0 -0.446,-0.338 -0.087,-1.139 0.174,-0.394 0.829,0.217 0.829,0.217 l 3.088,0.13 c 1.227,0.045 1.038,0.257 0.564,0.662 -0.961,0.837 -2.511,1.614 -1.229,4.001 0,0 -0.315,1.296 1.398,1.425 1.72,0.132 1.505,-0.728 1.505,-0.728 0,0 -1.794,0.551 -1.539,-0.656 0.135,-0.613 0.877,-0.575 0.877,-0.575 0,0 1.057,-2.233 2.549,-2.937 1.493,-0.705 2.602,0.523 2.602,0.523 0,0 -0.046,1.32 1.4,1.581 0,0 0.313,1.013 -0.791,1.192 0,0 1.233,0.699 1.806,-0.972 0,0 1.239,-0.833 1.142,-1.754 -0.085,-0.927 -1.361,-2.11 -2.156,-2.24 l 3.786,-3.955 c 0,0 0,1.802 1.58,2.418 0,0 0.479,-0.966 0.17,-2.194 l 1.674,0.877 c 0,0 -0.479,-2.422 -0.085,-3.471 0.395,-1.055 1.272,-2.373 1.272,-2.373 0,0 0.699,2.762 -0.261,5.53 0,0 0.353,0.4 1.844,-0.696 0,0 -1.934,5.879 -5.936,2.545 0,0 -0.437,5.799 5.414,2.02 0,0 -0.011,1.295 -3.431,2.235 -2.068,0.577 -3.122,4.141 -3.122,4.141 0,0 2.064,-1.587 3.077,-1.98 1.011,-0.398 3.601,-1.274 4.093,-1.81 0,0 -0.66,1.856 -4.884,3.345 -5.231,1.846 -5.406,7.734 -1.143,7.163 0,0 -1.233,-1.626 -0.616,-2.771 0,0 0.699,-0.789 2.814,-2.148 0,0 2.241,-1.19 2.68,-1.36 0,0 -2.419,2.543 -2.944,3.951 -0.524,1.405 -1.271,4.262 1.497,4.784 0,0 -0.616,-2.678 1.182,-4.608 0,0 2.514,-2.767 3.301,-3.431 0,0 -0.485,4.133 -3.651,6.765 0,0 1.019,0.53 2.374,1.057 0,0 -1.065,3.35 2.049,5.023 l 0.012,-53.169 z"
     id="path1225"
     style="stroke-width:0.14951"
     transform="matrix(2.586218,0,0,2.586218,-0.04137949,-0.04137949)" /><g
     id="g1523"><polygon
       clip-path="url(#SVGID_2_)"
       fill="#cc3333"
       points="187.179,78.386 187.179,73.709 184.84,73.709 184.84,78.386 180.163,78.386 180.163,80.724 184.84,80.724 184.84,85.4 187.179,85.4 187.179,80.724 191.855,80.724 191.855,78.386 "
       id="polygon1255"
       style="stroke-width:0.14951"
       transform="matrix(2.586218,0,0,2.586218,-0.04137949,-0.04137949)" /><path
       clip-path="url(#SVGID_2_)"
       fill="#cc3333"
       d="m 155.177,92.416 h 46.769 V 15.248 h -46.769 z m 44.43,-51.445 h -4.677 v -4.677 h -2.339 v 4.677 h -4.677 v 2.338 h 4.677 v 4.677 h 2.339 v -4.677 h 4.677 v 4.677 h -11.692 v 23.372 l 9.052,8.545 -10.733,10.989 -11.262,-10.989 8.267,-8.545 V 33.956 h 16.369 v 7.015 z"
       id="path1257"
       style="stroke-width:0.14951"
       transform="matrix(2.586218,0,0,2.586218,-0.04137949,-0.04137949)" /></g></g>
</svg>
